<svg width="500" height="500" viewBox="0 0 500 500" fill="none" xmlns="http://www.w3.org/2000/svg">
<path d="M411.667 266.636H88.3333C79.758 266.636 71.5339 270.037 65.4702 276.089C59.4065 282.141 56 290.35 56 298.909V395.727C56 404.287 59.4065 412.495 65.4702 418.548C71.5339 424.6 79.758 428 88.3333 428H411.667C420.242 428 428.466 424.6 434.53 418.548C440.593 412.495 444 404.287 444 395.727V298.909C444 290.35 440.593 282.141 434.53 276.089C428.466 270.037 420.242 266.636 411.667 266.636ZM411.667 395.727H88.3333V298.909H411.667V395.727ZM411.667 73H88.3333C79.758 73 71.5339 76.4002 65.4702 82.4525C59.4065 88.5048 56 96.7135 56 105.273V202.091C56 210.65 59.4065 218.859 65.4702 224.911C71.5339 230.963 79.758 234.364 88.3333 234.364H411.667C420.242 234.364 428.466 230.963 434.53 224.911C440.593 218.859 444 210.65 444 202.091V105.273C444 96.7135 440.593 88.5048 434.53 82.4525C428.466 76.4002 420.242 73 411.667 73ZM411.667 202.091H88.3333V105.273H411.667V202.091ZM379.333 153.682C379.333 158.469 377.911 163.149 375.246 167.129C372.582 171.11 368.795 174.212 364.363 176.044C359.932 177.876 355.056 178.355 350.352 177.421C345.648 176.487 341.327 174.182 337.936 170.797C334.545 167.412 332.235 163.099 331.299 158.404C330.364 153.709 330.844 148.842 332.679 144.419C334.515 139.996 337.623 136.216 341.611 133.556C345.599 130.897 350.287 129.477 355.083 129.477C361.515 129.477 367.683 132.027 372.231 136.567C376.778 141.106 379.333 147.262 379.333 153.682ZM379.333 347.318C379.333 352.105 377.911 356.785 375.246 360.765C372.582 364.746 368.795 367.848 364.363 369.68C359.932 371.512 355.056 371.992 350.352 371.058C345.648 370.124 341.327 367.818 337.936 364.433C334.545 361.048 332.235 356.735 331.299 352.04C330.364 347.345 330.844 342.478 332.679 338.056C334.515 333.633 337.623 329.852 341.611 327.193C345.599 324.533 350.287 323.114 355.083 323.114C361.515 323.114 367.683 325.664 372.231 330.203C376.778 334.742 379.333 340.899 379.333 347.318Z" fill="#DFDFDF"/>
</svg>
