<svg width="1279" height="500" viewBox="0 0 1279 500" fill="none" xmlns="http://www.w3.org/2000/svg">
<path fill-rule="evenodd" clip-rule="evenodd" d="M1010.02 393.617C987.68 393.617 971.546 388.653 961.617 378.723C952.042 368.794 947.255 353.192 947.255 331.915V0H1011.62V342.021H1043.53V393.617H1010.02ZM1162.46 400C1125.58 400 1096.85 388.298 1076.29 364.894C1056.07 341.49 1045.97 304.788 1045.97 254.788C1045.97 204.788 1056.07 168.086 1076.29 144.681C1096.85 121.277 1125.58 109.575 1162.46 109.575C1199.34 109.575 1227.88 121.277 1248.09 144.681C1268.66 168.086 1278.95 204.788 1278.95 254.788C1278.95 304.788 1268.66 341.49 1248.09 364.894C1227.88 388.298 1199.34 400 1162.46 400ZM1162.46 347.873C1195.08 347.873 1211.39 328.724 1211.39 290.426V219.149C1211.39 180.852 1195.08 161.703 1162.46 161.703C1129.83 161.703 1113.52 180.852 1113.52 219.149V290.426C1113.52 328.724 1129.83 347.873 1162.46 347.873ZM933.745 115.958H869.383L828.958 265.426L814.064 338.83H807.681L792.788 265.958L751.298 115.958H685.873L778.426 409.043L767.256 448.405H712.469V500H756.086C775.944 500 791.369 496.632 802.362 489.894C813.355 483.156 821.866 470.39 827.894 451.596L933.745 115.958ZM477.969 393.617V22.3408H694.99V80.3195H544.458V177.128H674.777V233.511H544.458V393.617H477.969ZM33.7601 224.933H371.361C380.315 224.933 388.902 228.488 395.233 234.814C401.564 241.141 405.121 249.722 405.121 258.67V359.88C405.121 368.827 401.564 377.409 395.233 383.735C388.902 390.062 380.315 393.617 371.361 393.617H33.7601C24.8064 393.617 16.2194 390.062 9.8881 383.735C3.55686 377.409 0 368.827 0 359.88V258.67C0 249.722 3.55686 241.141 9.8881 234.814C16.2194 228.488 24.8064 224.933 33.7601 224.933ZM33.7601 359.88H371.361V258.67H33.7601V359.88ZM33.7601 22.5132H371.361C380.315 22.5132 388.902 26.0676 395.233 32.3944C401.564 38.7213 405.121 47.3023 405.121 56.2499V157.46C405.121 166.407 401.564 174.988 395.233 181.315C388.902 187.642 380.315 191.197 371.361 191.197H33.7601C24.8064 191.197 16.2194 187.642 9.8881 181.315C3.55686 174.988 0 166.407 0 157.46V56.2499C0 47.3023 3.55686 38.7213 9.8881 32.3944C16.2194 26.0676 24.8064 22.5132 33.7601 22.5132ZM33.7601 157.46H371.361V56.2499H33.7601V157.46ZM333.334 120.912C336.116 116.751 337.601 111.859 337.601 106.855C337.601 100.144 334.933 93.7084 330.185 88.9633C325.437 84.2182 318.996 81.5524 312.281 81.5524C307.273 81.5524 302.378 83.0363 298.214 85.8166C294.05 88.5969 290.805 92.5486 288.888 97.172C286.972 101.795 286.47 106.883 287.447 111.791C288.424 116.699 290.836 121.208 294.377 124.746C297.918 128.285 302.43 130.695 307.341 131.671C312.253 132.648 317.344 132.146 321.971 130.231C326.597 128.316 330.552 125.073 333.334 120.912ZM333.334 323.332C336.116 319.171 337.601 314.279 337.601 309.275C337.601 302.564 334.933 296.129 330.185 291.383C325.437 286.638 318.996 283.972 312.281 283.972C307.273 283.972 302.378 285.456 298.214 288.237C294.05 291.017 290.805 294.969 288.888 299.592C286.972 304.216 286.47 309.303 287.447 314.211C288.424 319.119 290.836 323.628 294.377 327.166C297.918 330.705 302.43 333.115 307.341 334.091C312.253 335.068 317.344 334.566 321.971 332.651C326.597 330.736 330.552 327.493 333.334 323.332Z" fill="#F9F9F9"/>
</svg>
