<svg width="628" height="310" viewBox="0 0 628 310" fill="none" xmlns="http://www.w3.org/2000/svg">
<g clip-path="url(#clip0_26_339)">
<path d="M549.4 9.91016H481V99.1102L549.4 100.82V9.91016Z" fill="#E0E0E0"/>
<path d="M544.9 13.0801H485.05V93.9801L544.9 96.0001V13.0801Z" fill="#FAFAFA"/>
<path d="M534.42 27.78L494.7 26.27V82.82H534.42V27.78Z" fill="#E0E0E0"/>
<path d="M494.7 82.82L534.42 53.77L494.7 26.27V82.82Z" fill="#EBEBEB"/>
<path d="M102.34 50.8203H17.58V310.47H102.34V50.8203Z" fill="#EBEBEB"/>
<path d="M169.07 51.6504H102.08V310.47H169.07V51.6504Z" fill="#F5F5F5"/>
<path d="M94.03 92.3804H22.13V112.62H94.03V92.3804Z" fill="#E0E0E0"/>
<path d="M28.16 94.9199H24.13V110.41H28.16V94.9199Z" fill="#F5F5F5"/>
<path d="M32.9 98.1804C32.9 98.4335 32.8249 98.681 32.6842 98.8915C32.5436 99.102 32.3437 99.2661 32.1098 99.363C31.8759 99.4598 31.6185 99.4852 31.3703 99.4358C31.122 99.3864 30.8939 99.2645 30.7149 99.0855C30.5359 98.9065 30.414 98.6784 30.3646 98.4301C30.3152 98.1818 30.3405 97.9245 30.4374 97.6906C30.5343 97.4567 30.6983 97.2568 30.9088 97.1161C31.1193 96.9755 31.3668 96.9004 31.62 96.9004C31.9594 96.9004 32.285 97.0353 32.5251 97.2753C32.7651 97.5153 32.9 97.8409 32.9 98.1804Z" fill="#FAFAFA"/>
<path d="M32.9 103.65C32.9 103.99 32.7651 104.315 32.5251 104.555C32.285 104.795 31.9594 104.93 31.62 104.93C31.2805 104.93 30.9549 104.795 30.7149 104.555C30.4748 104.315 30.34 103.99 30.34 103.65C30.34 103.311 30.4748 102.985 30.7149 102.745C30.9549 102.505 31.2805 102.37 31.62 102.37C31.9594 102.37 32.285 102.505 32.5251 102.745C32.7651 102.985 32.9 103.311 32.9 103.65Z" fill="#FAFAFA"/>
<path d="M41.9799 96.9004H38.0199V108.8H41.9799V96.9004Z" fill="#F5F5F5"/>
<path d="M47.69 96.9004H43.73V108.8H47.69V96.9004Z" fill="#F5F5F5"/>
<path d="M53.41 96.9004H49.45V108.8H53.41V96.9004Z" fill="#F5F5F5"/>
<path d="M59.1199 96.9004H55.1599V108.8H59.1199V96.9004Z" fill="#F5F5F5"/>
<path d="M64.84 96.9004H60.88V108.8H64.84V96.9004Z" fill="#F5F5F5"/>
<path d="M70.55 96.9004H66.59V108.8H70.55V96.9004Z" fill="#F5F5F5"/>
<path d="M76.2699 96.9004H72.3099V108.8H76.2699V96.9004Z" fill="#F5F5F5"/>
<path d="M81.98 96.9004H78.02V108.8H81.98V96.9004Z" fill="#F5F5F5"/>
<path d="M87.7 96.9004H83.74V108.8H87.7V96.9004Z" fill="#F5F5F5"/>
<path d="M93.41 96.9004H89.45V108.8H93.41V96.9004Z" fill="#F5F5F5"/>
<path d="M94.03 124.8H22.13V145.04H94.03V124.8Z" fill="#E0E0E0"/>
<path d="M28.16 127.34H24.13V142.83H28.16V127.34Z" fill="#F5F5F5"/>
<path d="M32.9 130.6C32.9 130.94 32.7651 131.265 32.5251 131.505C32.285 131.745 31.9594 131.88 31.62 131.88C31.2805 131.88 30.9549 131.745 30.7149 131.505C30.4748 131.265 30.34 130.94 30.34 130.6C30.34 130.261 30.4748 129.935 30.7149 129.695C30.9549 129.455 31.2805 129.32 31.62 129.32C31.9594 129.32 32.285 129.455 32.5251 129.695C32.7651 129.935 32.9 130.261 32.9 130.6Z" fill="#FAFAFA"/>
<path d="M32.9 136.08C32.9 136.333 32.8249 136.581 32.6842 136.791C32.5436 137.002 32.3437 137.166 32.1098 137.263C31.8759 137.36 31.6185 137.385 31.3703 137.336C31.122 137.286 30.8939 137.164 30.7149 136.985C30.5359 136.806 30.414 136.578 30.3646 136.33C30.3152 136.082 30.3405 135.824 30.4374 135.59C30.5343 135.357 30.6983 135.157 30.9088 135.016C31.1193 134.875 31.3668 134.8 31.62 134.8C31.9594 134.8 32.285 134.935 32.5251 135.175C32.7651 135.415 32.9 135.741 32.9 136.08Z" fill="#FAFAFA"/>
<path d="M41.9799 129.32H38.0199V141.22H41.9799V129.32Z" fill="#F5F5F5"/>
<path d="M47.69 129.32H43.73V141.22H47.69V129.32Z" fill="#F5F5F5"/>
<path d="M53.41 129.32H49.45V141.22H53.41V129.32Z" fill="#F5F5F5"/>
<path d="M59.1199 129.32H55.1599V141.22H59.1199V129.32Z" fill="#F5F5F5"/>
<path d="M64.84 129.32H60.88V141.22H64.84V129.32Z" fill="#F5F5F5"/>
<path d="M70.55 129.32H66.59V141.22H70.55V129.32Z" fill="#F5F5F5"/>
<path d="M76.2699 129.32H72.3099V141.22H76.2699V129.32Z" fill="#F5F5F5"/>
<path d="M81.98 129.32H78.02V141.22H81.98V129.32Z" fill="#F5F5F5"/>
<path d="M87.7 129.32H83.74V141.22H87.7V129.32Z" fill="#F5F5F5"/>
<path d="M93.41 129.32H89.45V141.22H93.41V129.32Z" fill="#F5F5F5"/>
<path d="M94.03 157.22H22.13V177.46H94.03V157.22Z" fill="#E0E0E0"/>
<path d="M28.16 159.77H24.13V175.26H28.16V159.77Z" fill="#F5F5F5"/>
<path d="M32.9 163C32.9 163.253 32.8249 163.501 32.6842 163.711C32.5436 163.922 32.3437 164.086 32.1098 164.183C31.8759 164.28 31.6185 164.305 31.3703 164.256C31.122 164.206 30.8939 164.084 30.7149 163.905C30.5359 163.726 30.414 163.498 30.3646 163.25C30.3152 163.002 30.3405 162.744 30.4374 162.51C30.5343 162.276 30.6983 162.077 30.9088 161.936C31.1193 161.795 31.3668 161.72 31.62 161.72C31.9594 161.72 32.285 161.855 32.5251 162.095C32.7651 162.335 32.9 162.661 32.9 163Z" fill="#FAFAFA"/>
<path d="M32.9 168.5C32.9 168.753 32.8249 169.001 32.6842 169.211C32.5436 169.422 32.3437 169.586 32.1098 169.683C31.8759 169.78 31.6185 169.805 31.3703 169.756C31.122 169.706 30.8939 169.584 30.7149 169.405C30.5359 169.226 30.414 168.998 30.3646 168.75C30.3152 168.502 30.3405 168.244 30.4374 168.01C30.5343 167.776 30.6983 167.577 30.9088 167.436C31.1193 167.295 31.3668 167.22 31.62 167.22C31.9594 167.22 32.285 167.355 32.5251 167.595C32.7651 167.835 32.9 168.161 32.9 168.5Z" fill="#FAFAFA"/>
<path d="M41.9799 161.75H38.0199V173.65H41.9799V161.75Z" fill="#F5F5F5"/>
<path d="M47.69 161.75H43.73V173.65H47.69V161.75Z" fill="#F5F5F5"/>
<path d="M53.41 161.75H49.45V173.65H53.41V161.75Z" fill="#F5F5F5"/>
<path d="M59.1199 161.75H55.1599V173.65H59.1199V161.75Z" fill="#F5F5F5"/>
<path d="M64.84 161.75H60.88V173.65H64.84V161.75Z" fill="#F5F5F5"/>
<path d="M70.55 161.75H66.59V173.65H70.55V161.75Z" fill="#F5F5F5"/>
<path d="M76.2699 161.75H72.3099V173.65H76.2699V161.75Z" fill="#F5F5F5"/>
<path d="M81.98 161.75H78.02V173.65H81.98V161.75Z" fill="#F5F5F5"/>
<path d="M87.7 161.75H83.74V173.65H87.7V161.75Z" fill="#F5F5F5"/>
<path d="M93.41 161.75H89.45V173.65H93.41V161.75Z" fill="#F5F5F5"/>
<path d="M94.03 189.65H22.13V209.89H94.03V189.65Z" fill="#E0E0E0"/>
<path d="M28.16 192.19H24.13V207.68H28.16V192.19Z" fill="#F5F5F5"/>
<path d="M32.9 195.45C32.9 195.703 32.8249 195.951 32.6842 196.161C32.5436 196.372 32.3437 196.536 32.1098 196.632C31.8759 196.729 31.6185 196.755 31.3703 196.705C31.122 196.656 30.8939 196.534 30.7149 196.355C30.5359 196.176 30.414 195.948 30.3646 195.7C30.3152 195.451 30.3405 195.194 30.4374 194.96C30.5343 194.726 30.6983 194.526 30.9088 194.386C31.1193 194.245 31.3668 194.17 31.62 194.17C31.9594 194.17 32.285 194.305 32.5251 194.545C32.7651 194.785 32.9 195.11 32.9 195.45Z" fill="#FAFAFA"/>
<path d="M32.9 200.92C32.9 201.26 32.7651 201.585 32.5251 201.825C32.285 202.065 31.9594 202.2 31.62 202.2C31.2805 202.2 30.9549 202.065 30.7149 201.825C30.4748 201.585 30.34 201.26 30.34 200.92C30.34 200.581 30.4748 200.255 30.7149 200.015C30.9549 199.775 31.2805 199.64 31.62 199.64C31.9594 199.64 32.285 199.775 32.5251 200.015C32.7651 200.255 32.9 200.581 32.9 200.92Z" fill="#FAFAFA"/>
<path d="M41.9799 194.17H38.0199V206.07H41.9799V194.17Z" fill="#F5F5F5"/>
<path d="M47.69 194.17H43.73V206.07H47.69V194.17Z" fill="#F5F5F5"/>
<path d="M53.41 194.17H49.45V206.07H53.41V194.17Z" fill="#F5F5F5"/>
<path d="M59.1199 194.17H55.1599V206.07H59.1199V194.17Z" fill="#F5F5F5"/>
<path d="M64.84 194.17H60.88V206.07H64.84V194.17Z" fill="#F5F5F5"/>
<path d="M70.55 194.17H66.59V206.07H70.55V194.17Z" fill="#F5F5F5"/>
<path d="M76.2699 194.17H72.3099V206.07H76.2699V194.17Z" fill="#F5F5F5"/>
<path d="M81.98 194.17H78.02V206.07H81.98V194.17Z" fill="#F5F5F5"/>
<path d="M87.7 194.17H83.74V206.07H87.7V194.17Z" fill="#F5F5F5"/>
<path d="M93.41 194.17H89.45V206.07H93.41V194.17Z" fill="#F5F5F5"/>
<path d="M94.03 222.07H22.13V242.31H94.03V222.07Z" fill="#E0E0E0"/>
<path d="M28.16 224.61H24.13V240.1H28.16V224.61Z" fill="#F5F5F5"/>
<path d="M32.9 227.87C32.9 228.21 32.7651 228.535 32.5251 228.775C32.285 229.015 31.9594 229.15 31.62 229.15C31.2805 229.15 30.9549 229.015 30.7149 228.775C30.4748 228.535 30.34 228.21 30.34 227.87C30.34 227.531 30.4748 227.205 30.7149 226.965C30.9549 226.725 31.2805 226.59 31.62 226.59C31.9594 226.59 32.285 226.725 32.5251 226.965C32.7651 227.205 32.9 227.531 32.9 227.87Z" fill="#FAFAFA"/>
<path d="M32.9 233.35C32.9 233.603 32.8249 233.851 32.6842 234.061C32.5436 234.272 32.3437 234.436 32.1098 234.533C31.8759 234.63 31.6185 234.655 31.3703 234.606C31.122 234.556 30.8939 234.434 30.7149 234.255C30.5359 234.076 30.414 233.848 30.3646 233.6C30.3152 233.352 30.3405 233.094 30.4374 232.86C30.5343 232.627 30.6983 232.427 30.9088 232.286C31.1193 232.145 31.3668 232.07 31.62 232.07C31.9594 232.07 32.285 232.205 32.5251 232.445C32.7651 232.685 32.9 233.011 32.9 233.35Z" fill="#FAFAFA"/>
<path d="M41.9799 226.59H38.0199V238.49H41.9799V226.59Z" fill="#F5F5F5"/>
<path d="M47.69 226.59H43.73V238.49H47.69V226.59Z" fill="#F5F5F5"/>
<path d="M53.41 226.59H49.45V238.49H53.41V226.59Z" fill="#F5F5F5"/>
<path d="M59.1199 226.59H55.1599V238.49H59.1199V226.59Z" fill="#F5F5F5"/>
<path d="M64.84 226.59H60.88V238.49H64.84V226.59Z" fill="#F5F5F5"/>
<path d="M70.55 226.59H66.59V238.49H70.55V226.59Z" fill="#F5F5F5"/>
<path d="M76.2699 226.59H72.3099V238.49H76.2699V226.59Z" fill="#F5F5F5"/>
<path d="M81.98 226.59H78.02V238.49H81.98V226.59Z" fill="#F5F5F5"/>
<path d="M87.7 226.59H83.74V238.49H87.7V226.59Z" fill="#F5F5F5"/>
<path d="M93.41 226.59H89.45V238.49H93.41V226.59Z" fill="#F5F5F5"/>
<path d="M94.03 254.49H22.13V274.73H94.03V254.49Z" fill="#E0E0E0"/>
<path d="M28.16 257.04H24.13V272.53H28.16V257.04Z" fill="#F5F5F5"/>
<path d="M32.8999 260.3C32.896 260.552 32.8176 260.798 32.6746 261.006C32.5315 261.213 32.3303 261.374 32.0961 261.468C31.8619 261.562 31.6051 261.585 31.3582 261.533C31.1112 261.481 30.885 261.358 30.708 261.178C30.531 260.998 30.411 260.77 30.3633 260.522C30.3155 260.275 30.342 260.018 30.4394 259.786C30.5368 259.553 30.7009 259.354 30.9109 259.214C31.121 259.075 31.3676 259 31.6199 259C31.7897 259 31.9578 259.034 32.1144 259.099C32.271 259.165 32.4131 259.261 32.5322 259.382C32.6513 259.503 32.7452 259.646 32.8083 259.804C32.8714 259.962 32.9026 260.13 32.8999 260.3Z" fill="#FAFAFA"/>
<path d="M32.9 265.77C32.9 266.023 32.8249 266.271 32.6842 266.481C32.5436 266.692 32.3437 266.856 32.1098 266.953C31.8759 267.05 31.6185 267.075 31.3703 267.026C31.122 266.976 30.8939 266.854 30.7149 266.675C30.5359 266.496 30.414 266.268 30.3646 266.02C30.3152 265.772 30.3405 265.514 30.4374 265.28C30.5343 265.047 30.6983 264.847 30.9088 264.706C31.1193 264.565 31.3668 264.49 31.62 264.49C31.9594 264.49 32.285 264.625 32.5251 264.865C32.7651 265.105 32.9 265.431 32.9 265.77Z" fill="#FAFAFA"/>
<path d="M41.9799 259.02H38.0199V270.92H41.9799V259.02Z" fill="#F5F5F5"/>
<path d="M47.69 259.02H43.73V270.92H47.69V259.02Z" fill="#F5F5F5"/>
<path d="M53.41 259.02H49.45V270.92H53.41V259.02Z" fill="#F5F5F5"/>
<path d="M59.1199 259.02H55.1599V270.92H59.1199V259.02Z" fill="#F5F5F5"/>
<path d="M64.84 259.02H60.88V270.92H64.84V259.02Z" fill="#F5F5F5"/>
<path d="M70.55 259.02H66.59V270.92H70.55V259.02Z" fill="#F5F5F5"/>
<path d="M76.2699 259.02H72.3099V270.92H76.2699V259.02Z" fill="#F5F5F5"/>
<path d="M81.98 259.02H78.02V270.92H81.98V259.02Z" fill="#F5F5F5"/>
<path d="M87.7 259.02H83.74V270.92H87.7V259.02Z" fill="#F5F5F5"/>
<path d="M93.41 259.02H89.45V270.92H93.41V259.02Z" fill="#F5F5F5"/>
<path d="M94.03 286.92H22.13V307.16H94.03V286.92Z" fill="#E0E0E0"/>
<path d="M28.16 289.46H24.13V304.95H28.16V289.46Z" fill="#F5F5F5"/>
<path d="M32.9 292.72C32.9 292.973 32.8249 293.221 32.6842 293.431C32.5436 293.642 32.3437 293.806 32.1098 293.902C31.8759 293.999 31.6185 294.025 31.3703 293.975C31.122 293.926 30.8939 293.804 30.7149 293.625C30.5359 293.446 30.414 293.218 30.3646 292.97C30.3152 292.721 30.3405 292.464 30.4374 292.23C30.5343 291.996 30.6983 291.796 30.9088 291.656C31.1193 291.515 31.3668 291.44 31.62 291.44C31.9594 291.44 32.285 291.575 32.5251 291.815C32.7651 292.055 32.9 292.38 32.9 292.72Z" fill="#FAFAFA"/>
<path d="M32.9 298.2C32.9 298.453 32.8249 298.701 32.6842 298.911C32.5436 299.122 32.3437 299.286 32.1098 299.383C31.8759 299.479 31.6185 299.505 31.3703 299.455C31.122 299.406 30.8939 299.284 30.7149 299.105C30.5359 298.926 30.414 298.698 30.3646 298.45C30.3152 298.201 30.3405 297.944 30.4374 297.71C30.5343 297.476 30.6983 297.276 30.9088 297.136C31.1193 296.995 31.3668 296.92 31.62 296.92C31.7884 296.919 31.9555 296.951 32.1114 297.015C32.2673 297.079 32.4089 297.173 32.528 297.292C32.6472 297.411 32.7414 297.553 32.8052 297.709C32.8691 297.864 32.9013 298.031 32.9 298.2Z" fill="#FAFAFA"/>
<path d="M41.9799 291.44H38.0199V303.34H41.9799V291.44Z" fill="#F5F5F5"/>
<path d="M47.69 291.44H43.73V303.34H47.69V291.44Z" fill="#F5F5F5"/>
<path d="M53.41 291.44H49.45V303.34H53.41V291.44Z" fill="#F5F5F5"/>
<path d="M59.1199 291.44H55.1599V303.34H59.1199V291.44Z" fill="#F5F5F5"/>
<path d="M64.84 291.44H60.88V303.34H64.84V291.44Z" fill="#F5F5F5"/>
<path d="M70.55 291.44H66.59V303.34H70.55V291.44Z" fill="#F5F5F5"/>
<path d="M76.2699 291.44H72.3099V303.34H76.2699V291.44Z" fill="#F5F5F5"/>
<path d="M81.98 291.44H78.02V303.34H81.98V291.44Z" fill="#F5F5F5"/>
<path d="M87.7 291.44H83.74V303.34H87.7V291.44Z" fill="#F5F5F5"/>
<path d="M93.41 291.44H89.45V303.34H93.41V291.44Z" fill="#F5F5F5"/>
<path d="M66.5899 92.3802C66.55 92.1724 66.5266 91.9617 66.5199 91.7502C66.5199 91.3402 66.4599 90.7502 66.4399 89.9502C66.4199 89.1502 66.4399 88.2202 66.3499 87.1102C66.3113 85.8662 66.1437 84.6296 65.8499 83.4202C65.4391 81.9885 64.79 80.6362 63.9299 79.4202C62.9501 78.0141 61.5856 76.9204 59.9999 76.2702C58.2078 75.612 56.3266 75.2277 54.4199 75.1302L48.2299 74.6002C39.7399 73.8602 32.0399 73.3902 26.4699 73.2802C23.6799 73.2202 21.4699 73.2302 19.8599 73.2802H18.0599C17.8507 73.3052 17.6392 73.3052 17.4299 73.2802C17.6377 73.2402 17.8484 73.2168 18.0599 73.2102L19.8499 73.1002C21.4199 73.0302 23.6799 72.9602 26.4699 72.9702C32.0599 72.9702 39.7799 73.4002 48.2699 74.1402L54.4699 74.6902C56.4232 74.7906 58.3492 75.192 60.1799 75.8802C61.8417 76.577 63.2659 77.7406 64.2799 79.2302C65.1605 80.5085 65.8134 81.9294 66.2099 83.4302C66.4862 84.6681 66.6303 85.9319 66.6399 87.2002C66.6399 88.3102 66.6399 89.2702 66.6399 90.0502C66.6399 90.8302 66.6399 91.3802 66.6399 91.8502C66.6411 92.0281 66.6243 92.2057 66.5899 92.3802Z" fill="#E0E0E0"/>
<path d="M44.78 92.3803C44.7592 92.1842 44.7592 91.9864 44.78 91.7903C44.78 91.3403 44.78 90.7903 44.78 90.0903C44.78 89.3903 44.78 88.4603 44.69 87.4303C44.6332 86.2697 44.3298 85.1345 43.8 84.1003C43.0227 82.9392 41.8837 82.0674 40.56 81.6203C39.0596 81.0337 37.4276 80.8677 35.84 81.1403C34.9892 81.279 34.1678 81.5596 33.41 81.9703C32.6231 82.3712 31.9673 82.9889 31.52 83.7503C31.2987 84.1315 31.1821 84.5645 31.1821 85.0053C31.1821 85.4461 31.2987 85.8791 31.52 86.2603C31.7456 86.6603 32.0512 87.0097 32.4176 87.2867C32.784 87.5636 33.2035 87.7623 33.65 87.8703C34.0936 87.9696 34.5551 87.9557 34.992 87.8299C35.4289 87.7041 35.8271 87.4704 36.15 87.1503C36.7969 86.5172 37.1945 85.6724 37.27 84.7703C37.3283 83.8924 37.0613 83.0238 36.52 82.3303C36.0312 81.6317 35.3834 81.0594 34.63 80.6603C33.8665 80.2952 33.0432 80.0716 32.2 80.0003C31.39 79.8803 30.6 79.7803 29.84 79.6903C28.31 79.5203 26.84 79.4203 25.57 79.3603C22.95 79.2603 20.83 79.3003 19.36 79.2903H17.67C17.474 79.3142 17.2759 79.3142 17.08 79.2903C17.2698 79.2439 17.4645 79.2204 17.66 79.2203L19.35 79.1303C20.82 79.0703 22.95 78.9803 25.58 79.0403C26.9 79.0403 28.34 79.1503 29.88 79.3003C30.66 79.3803 31.45 79.4803 32.27 79.5903C32.68 79.6603 33.09 79.7103 33.52 79.7903C33.9627 79.8734 34.3907 80.0217 34.79 80.2303C35.6141 80.6466 36.3271 81.2534 36.87 82.0003C37.4778 82.7872 37.7798 83.7678 37.72 84.7603C37.6463 85.7946 37.19 86.7643 36.44 87.4803C36.0527 87.8646 35.5748 88.145 35.0503 88.2953C34.5259 88.4456 33.972 88.4611 33.44 88.3403C32.9324 88.215 32.4551 87.9894 32.0361 87.6768C31.617 87.3643 31.2648 86.971 31 86.5203C30.7433 86.062 30.6086 85.5456 30.6086 85.0203C30.6086 84.4951 30.7433 83.9786 31 83.5203C31.4898 82.663 32.2198 81.9678 33.1 81.5203C33.9101 81.093 34.7852 80.8025 35.69 80.6603C37.3754 80.3756 39.1067 80.5661 40.69 81.2103C42.095 81.7018 43.2929 82.6532 44.09 83.9103C44.6278 84.997 44.9213 86.1882 44.95 87.4003C44.95 88.4503 44.95 89.4003 44.95 90.0903C44.95 90.7803 44.95 91.3303 44.88 91.7803C44.8726 91.9838 44.839 92.1855 44.78 92.3803Z" fill="#E0E0E0"/>
<path d="M72.4599 92.3801C72.3922 92.1611 72.342 91.9371 72.3099 91.7101C72.2299 91.2701 72.1099 90.6201 71.9299 89.7901C71.4396 87.4409 70.7264 85.1438 69.7999 82.9301C68.4964 79.6321 66.3393 76.7399 63.5499 74.5501C61.8644 73.333 59.8882 72.5811 57.8199 72.3701C55.5849 72.1257 53.3382 72.0055 51.0899 72.0101C41.7899 71.8401 33.3699 71.8701 27.2799 71.6301C24.2799 71.5201 21.7699 71.3701 20.0699 71.2501L18.0699 71.0801C17.8405 71.0689 17.6128 71.0354 17.3899 70.9801C17.6196 70.963 17.8502 70.963 18.0799 70.9801L20.0799 71.0601C21.7799 71.1201 24.2399 71.2101 27.2899 71.2701C33.3799 71.4201 41.7899 71.3201 51.0999 71.5001C53.372 71.4937 55.6426 71.6206 57.8999 71.8801C60.049 72.1058 62.0992 72.8997 63.8399 74.1801C65.3868 75.356 66.7369 76.7704 67.8399 78.3701C68.7696 79.7627 69.5538 81.2472 70.1799 82.8001C71.0918 85.0563 71.7623 87.4027 72.1799 89.8001C72.3299 90.6401 72.4199 91.2901 72.4699 91.7401C72.4857 91.9533 72.4824 92.1675 72.4599 92.3801Z" fill="#E0E0E0"/>
<path d="M93.04 54.0503H23.12V64.2003H93.04V54.0503Z" fill="#E0E0E0"/>
<path d="M76.56 59.1201H38.49V64.2001H76.56V59.1201Z" fill="#F5F5F5"/>
<path d="M628.4 309.67H626.78H622.01L603.69 309.79L536.31 310.12L314 310.88C227.16 311.06 148.56 311.09 91.66 310.88C63.21 310.79 40.19 310.64 24.28 310.44C16.28 310.33 10.15 310.21 5.96003 310.08C1.77003 309.95 -0.429966 309.76 -0.399966 309.64C-0.268819 309.674 -0.135017 309.698 3.5733e-05 309.71C0.270036 309.71 0.670035 309.78 1.21003 309.81C2.28004 309.87 3.87004 309.92 5.97004 309.97C10.15 310.07 16.33 310.16 24.28 310.23C40.19 310.38 63.21 310.47 91.66 310.51C148.56 310.6 227.16 310.51 314 310.33L536.31 309.79L603.69 309.63H622.01H626.78C627.85 309.65 628.4 309.67 628.4 309.67Z" fill="#263238"/>
<path d="M480.14 86.19C479.77 84.9935 478.965 83.9793 477.884 83.3479C476.803 82.7165 475.524 82.5138 474.3 82.78C473.427 83.1485 472.503 83.3812 471.56 83.47C470.741 83.329 469.953 83.0482 469.23 82.64C467.417 81.957 465.408 82.0086 463.632 82.7836C461.856 83.5586 460.453 84.996 459.72 86.79C458.545 86.1358 457.203 85.8435 455.862 85.95C454.522 86.0565 453.243 86.5569 452.186 87.3884C451.129 88.2198 450.341 89.3452 449.922 90.623C449.503 91.9008 449.471 93.274 449.83 94.57C448.564 94.8129 447.409 95.4572 446.538 96.4076C445.666 97.358 445.124 98.5638 444.992 99.8464C444.86 101.129 445.144 102.42 445.803 103.529C446.462 104.637 447.46 105.504 448.65 106C448.115 106.958 447.823 108.033 447.799 109.131C447.775 110.229 448.021 111.315 448.514 112.296C449.007 113.277 449.733 114.122 450.629 114.757C451.524 115.392 452.561 115.798 453.65 115.94C453.476 117.123 453.653 118.332 454.158 119.416C454.663 120.5 455.475 121.412 456.493 122.04C457.511 122.667 458.691 122.983 459.887 122.947C461.082 122.912 462.241 122.527 463.22 121.84C463.495 122.986 464.097 124.027 464.952 124.836C465.808 125.646 466.88 126.19 468.039 126.402C469.198 126.614 470.393 126.485 471.48 126.03C472.566 125.575 473.498 124.814 474.16 123.84C476.23 125.95 479.99 125.64 482.16 123.64C484.33 121.64 485.07 118.43 484.74 115.5C486.02 115.887 487.39 115.859 488.652 115.419C489.915 114.978 491.005 114.149 491.767 113.05C492.528 111.95 492.921 110.638 492.889 109.301C492.858 107.964 492.403 106.672 491.59 105.61C492.677 105.498 493.707 105.068 494.552 104.374C495.396 103.681 496.018 102.754 496.34 101.71C496.636 100.658 496.682 99.5507 496.474 98.4775C496.266 97.4043 495.809 96.3948 495.14 95.53C493.77 93.809 491.836 92.6263 489.68 92.19C489.508 91.2028 489.13 90.2627 488.572 89.4305C488.013 88.5984 487.287 87.8928 486.438 87.3593C485.59 86.8258 484.639 86.4763 483.647 86.3334C482.655 86.1906 481.644 86.2575 480.68 86.53" fill="#263238"/>
<path d="M472.12 227.76L469.65 306.8H465.89L466.62 227.97L472.12 227.76Z" fill="#455A64"/>
<path d="M485.7 226.81L504.26 310.23L508.29 310.04L492.96 226.81H485.7Z" fill="#455A64"/>
<path d="M451.41 227.76L429.78 310.23L425.01 310.04L445.35 227.41L451.41 227.76Z" fill="#455A64"/>
<path d="M504.05 146C504.05 146 524.25 144.85 522.23 168.22C520.21 191.59 519.05 215.22 511.55 223.33C504.05 231.44 428.46 231.69 422.11 225.06C415.76 218.43 434.23 218.71 437.69 218.71C441.15 218.71 462.5 220.71 469.43 202.55C476.36 184.39 474.62 144.82 504.05 146Z" fill="#455A64"/>
<path d="M505.34 146C505.34 146 520.78 149.16 519.34 165.32C517.9 181.48 513.86 209.75 506.34 216.97C498.82 224.19 469.44 225.75 453.54 224.76C435.07 223.6 423.41 220.09 423.41 220.09C423.41 220.09 420.04 222.26 421.07 223.65C422.1 225.04 431.07 230.65 474.74 229.73C518.41 228.81 515.35 222.35 517.16 215.32C518.97 208.29 522.77 170.78 522.24 162.53C521.71 154.28 517.58 147.43 505.34 146Z" fill="#455A64"/>
<path d="M412.35 305.22L412.3 296L429.52 295.79L429.74 309.24L428.67 309.32C423.93 309.64 404.5 310.62 401.31 309.7C397.76 308.69 412.35 305.22 412.35 305.22Z" fill="#407BFF"/>
<g opacity="0.4">
<path d="M423.5 309.21C423.738 307.754 424.503 306.437 425.65 305.51C426.773 304.59 428.201 304.126 429.65 304.21L429.71 309.02L423.5 309.21Z" fill="black"/>
</g>
<path opacity="0.4" d="M405.22 307.17C405.22 307.17 400.11 308.71 400.76 309.55C401.41 310.39 421.08 310.14 429.76 309.27V308.88L406.82 309.37C406.82 309.37 406.23 307.2 405.22 307.17Z" fill="black"/>
<path d="M430 308.87H429.7L428.85 308.93L425.73 309.1C423.08 309.23 419.43 309.36 415.39 309.42C411.35 309.48 407.7 309.42 405.05 309.42L401.92 309.33H401.07H400.77H401.92H405.06C407.7 309.33 411.35 309.33 415.39 309.33C419.43 309.33 423.08 309.17 425.72 309.08L428.85 308.97H429.7L430 308.87Z" fill="#263238"/>
<path d="M406.78 309.64C406.639 309.122 406.438 308.621 406.18 308.15C405.862 307.729 405.5 307.344 405.1 307C405.62 307.219 406.06 307.593 406.361 308.07C406.661 308.548 406.808 309.106 406.78 309.67V309.64Z" fill="#263238"/>
<path d="M411.83 307C411.78 307 411.54 306.74 411.28 306.34C411.095 306.117 410.965 305.853 410.9 305.57C410.95 305.57 411.2 305.84 411.46 306.23C411.72 306.62 411.88 307 411.83 307Z" fill="#263238"/>
<path d="M413.22 306.24C413.22 306.24 412.9 306.11 412.6 305.84C412.3 305.57 412.09 305.33 412.13 305.29C412.17 305.25 412.44 305.42 412.74 305.69C413.04 305.96 413.25 306.2 413.22 306.24Z" fill="#263238"/>
<path d="M414.08 304.6C413.795 304.714 413.486 304.759 413.18 304.73C412.878 304.772 412.57 304.745 412.28 304.65C412.565 304.536 412.874 304.491 413.18 304.52C413.482 304.485 413.789 304.513 414.08 304.6Z" fill="#263238"/>
<path d="M414.37 303.45C414.079 303.658 413.728 303.767 413.37 303.76C413.031 303.819 412.683 303.774 412.37 303.63C412.7 303.573 413.035 303.547 413.37 303.55C413.7 303.49 414.035 303.456 414.37 303.45Z" fill="#263238"/>
<path d="M411.23 305.5C410.862 305.561 410.487 305.561 410.12 305.5C409.719 305.455 409.324 305.371 408.94 305.25C408.702 305.192 408.473 305.101 408.26 304.98C408.128 304.905 408.028 304.784 407.98 304.64C407.964 304.558 407.971 304.473 408.001 304.395C408.031 304.317 408.083 304.25 408.15 304.2C408.567 303.983 409.048 303.921 409.507 304.023C409.966 304.126 410.374 304.386 410.66 304.76C410.837 304.976 410.963 305.229 411.03 305.5C411.052 305.595 411.052 305.695 411.03 305.79C410.91 305.453 410.735 305.138 410.51 304.86C410.258 304.57 409.929 304.358 409.56 304.25C409.343 304.181 409.115 304.155 408.889 304.174C408.663 304.193 408.442 304.256 408.24 304.36C408.06 304.49 408.14 304.7 408.33 304.81C408.529 304.921 408.74 305.008 408.96 305.07C409.331 305.195 409.713 305.289 410.1 305.35C410.81 305.47 411.23 305.47 411.23 305.5Z" fill="#263238"/>
<path d="M410.94 305.56C410.807 305.327 410.761 305.054 410.81 304.79C410.836 304.5 410.936 304.221 411.1 303.98C411.191 303.814 411.321 303.674 411.481 303.573C411.64 303.472 411.822 303.412 412.01 303.4C412.124 303.422 412.224 303.488 412.29 303.583C412.355 303.679 412.381 303.796 412.36 303.91C412.337 304.088 412.275 304.258 412.18 304.41C412.037 304.655 411.863 304.881 411.66 305.08C411.495 305.282 411.282 305.441 411.04 305.54C411.04 305.54 411.25 305.34 411.55 304.99C411.725 304.782 411.879 304.558 412.01 304.32C412.16 304.08 412.26 303.66 412.01 303.61C411.76 303.56 411.45 303.87 411.29 304.09C411.132 304.303 411.026 304.549 410.98 304.81C410.945 305.058 410.932 305.309 410.94 305.56Z" fill="#263238"/>
<path d="M429.57 304.16C429.57 304.16 429.07 304.16 428.3 304.22C427.29 304.356 426.336 304.763 425.54 305.4C424.753 306.053 424.161 306.912 423.83 307.88C423.58 308.62 423.56 309.11 423.52 309.11C423.499 308.994 423.499 308.876 423.52 308.76C423.542 308.444 423.599 308.133 423.69 307.83C423.985 306.813 424.581 305.91 425.401 305.24C426.221 304.57 427.225 304.166 428.28 304.08C428.612 304.039 428.948 304.039 429.28 304.08C429.379 304.095 429.477 304.122 429.57 304.16Z" fill="#263238"/>
<path d="M427.69 297C427.897 299.351 427.957 301.712 427.87 304.07C427.677 301.719 427.617 299.358 427.69 297Z" fill="#263238"/>
<path d="M421.31 307.56C419.663 307.892 417.97 307.929 416.31 307.67C416.31 307.61 417.44 307.67 418.83 307.67C420.22 307.67 421.3 307.5 421.31 307.56Z" fill="#263238"/>
<path d="M424.68 307.51C424.68 307.51 424.59 307.75 424.48 308.01C424.37 308.27 424.31 308.5 424.25 308.5C424.19 308.5 424.16 308.22 424.25 307.93C424.34 307.64 424.64 307.47 424.68 307.51Z" fill="#263238"/>
<path d="M425.93 305.91C425.98 305.91 425.87 306.13 425.69 306.31C425.51 306.49 425.34 306.61 425.3 306.57C425.26 306.53 425.36 306.35 425.54 306.17C425.72 305.99 425.89 305.87 425.93 305.91Z" fill="#263238"/>
<path d="M427.75 305.16C427.75 305.22 427.5 305.22 427.25 305.32C427 305.42 426.82 305.55 426.78 305.51C426.74 305.47 426.87 305.23 427.18 305.12C427.49 305.01 427.76 305.11 427.75 305.16Z" fill="#263238"/>
<path d="M429 304.81C429 304.86 428.92 304.95 428.78 305.01C428.64 305.07 428.5 305.07 428.48 305.01C428.46 304.95 428.56 304.87 428.7 304.81C428.84 304.75 429 304.75 429 304.81Z" fill="#263238"/>
<path d="M451.49 305.22L451.43 296.03L468.66 295.82L468.88 309.27L467.81 309.35C463.06 309.67 443.64 310.65 440.45 309.73C436.89 308.69 451.49 305.22 451.49 305.22Z" fill="#407BFF"/>
<g opacity="0.4">
<path d="M462.63 309.21C462.868 307.754 463.633 306.437 464.78 305.51C465.904 304.592 467.331 304.128 468.78 304.21L468.85 309.02L462.63 309.21Z" fill="black"/>
</g>
<path opacity="0.4" d="M444.36 307.17C444.36 307.17 439.25 308.71 439.9 309.55C440.55 310.39 460.21 310.14 468.9 309.27V308.88L445.97 309.37C445.97 309.37 445.36 307.2 444.36 307.17Z" fill="black"/>
<path d="M469.11 308.87H468.82L468 309L464.87 309.17C462.23 309.3 458.57 309.43 454.54 309.49C450.51 309.55 446.84 309.49 444.2 309.49L441.07 309.4H440.21H439.92H441H444.13C446.77 309.4 450.43 309.4 454.46 309.4C458.49 309.4 462.15 309.24 464.79 309.15L467.92 309.04H468.78L469.11 308.87Z" fill="#263238"/>
<path d="M445.92 309.64C445.773 309.122 445.568 308.623 445.31 308.15C444.997 307.717 444.634 307.321 444.23 306.97C444.768 307.158 445.217 307.54 445.49 308.04C445.82 308.505 445.973 309.073 445.92 309.64Z" fill="#263238"/>
<path d="M451 307C450.95 307 450.7 306.74 450.44 306.34C450.18 305.94 450.02 305.61 450.07 305.57C450.12 305.53 450.36 305.84 450.62 306.23C450.803 306.454 450.933 306.718 451 307Z" fill="#263238"/>
<path d="M452.35 306.24C452.35 306.24 452.04 306.11 451.74 305.84C451.44 305.57 451.23 305.33 451.26 305.29C451.29 305.25 451.58 305.42 451.88 305.69C452.18 305.96 452.39 306.2 452.35 306.24Z" fill="#263238"/>
<path d="M453.21 304.6C452.928 304.713 452.623 304.758 452.32 304.73C452.014 304.771 451.704 304.744 451.41 304.65C451.695 304.536 452.004 304.491 452.31 304.52C452.612 304.484 452.919 304.512 453.21 304.6Z" fill="#263238"/>
<path d="M453.5 303.45C453.209 303.658 452.858 303.767 452.5 303.76C452.161 303.818 451.813 303.772 451.5 303.63C451.83 303.574 452.165 303.547 452.5 303.55C452.83 303.49 453.165 303.457 453.5 303.45Z" fill="#263238"/>
<path d="M450.36 305.5C449.996 305.561 449.624 305.561 449.26 305.5C448.856 305.456 448.458 305.372 448.07 305.25C447.835 305.191 447.61 305.101 447.4 304.98C447.333 304.945 447.274 304.896 447.226 304.838C447.178 304.78 447.142 304.712 447.12 304.64C447.101 304.559 447.106 304.474 447.135 304.396C447.163 304.318 447.214 304.25 447.28 304.2C447.55 304.055 447.849 303.975 448.155 303.964C448.461 303.954 448.766 304.013 449.045 304.139C449.324 304.265 449.571 304.453 449.766 304.689C449.961 304.924 450.099 305.202 450.17 305.5C450.19 305.596 450.19 305.694 450.17 305.79C450.05 305.453 449.875 305.138 449.65 304.86C449.401 304.567 449.07 304.355 448.7 304.25C448.484 304.181 448.256 304.155 448.029 304.174C447.803 304.192 447.582 304.256 447.38 304.36C447.21 304.49 447.28 304.7 447.48 304.81C447.676 304.921 447.884 305.008 448.1 305.07C448.475 305.196 448.859 305.29 449.25 305.35C449.94 305.47 450.36 305.47 450.36 305.5Z" fill="#263238"/>
<path d="M450.08 305.56C450.006 305.448 449.956 305.321 449.932 305.189C449.907 305.057 449.91 304.921 449.94 304.79C449.97 304.501 450.07 304.223 450.23 303.98C450.321 303.813 450.454 303.672 450.615 303.571C450.776 303.469 450.96 303.41 451.15 303.4C451.262 303.424 451.36 303.491 451.423 303.586C451.487 303.681 451.511 303.797 451.49 303.91C451.471 304.089 451.41 304.26 451.31 304.41C451.171 304.655 450.999 304.88 450.8 305.08C450.63 305.282 450.414 305.44 450.17 305.54C450.17 305.54 450.39 305.34 450.69 304.99C450.862 304.782 451.012 304.558 451.14 304.32C451.29 304.08 451.39 303.66 451.14 303.61C450.89 303.56 450.59 303.87 450.42 304.09C450.269 304.305 450.167 304.551 450.12 304.81C450.079 305.058 450.066 305.309 450.08 305.56Z" fill="#263238"/>
<path d="M468.7 304.16C468.7 304.16 468.21 304.16 467.43 304.22C466.42 304.356 465.466 304.764 464.67 305.4C463.885 306.054 463.297 306.912 462.97 307.88C462.71 308.62 462.69 309.11 462.65 309.11C462.629 308.994 462.629 308.876 462.65 308.76C462.672 308.444 462.732 308.131 462.83 307.83C463.128 306.815 463.723 305.912 464.54 305.24C465.364 304.577 466.366 304.173 467.42 304.08C467.732 304.043 468.048 304.043 468.36 304.08C468.476 304.091 468.591 304.118 468.7 304.16Z" fill="#263238"/>
<path d="M466.83 297C467.023 299.351 467.083 301.712 467.01 304.07C466.803 301.719 466.743 299.358 466.83 297Z" fill="#263238"/>
<path d="M460.44 307.56C458.793 307.893 457.1 307.93 455.44 307.67C455.44 307.61 456.57 307.67 457.96 307.67C459.35 307.67 460.43 307.5 460.44 307.56Z" fill="#263238"/>
<path d="M463.82 307.51C463.82 307.51 463.73 307.75 463.62 308.01C463.51 308.27 463.44 308.5 463.39 308.5C463.34 308.5 463.29 308.22 463.39 307.93C463.49 307.64 463.78 307.47 463.82 307.51Z" fill="#263238"/>
<path d="M465.07 305.91C465.07 305.91 465 306.13 464.83 306.31C464.66 306.49 464.47 306.61 464.43 306.57C464.39 306.53 464.5 306.35 464.67 306.17C464.84 305.99 465 305.87 465.07 305.91Z" fill="#263238"/>
<path d="M466.88 305.16C466.88 305.22 466.64 305.22 466.39 305.32C466.14 305.42 465.96 305.55 465.91 305.51C465.86 305.47 466 305.23 466.32 305.12C466.64 305.01 466.9 305.11 466.88 305.16Z" fill="#263238"/>
<path d="M468.17 304.81C468.17 304.86 468.09 304.95 467.95 305.01C467.81 305.07 467.68 305.07 467.66 305.01C467.64 304.95 467.73 304.87 467.87 304.81C468.01 304.75 468.15 304.75 468.17 304.81Z" fill="#263238"/>
<path d="M418.15 116.07C416.95 128.07 413.78 164.47 430.41 163.2C450.04 161.71 454.56 146.2 454.56 146.2L450.74 132.2C450.74 132.2 431.37 149.09 430.87 147C428.15 135.85 428.87 120.56 429.31 115.11" fill="#FFBE9D"/>
<path d="M505 159L501.64 142.16C499.17 128.37 479.84 127.42 479.84 127.42L464.67 127.17C464.67 127.17 454.56 126.85 446.48 133.49C438.4 140.13 433 145.21 433 145.21L445.7 159.89L453.21 154.89C453.21 154.89 450.51 159.77 450.96 163.89C451.38 167.89 455.58 170.96 455.58 170.96L456.58 196.76L501.58 197.25L495.55 159H505Z" fill="#407BFF"/>
<path d="M483.81 141.12C483.933 141.467 484.02 141.825 484.07 142.19L484.66 145.19C485.16 147.81 485.82 151.19 486.55 154.94C487.28 158.69 487.89 162.22 488.29 164.73C488.49 165.99 488.63 167.01 488.71 167.73C488.776 168.096 488.799 168.469 488.78 168.84C488.645 168.493 488.554 168.13 488.51 167.76L487.93 164.81C487.42 162.19 486.76 158.81 486.04 155.05C485.32 151.29 484.69 147.78 484.29 145.26C484.1 144 483.95 142.98 483.87 142.26C483.8 141.884 483.78 141.501 483.81 141.12Z" fill="#263238"/>
<path d="M505.32 159.16C502.278 159.438 499.223 159.538 496.17 159.46C493.115 159.55 490.057 159.473 487.01 159.23C490.052 158.952 493.107 158.852 496.16 158.93C499.215 158.839 502.273 158.916 505.32 159.16Z" fill="#263238"/>
<path d="M445.67 159.89C443.442 157.57 441.339 155.133 439.37 152.59C437.269 150.157 435.3 147.613 433.47 144.97C435.699 147.286 437.802 149.719 439.77 152.26C441.872 154.696 443.842 157.243 445.67 159.89Z" fill="#263238"/>
<path d="M451 159.27C451.219 158.573 451.514 157.902 451.88 157.27L452.95 155.13C453.497 154.374 453.762 153.451 453.7 152.52C453.33 150.52 452.98 148.62 452.77 147.28C452.6 146.556 452.516 145.814 452.52 145.07C452.806 145.757 453.01 146.475 453.13 147.21C453.43 148.55 453.84 150.37 454.22 152.45C454.324 152.993 454.258 153.556 454.03 154.06C453.838 154.502 453.621 154.932 453.38 155.35L452.2 157.45C451.874 158.102 451.471 158.713 451 159.27Z" fill="#263238"/>
<path opacity="0.2" d="M456.45 193.49L455.8 183.89H499.17L500.82 192.22L456.45 193.49Z" fill="black"/>
<path opacity="0.2" d="M484.22 142.64C484.42 148.513 484.613 154.383 484.8 160.25C485.028 162.139 484.763 164.055 484.03 165.81C482.52 168.68 478.95 169.62 475.78 170.27L456.45 174.27L492.26 172.52L484.22 142.64Z" fill="black"/>
<path d="M507.07 172.5C506.07 164.41 505.01 159.19 505.01 159.19L487.39 159.46C487.39 159.46 488.97 168.36 488.49 170.74C488.06 172.81 454.07 174.18 445.22 174.32C444.69 173.93 443.92 174.59 443.22 174C442.618 173.469 442.111 172.84 441.72 172.14C441.189 171.283 440.779 170.358 440.5 169.39C440.486 169.197 440.411 169.014 440.285 168.868C440.159 168.722 439.989 168.62 439.801 168.577C439.613 168.534 439.416 168.554 439.239 168.631C439.062 168.709 438.915 168.842 438.82 169.01C438.47 169.77 438.87 172.29 440.55 174.73C442.23 177.17 437.82 175.9 436.21 175.47C434.6 175.04 429.53 173.94 429.01 174.35C428.24 174.94 428.72 175.89 430.35 176.29C431.98 176.69 436.76 178.21 436.5 179.07C436.24 179.93 428.04 177.61 428.04 177.61C428.04 177.61 426.37 176.82 426.04 177.81C425.44 179.59 434.32 181.4 435.18 181.55C435.77 181.65 435.51 182.6 434.89 182.46C434.27 182.32 426.76 179.95 426.13 181.76C425.64 183.15 433.43 183.31 434.72 184.69C436.01 186.07 428.83 183.94 428.41 185.29C428.26 185.79 431.25 186.02 435.54 186.63C439.95 187.051 444.381 187.208 448.81 187.1C458.81 187.64 493.96 188.37 501.47 187.84C510.24 187.22 507.41 175.28 507.07 172.5Z" fill="#FFBE9D"/>
<path d="M506.83 149.89H507.09C507.27 149.89 507.53 149.97 507.86 150.06C508.827 150.369 509.751 150.799 510.61 151.34C511.964 152.194 513.23 153.178 514.39 154.28C515.07 154.92 515.77 155.63 516.47 156.43C517.219 157.266 517.888 158.17 518.47 159.13C518.631 159.396 518.765 159.678 518.87 159.97C518.94 160.26 519.01 160.56 519.09 160.86C519.23 161.46 519.4 162.06 519.53 162.69C519.77 163.95 520.02 165.26 520.18 166.64C520.538 169.562 520.656 172.509 520.53 175.45C520.142 182.181 519.011 188.848 517.16 195.33C516.325 198.73 515.266 202.07 513.99 205.33C512.765 208.363 511.13 211.213 509.13 213.8C508.201 215.009 507.149 216.119 505.99 217.11C504.85 217.996 503.612 218.748 502.3 219.35C499.942 220.368 497.504 221.187 495.01 221.8C490.46 222.96 486.74 223.68 484.18 224.23L481.18 224.85L480.41 225H480.14L480.4 224.91L481.15 224.71C481.82 224.54 482.81 224.29 484.09 223.99C486.63 223.38 490.35 222.61 494.87 221.41C497.332 220.772 499.74 219.94 502.07 218.92C503.34 218.32 504.541 217.582 505.65 216.72C506.777 215.739 507.802 214.647 508.71 213.46C510.666 210.901 512.267 208.089 513.47 205.1C514.731 201.869 515.776 198.559 516.6 195.19C518.448 188.743 519.588 182.114 520 175.42C520.136 172.503 520.036 169.581 519.7 166.68C519.55 165.32 519.32 164.01 519.08 162.76C518.96 162.14 518.8 161.54 518.66 160.94L518.45 160.06C518.365 159.794 518.247 159.538 518.1 159.3C517.513 158.356 516.844 157.466 516.1 156.64C515.42 155.84 514.73 155.12 514.1 154.48C512.964 153.37 511.729 152.365 510.41 151.48C509.576 150.927 508.68 150.474 507.74 150.13C507.432 150.067 507.129 149.987 506.83 149.89Z" fill="#263238"/>
<path d="M428.65 118C428.65 118 428.92 116.71 429.37 113L433.5 104.93C433.5 104.93 432.58 103.24 430.5 106.82C430.287 107.307 429.888 107.688 429.393 107.882C428.898 108.075 428.347 108.063 427.86 107.85C427.373 107.636 426.991 107.238 426.798 106.743C426.605 106.248 426.617 105.697 426.83 105.21C426.962 104.584 427.274 104.01 427.728 103.559C428.183 103.108 428.759 102.799 429.386 102.672C430.013 102.544 430.664 102.603 431.258 102.841C431.852 103.078 432.364 103.485 432.73 104.01C432.73 104.01 434.05 104.14 434.2 103.12C434.35 102.1 431.37 99.5399 428.84 100.28C427.806 100.608 426.852 101.149 426.04 101.87C426.04 101.87 426.59 93.3799 425.9 93.2999C425.21 93.2199 424.25 93.7499 423.73 103.05C423.73 103.05 423.44 95.7099 423.3 94.7699C423.16 93.8299 421.89 93.1999 421.73 95.5499C421.73 95.8199 421.25 103.03 421.25 103.03C421.25 103.03 420.43 98.2599 420.34 97.8799C420.1 96.8799 419.11 96.9799 419.02 98.3099C418.94 99.3099 418.62 103.64 418.62 103.64L418 116.94H417.92" fill="#FFBE9D"/>
<path d="M463.39 131.58C463.29 127.24 463.12 122.7 463.12 122.7C463.12 122.7 456.72 121.9 456.44 115.36C456.16 108.82 456.82 93.7699 456.82 93.7699L468.6 88.1099L478.89 99.8399L479.04 131.36C479.045 132.391 478.847 133.414 478.456 134.369C478.064 135.323 477.489 136.191 476.761 136.922C476.033 137.654 475.168 138.234 474.216 138.63C473.263 139.026 472.242 139.23 471.21 139.23C469.165 139.23 467.201 138.43 465.74 137C464.278 135.57 463.435 133.624 463.39 131.58Z" fill="#FFBE9D"/>
<path d="M458.47 104.77C458.47 104.932 458.518 105.09 458.608 105.225C458.697 105.359 458.825 105.464 458.974 105.527C459.123 105.589 459.288 105.606 459.446 105.575C459.605 105.544 459.751 105.467 459.866 105.353C459.981 105.24 460.06 105.095 460.093 104.936C460.126 104.778 460.111 104.613 460.05 104.463C459.99 104.313 459.886 104.185 459.753 104.093C459.619 104.002 459.462 103.952 459.3 103.95C459.082 103.95 458.872 104.036 458.717 104.19C458.561 104.343 458.473 104.552 458.47 104.77Z" fill="#263238"/>
<path d="M457.13 103.85C457.23 103.96 457.84 103.44 458.72 103.41C459.6 103.38 460.25 103.82 460.34 103.7C460.43 103.58 460.28 103.45 460 103.24C459.62 102.975 459.163 102.841 458.7 102.86C458.233 102.88 457.785 103.056 457.43 103.36C457.17 103.59 457.08 103.8 457.13 103.85Z" fill="#263238"/>
<path d="M468 104.77C468 104.932 468.048 105.09 468.138 105.225C468.227 105.359 468.355 105.464 468.504 105.527C468.653 105.589 468.818 105.606 468.976 105.575C469.135 105.544 469.281 105.467 469.396 105.353C469.511 105.24 469.59 105.095 469.623 104.936C469.656 104.778 469.641 104.613 469.58 104.463C469.52 104.313 469.416 104.185 469.283 104.093C469.149 104.002 468.992 103.952 468.83 103.95C468.612 103.95 468.402 104.036 468.247 104.19C468.091 104.343 468.003 104.552 468 104.77Z" fill="#263238"/>
<path d="M466.85 104C466.95 104.1 467.56 103.59 468.44 103.56C469.32 103.53 469.97 103.97 470.06 103.85C470.15 103.73 470 103.6 469.72 103.39C469.34 103.125 468.883 102.991 468.42 103.01C467.955 103.032 467.509 103.203 467.15 103.5C466.89 103.76 466.8 104 466.85 104Z" fill="#263238"/>
<path d="M463.55 111.56C463.085 111.426 462.604 111.352 462.12 111.34C461.9 111.34 461.69 111.29 461.64 111.12C461.623 110.875 461.671 110.63 461.78 110.41C461.99 109.82 462.2 109.2 462.42 108.55C463.013 106.975 463.484 105.357 463.83 103.71C463.124 105.237 462.532 106.815 462.06 108.43C461.85 109.08 461.65 109.7 461.45 110.29C461.303 110.602 461.267 110.955 461.35 111.29C461.383 111.371 461.435 111.443 461.501 111.5C461.567 111.557 461.645 111.598 461.73 111.62C461.854 111.654 461.982 111.671 462.11 111.67C462.593 111.695 463.077 111.658 463.55 111.56Z" fill="#263238"/>
<path d="M463.12 122.7C466.157 122.625 469.105 121.662 471.6 119.93C471.6 119.93 469.6 124.69 463.23 124.31L463.12 122.7Z" fill="#EB996E"/>
<path d="M463.87 113.86C463.923 113.586 464.041 113.329 464.216 113.112C464.39 112.894 464.614 112.722 464.87 112.61C465.049 112.528 465.243 112.486 465.44 112.486C465.637 112.486 465.831 112.528 466.01 112.61C466.187 112.705 466.332 112.851 466.424 113.03C466.517 113.208 466.554 113.41 466.53 113.61C466.479 113.825 466.365 114.019 466.203 114.169C466.041 114.318 465.838 114.416 465.62 114.45C465.186 114.519 464.742 114.492 464.32 114.37C464.2 114.348 464.084 114.304 463.98 114.24C463.928 114.209 463.887 114.162 463.862 114.107C463.837 114.051 463.829 113.99 463.84 113.93" fill="#EB996E"/>
<path d="M466 111.52C466.07 111.52 466.18 111.76 466.15 112.19C466.101 112.758 465.845 113.288 465.43 113.679C465.015 114.07 464.47 114.295 463.9 114.31C463.47 114.31 463.23 114.19 463.24 114.13C463.25 114.07 464.24 114.06 465.07 113.3C465.9 112.54 465.9 111.52 466 111.52Z" fill="#263238"/>
<path d="M447.22 142.47C447.34 141.531 447.624 140.62 448.06 139.78C448.345 138.874 448.792 138.026 449.38 137.28C449.265 138.223 448.98 139.138 448.54 139.98C448.263 140.886 447.815 141.731 447.22 142.47Z" fill="#263238"/>
<path d="M462.16 144.65C460.114 143.976 458.317 142.705 457 141C458.768 142.166 460.502 143.384 462.2 144.65H462.16Z" fill="#263238"/>
<path d="M460.3 131.74C458.931 132.579 457.395 133.108 455.8 133.29C456.444 132.807 457.184 132.466 457.97 132.29C458.698 131.94 459.493 131.752 460.3 131.74Z" fill="#263238"/>
<path d="M459.3 158C460.336 155.914 461.685 153.998 463.3 152.32C462.846 153.401 462.24 154.411 461.5 155.32C460.899 156.314 460.158 157.216 459.3 158Z" fill="#263238"/>
<path d="M460.15 168.75C459.102 168.177 458.142 167.457 457.3 166.61C456.35 165.888 455.505 165.036 454.79 164.08C456.794 165.368 458.599 166.942 460.15 168.75Z" fill="#263238"/>
<path d="M467.7 167.74C467.323 166.675 467.019 165.586 466.79 164.48C466.387 163.419 466.053 162.334 465.79 161.23C466.523 162.133 467.027 163.2 467.26 164.34C467.666 165.424 467.817 166.588 467.7 167.74Z" fill="#263238"/>
<path d="M481.56 167.92C479.722 168.847 477.741 169.459 475.7 169.73C477.533 168.791 479.516 168.178 481.56 167.92Z" fill="#263238"/>
<path d="M482.22 156.86C480.331 158.272 478.246 159.401 476.03 160.21C477.913 158.788 480 157.658 482.22 156.86Z" fill="#263238"/>
<path d="M474.92 152.49C473.427 150.966 472.191 149.21 471.26 147.29C472.753 148.814 473.989 150.57 474.92 152.49Z" fill="#263238"/>
<path d="M480.38 140.81C480.38 140.81 480.25 140.81 480.09 140.7L480.26 140.63C480.237 141.665 480.102 142.694 479.86 143.7C479.69 144.829 479.306 145.915 478.73 146.9C478.813 145.777 479.021 144.667 479.35 143.59C479.65 142.25 479.89 141.1 480.06 140.59L480.12 140.39L480.23 140.53C480.35 140.69 480.4 140.79 480.38 140.81Z" fill="#263238"/>
<path d="M492.26 133C489.871 132.863 487.514 132.385 485.26 131.58C486.459 131.559 487.654 131.71 488.81 132.03C489.999 132.192 491.161 132.518 492.26 133Z" fill="#263238"/>
<path d="M489.42 144.33C489.269 143.431 489.292 142.51 489.49 141.62C489.522 140.711 489.722 139.816 490.08 138.98C490.232 139.879 490.208 140.8 490.01 141.69C489.978 142.599 489.778 143.494 489.42 144.33Z" fill="#263238"/>
<path d="M495.73 147.66C495.791 146.835 496.023 146.031 496.41 145.3C496.648 144.51 497.043 143.775 497.57 143.14C497.508 143.965 497.277 144.769 496.89 145.5C496.656 146.292 496.261 147.028 495.73 147.66Z" fill="#263238"/>
<path d="M495.78 154C494.638 153.485 493.574 152.812 492.62 152C491.557 151.348 490.594 150.546 489.76 149.62C490.902 150.135 491.966 150.808 492.92 151.62C493.978 152.278 494.941 153.079 495.78 154Z" fill="#263238"/>
<path d="M465.48 194.2C464.576 193.899 463.736 193.435 463 192.83C462.163 192.366 461.417 191.752 460.8 191.02C461.703 191.333 462.546 191.8 463.29 192.4C464.121 192.865 464.863 193.474 465.48 194.2Z" fill="#263238"/>
<path d="M476.9 190.18C476.349 191.274 475.645 192.284 474.81 193.18C474.112 194.179 473.273 195.071 472.32 195.83C472.871 194.736 473.575 193.726 474.41 192.83C475.108 191.831 475.947 190.939 476.9 190.18Z" fill="#263238"/>
<path d="M488.76 195.68C488.928 194.802 489.268 193.966 489.76 193.22C490.109 192.394 490.615 191.643 491.25 191.01C490.725 192.717 489.869 194.304 488.73 195.68H488.76Z" fill="#263238"/>
<path d="M485.59 196.33C484.928 195.704 484.392 194.957 484.01 194.13C483.487 193.386 483.104 192.552 482.88 191.67C483.546 192.292 484.083 193.04 484.46 193.87C484.991 194.61 485.375 195.445 485.59 196.33Z" fill="#263238"/>
<path d="M456.36 92.2299C455.768 92.568 455.267 93.0461 454.902 93.6223C454.536 94.1985 454.318 94.8553 454.265 95.5355C454.212 96.2157 454.326 96.8985 454.597 97.5243C454.869 98.1501 455.29 98.7 455.823 99.1259C456.356 99.5517 456.985 99.8407 457.655 99.9674C458.325 100.094 459.017 100.055 459.668 99.8532C460.32 99.6514 460.912 99.2931 461.394 98.8097C461.875 98.3263 462.231 97.7324 462.43 97.0799C462.094 97.7693 461.992 98.5498 462.14 99.3026C462.288 100.055 462.678 100.739 463.25 101.25C463.841 101.737 464.555 102.053 465.313 102.162C466.072 102.272 466.845 102.171 467.55 101.87C468.25 101.556 468.871 101.089 469.367 100.505C469.864 99.9198 470.224 99.2315 470.42 98.4899C470.431 99.2164 470.611 99.9305 470.944 100.576C471.278 101.222 471.757 101.781 472.343 102.21C472.929 102.639 473.607 102.927 474.323 103.05C475.039 103.173 475.774 103.129 476.47 102.92C475.757 103.369 475.184 104.008 474.815 104.766C474.446 105.524 474.296 106.369 474.383 107.208C474.469 108.046 474.788 108.843 475.303 109.51C475.819 110.176 476.51 110.686 477.3 110.98C476.447 111.515 475.819 112.343 475.534 113.308C475.249 114.273 475.326 115.309 475.751 116.222C476.176 117.134 476.919 117.86 477.842 118.263C478.764 118.666 479.802 118.718 480.76 118.41C482.76 117.79 483.95 115.81 484.76 113.88C486.901 108.626 486.88 102.738 484.7 97.4999C483.576 94.9238 481.878 92.6387 479.736 90.819C477.593 88.9992 475.064 87.693 472.34 86.9999C469.613 86.3512 466.763 86.4252 464.073 87.2143C461.383 88.0035 458.945 89.4806 457 91.4999" fill="#263238"/>
<path d="M489.56 92.8299C489.56 92.8299 489.56 92.8999 489.61 93.0499C489.636 93.2624 489.636 93.4773 489.61 93.6899C489.504 94.4947 489.155 95.248 488.61 95.8499C488.184 96.3274 487.641 96.6855 487.034 96.889C486.427 97.0924 485.778 97.134 485.15 97.0099C484.339 96.8353 483.6 96.4203 483.029 95.8191C482.459 95.2179 482.082 94.4583 481.95 93.6399H482.43C482.321 94.3088 482.069 94.9464 481.691 95.509C481.313 96.0716 480.818 96.546 480.24 96.8998C479.62 97.3006 478.909 97.5374 478.172 97.5881C477.436 97.6388 476.699 97.5018 476.03 97.1899C475.395 96.9024 474.831 96.4796 474.376 95.951C473.922 95.4224 473.589 94.8008 473.4 94.1299C473.292 93.8019 473.252 93.4552 473.283 93.1112C473.314 92.7673 473.415 92.4333 473.58 92.1299C473.775 91.8236 474.073 91.5967 474.42 91.4899C474.598 91.4346 474.787 91.422 474.971 91.4533C475.156 91.4846 475.33 91.5588 475.48 91.6699C475.735 91.891 475.911 92.19 475.979 92.5206C476.048 92.8513 476.006 93.1954 475.86 93.4999C475.605 94.0231 475.21 94.466 474.72 94.7799C473.876 95.3512 472.867 95.6256 471.85 95.5599C471.019 95.5102 470.222 95.2143 469.56 94.7099C469.065 94.3424 468.655 93.8715 468.36 93.3299C468.163 92.9947 468.021 92.63 467.94 92.2499C467.918 92.1208 467.918 91.9889 467.94 91.8599C468.11 92.3337 468.321 92.7921 468.57 93.2299C468.922 93.8098 469.41 94.295 469.992 94.6435C470.574 94.9921 471.233 95.1933 471.91 95.2299C472.838 95.2647 473.751 94.9942 474.51 94.4599C474.937 94.1908 475.283 93.8105 475.51 93.3599C475.613 93.1499 475.644 92.9121 475.599 92.6828C475.554 92.4534 475.435 92.2452 475.26 92.0899C475.159 92.0337 475.048 91.9983 474.933 91.9855C474.819 91.9728 474.702 91.983 474.592 92.0155C474.481 92.0481 474.378 92.1024 474.288 92.1753C474.199 92.2481 474.124 92.3381 474.07 92.4399C473.946 92.6877 473.873 92.958 473.856 93.2347C473.839 93.5113 473.877 93.7886 473.97 94.0499C474.139 94.6462 474.437 95.198 474.843 95.6663C475.25 96.1346 475.754 96.5079 476.32 96.7599C476.91 97.0372 477.56 97.1606 478.211 97.1187C478.861 97.0767 479.491 96.8707 480.04 96.5199C480.559 96.2051 481.006 95.7839 481.351 95.2841C481.695 94.7842 481.93 94.217 482.04 93.6199L482.29 91.9298L482.51 93.6299C482.632 94.3507 482.963 95.0197 483.463 95.5532C483.963 96.0868 484.609 96.4612 485.32 96.6299C485.888 96.7476 486.477 96.7175 487.031 96.5424C487.584 96.3673 488.083 96.0531 488.48 95.6299C489.029 95.0829 489.408 94.3881 489.57 93.6299C489.56 93.1299 489.53 92.8299 489.56 92.8299Z" fill="#455A64"/>
<path d="M494.83 99.6299C494.882 99.9111 494.857 100.201 494.76 100.47C494.556 101.234 494.144 101.926 493.57 102.47C493.148 102.884 492.642 103.203 492.087 103.404C491.531 103.606 490.939 103.687 490.35 103.64C489.626 103.578 488.927 103.344 488.311 102.958C487.696 102.572 487.181 102.045 486.81 101.42C486.721 101.273 486.645 101.119 486.58 100.96H487.07C486.804 101.664 486.283 102.242 485.61 102.58C485.016 102.903 484.346 103.062 483.67 103.04C482.528 102.988 481.452 102.493 480.67 101.66C480.153 101.14 479.737 100.53 479.44 99.8599C479.308 99.629 479.223 99.374 479.19 99.1099C479.678 99.9362 480.259 100.704 480.92 101.4C481.652 102.117 482.626 102.535 483.65 102.57C484.258 102.596 484.86 102.44 485.379 102.121C485.898 101.802 486.309 101.335 486.56 100.78L486.76 100.22L487.04 100.77C487.11 100.9 487.16 101.04 487.24 101.17C487.573 101.721 488.029 102.188 488.572 102.535C489.115 102.881 489.73 103.099 490.37 103.17C490.901 103.213 491.435 103.146 491.939 102.974C492.443 102.802 492.906 102.528 493.3 102.17C493.855 101.691 494.284 101.083 494.55 100.4C494.63 100.139 494.724 99.8816 494.83 99.6299Z" fill="#455A64"/>
<path d="M488.24 112C487.952 112.201 487.626 112.339 487.281 112.405C486.936 112.47 486.581 112.462 486.24 112.38C485.48 112.282 484.775 111.929 484.24 111.38C483.583 110.684 483.224 109.758 483.24 108.8L483.63 109.03L483.48 109.1C482.606 109.551 481.588 109.638 480.65 109.34C479.894 109.099 479.242 108.609 478.8 107.95C478.573 107.674 478.409 107.353 478.317 107.008C478.226 106.663 478.21 106.302 478.27 105.95C478.441 106.587 478.722 107.19 479.1 107.73C479.528 108.282 480.12 108.684 480.79 108.88C481.608 109.108 482.482 109.022 483.24 108.64L483.37 108.58L483.76 108.36V108.8C483.758 109.557 484.015 110.292 484.487 110.883C484.96 111.474 485.621 111.886 486.36 112.05C486.985 112.132 487.62 112.116 488.24 112Z" fill="#455A64"/>
<path d="M451.44 96.1599C452.175 96.8248 453.045 97.3229 453.99 97.6199C455.014 97.8995 456.103 97.8255 457.08 97.4099C458.264 96.8843 459.194 95.9147 459.67 94.7099C459.773 94.4302 459.853 94.1426 459.91 93.8499L460.07 93.0699L460.4 93.7899C460.534 94.0198 460.739 94.2003 460.984 94.3048C461.229 94.4093 461.501 94.4321 461.76 94.3699C462.291 94.239 462.774 93.9578 463.15 93.5599C463.833 92.8768 464.313 92.0187 464.54 91.0799C464.719 90.2042 464.743 89.3038 464.61 88.4199C464.746 88.6318 464.835 88.8706 464.87 89.1199C465.005 89.7798 465.005 90.4601 464.87 91.1199C464.678 92.1465 464.192 93.0951 463.47 93.8499C463.04 94.3401 462.472 94.6888 461.84 94.8499C461.47 94.9358 461.082 94.8983 460.735 94.743C460.389 94.5877 460.102 94.3232 459.92 93.9899L460.41 93.9199C460.355 94.2618 460.265 94.597 460.14 94.9199C459.885 95.5875 459.499 96.197 459.005 96.7124C458.51 97.2278 457.917 97.6384 457.26 97.9199C456.18 98.3481 454.985 98.3869 453.88 98.0299C453.149 97.8051 452.481 97.4111 451.93 96.8799C451.712 96.6821 451.544 96.4353 451.44 96.1599Z" fill="#455A64"/>
<path d="M454.34 104.36C454.4 104.36 454.4 104.84 453.92 105.36C453.591 105.678 453.185 105.906 452.741 106.02C452.297 106.134 451.832 106.13 451.39 106.01C450.543 105.785 449.773 105.336 449.16 104.71C448.69 104.26 448.45 103.94 448.49 103.89C448.53 103.84 448.88 104.06 449.39 104.43C450.022 104.918 450.742 105.281 451.51 105.5C451.878 105.599 452.264 105.612 452.639 105.539C453.013 105.466 453.366 105.309 453.67 105.08C454.13 104.73 454.26 104.34 454.34 104.36Z" fill="#455A64"/>
<path d="M462.42 105.68C462.42 105.68 462.42 105.33 462.2 104.75C461.947 103.946 461.442 103.245 460.76 102.75C460.335 102.43 459.846 102.206 459.326 102.092C458.807 101.978 458.269 101.977 457.749 102.089C457.229 102.201 456.739 102.424 456.312 102.742C455.886 103.06 455.533 103.466 455.277 103.932C455.022 104.399 454.869 104.915 454.83 105.445C454.792 105.976 454.867 106.508 455.053 107.007C455.238 107.506 455.528 107.959 455.904 108.335C456.279 108.712 456.732 109.004 457.23 109.19C457.814 109.402 458.441 109.469 459.056 109.383C459.671 109.298 460.256 109.063 460.76 108.7C461.438 108.202 461.942 107.502 462.2 106.7C462.37 106.11 462.37 105.76 462.42 105.76C462.5 106.088 462.5 106.432 462.42 106.76C462.224 107.65 461.721 108.443 461 109C460.456 109.429 459.812 109.714 459.128 109.827C458.445 109.941 457.744 109.88 457.09 109.65C456.279 109.365 455.577 108.835 455.08 108.134C454.583 107.433 454.317 106.594 454.317 105.735C454.317 104.876 454.583 104.037 455.08 103.336C455.577 102.635 456.279 102.105 457.09 101.82C457.743 101.588 458.444 101.524 459.127 101.636C459.811 101.748 460.455 102.032 461 102.46C461.727 103.031 462.227 103.843 462.41 104.75C462.484 105.055 462.487 105.373 462.42 105.68Z" fill="#455A64"/>
<path d="M473.53 105.68C473.53 105.68 473.53 105.33 473.31 104.75C473.061 103.944 472.556 103.241 471.87 102.75C471.445 102.428 470.955 102.202 470.434 102.086C469.914 101.971 469.374 101.969 468.853 102.081C468.331 102.192 467.84 102.415 467.413 102.734C466.985 103.053 466.631 103.461 466.376 103.929C466.12 104.397 465.968 104.914 465.93 105.446C465.893 105.978 465.97 106.512 466.158 107.012C466.345 107.511 466.638 107.964 467.016 108.34C467.395 108.716 467.849 109.006 468.35 109.19C468.932 109.402 469.557 109.468 470.171 109.383C470.785 109.298 471.368 109.063 471.87 108.7C472.552 108.204 473.056 107.503 473.31 106.7C473.48 106.11 473.49 105.76 473.53 105.76C473.621 106.087 473.621 106.433 473.53 106.76C473.34 107.663 472.837 108.471 472.11 109.04C471.568 109.469 470.926 109.754 470.244 109.867C469.562 109.981 468.862 109.92 468.21 109.69C467.399 109.405 466.697 108.875 466.2 108.174C465.704 107.472 465.437 106.634 465.437 105.775C465.437 104.915 465.704 104.077 466.2 103.376C466.697 102.675 467.399 102.145 468.21 101.86C468.861 101.628 469.56 101.566 470.242 101.678C470.924 101.789 471.567 102.072 472.11 102.5C472.84 103.071 473.343 103.882 473.53 104.79C473.603 105.082 473.603 105.388 473.53 105.68Z" fill="#455A64"/>
<path d="M465.88 105.49C465.88 105.64 465.09 105.75 464.11 105.75C463.13 105.75 462.35 105.64 462.35 105.49C462.35 105.34 463.14 105.23 464.11 105.23C465.08 105.23 465.88 105.35 465.88 105.49Z" fill="#455A64"/>
<path d="M426.7 196.29C441.861 194.777 457.126 194.587 472.32 195.72L453 223.4L435.6 223.47L431.9 303H408.9L411.1 213.68C411.201 209.404 412.827 205.305 415.684 202.122C418.54 198.939 422.44 196.881 426.68 196.32L426.7 196.29Z" fill="#263238"/>
<path d="M469.06 225.59C469.06 225.59 503.53 227.93 502.67 196.97C502.67 196.97 447.45 187.64 443.86 203.69C442.7 208.85 445.86 303.61 445.86 303.61H470" fill="#263238"/>
<path d="M469.4 218.73C469.604 221.372 469.453 224.029 468.95 226.63C468.76 223.988 468.911 221.333 469.4 218.73Z" fill="#455A64"/>
<path d="M468.3 194.12C468.148 194.206 467.987 194.276 467.82 194.33C467.51 194.45 467.04 194.61 466.42 194.79C464.666 195.26 462.887 195.627 461.09 195.89C458.441 196.232 455.826 196.794 453.27 197.57C451.789 198.05 450.377 198.723 449.07 199.57C447.686 200.51 446.515 201.73 445.63 203.15C443.912 205.918 443.052 209.133 443.16 212.39C443.32 215.39 443.46 218.1 443.58 220.39C443.7 222.68 443.77 224.46 443.83 225.82C443.83 226.41 443.83 226.89 443.83 227.29C443.857 227.462 443.857 227.638 443.83 227.81C443.789 227.639 443.762 227.465 443.75 227.29C443.75 226.9 443.67 226.41 443.61 225.83C443.51 224.47 443.36 222.64 443.19 220.42C443.02 218.2 442.82 215.42 442.66 212.42C442.521 209.062 443.4 205.74 445.18 202.89C446.095 201.41 447.316 200.141 448.76 199.17C450.108 198.29 451.568 197.594 453.1 197.1C455.689 196.34 458.339 195.808 461.02 195.51C463.28 195.2 465.11 194.88 466.35 194.58C467.59 194.28 468.28 194.08 468.3 194.12Z" fill="#455A64"/>
<path d="M395.08 139.21L408.17 180.07L480.54 181.39L480.06 179.21L453.63 178.4L441.46 139.19L395.08 139.21Z" fill="#455A64"/>
<path d="M424.47 159.63C424.9 161.36 424.16 163.06 422.82 163.42C421.48 163.78 420.03 162.67 419.6 160.94C419.17 159.21 419.91 157.52 421.26 157.16C422.61 156.8 424 157.91 424.47 159.63Z" fill="white"/>
<path d="M556.18 168.37C555.013 167.501 553.57 167.085 552.12 167.2C552.12 166.42 552.12 165.93 552.12 165.93H530C530 165.93 529.3 180.54 540.49 181.06C545.49 181.29 548.36 179.06 550 176.22C550.822 176.42 551.664 176.524 552.51 176.53C553.75 176.576 554.972 176.226 556 175.53C556.56 175.088 557.003 174.517 557.292 173.865C557.582 173.214 557.708 172.502 557.66 171.79C557.689 171.145 557.57 170.502 557.314 169.91C557.057 169.317 556.67 168.791 556.18 168.37ZM554.66 173.79C553.72 174.5 552.03 174.39 550.92 174.19C551.488 172.644 551.851 171.03 552 169.39C552.97 169.277 553.948 169.503 554.77 170.03C555.011 170.254 555.198 170.529 555.316 170.836C555.434 171.143 555.48 171.473 555.45 171.8C555.49 172.171 555.44 172.546 555.302 172.893C555.164 173.24 554.944 173.548 554.66 173.79Z" fill="#407BFF"/>
<path d="M548.85 161.22C548.688 161.077 548.547 160.912 548.43 160.73C548.07 160.21 547.821 159.621 547.7 159C547.476 157.997 547.567 156.95 547.96 156C548.577 154.841 549.424 153.82 550.45 153C551.602 151.938 552.387 150.537 552.69 149C552.953 147.655 552.816 146.263 552.295 144.995C551.774 143.728 550.893 142.641 549.76 141.87C548.91 141.331 547.988 140.917 547.02 140.64C545.97 140.348 544.988 139.852 544.13 139.18C543.711 138.8 543.371 138.342 543.13 137.83C542.871 137.289 542.798 136.677 542.92 136.09C542.92 136 542.97 135.92 542.99 135.85L543.25 136.11C542.788 136.317 542.393 136.648 542.109 137.067C541.825 137.485 541.662 137.975 541.64 138.48C541.58 139.498 541.805 140.513 542.29 141.41C542.73 142.34 543.29 143.2 543.67 144.14C544.111 145.054 544.304 146.068 544.23 147.08C544.104 148.053 543.636 148.95 542.91 149.61C542.254 150.219 541.504 150.719 540.69 151.09C539.223 151.626 537.787 152.243 536.39 152.94C535.28 153.573 534.4 154.543 533.88 155.71C533.481 156.589 533.276 157.544 533.28 158.51C533.305 159.336 533.461 160.153 533.74 160.93C533.71 160.886 533.683 160.839 533.66 160.79C533.66 160.69 533.54 160.55 533.47 160.34C533.259 159.752 533.141 159.135 533.12 158.51C533.087 157.518 533.275 156.531 533.67 155.62C534.189 154.395 535.086 153.368 536.23 152.69C537.631 151.973 539.07 151.332 540.54 150.77C541.321 150.414 542.037 149.931 542.66 149.34C543.314 148.737 543.736 147.923 543.85 147.04C543.911 146.095 543.725 145.151 543.31 144.3C542.92 143.4 542.38 142.54 541.93 141.59C541.401 140.625 541.154 139.529 541.22 138.43C541.285 137.863 541.472 137.317 541.77 136.83C542.078 136.315 542.555 135.923 543.12 135.72L543.49 135.58L543.38 135.98L543.33 136.18C543.26 136.686 543.326 137.2 543.519 137.673C543.712 138.145 544.026 138.558 544.43 138.87C545.25 139.507 546.188 139.976 547.19 140.25C548.19 140.542 549.144 140.976 550.02 141.54C550.852 142.114 551.556 142.852 552.09 143.71C553.112 145.297 553.471 147.221 553.09 149.07C552.755 150.662 551.922 152.105 550.71 153.19C549.698 153.99 548.856 154.982 548.23 156.11C547.85 157.002 547.742 157.987 547.92 158.94C548.052 159.761 548.37 160.541 548.85 161.22Z" fill="#263238"/>
<path d="M575.82 180.26H348.86V187.21H361L354.54 310.04L358.01 310.03L364.47 187.21L563.4 186.12L567.98 309.67L571.81 309.88L566.91 187.21H575.82V180.26Z" fill="#263238"/>
<path d="M225.4 14.52H128.79V310.47H225.4V14.52Z" fill="#EBEBEB"/>
<path d="M301.62 15.48H225.26V310.48H301.62V15.48Z" fill="#E0E0E0"/>
<path d="M216.09 61.8901H134.14V84.9601H216.09V61.8901Z" fill="#263238"/>
<path d="M141.01 64.79H136.42V82.45H141.01V64.79Z" fill="#407BFF"/>
<path d="M146.42 68.4998C146.422 68.789 146.338 69.0722 146.179 69.3136C146.02 69.5551 145.792 69.7437 145.526 69.8558C145.259 69.9678 144.965 69.9982 144.681 69.943C144.397 69.8878 144.136 69.7495 143.931 69.5457C143.726 69.3419 143.586 69.0818 143.529 68.7983C143.472 68.5148 143.5 68.2208 143.61 67.9534C143.72 67.6861 143.908 67.4574 144.148 67.2966C144.388 67.1357 144.671 67.0498 144.96 67.0498C145.345 67.0498 145.715 67.2022 145.989 67.4739C146.262 67.7455 146.417 68.1143 146.42 68.4998Z" fill="white"/>
<path d="M146.42 74.7398C146.42 75.0286 146.334 75.3108 146.174 75.5509C146.014 75.791 145.785 75.9781 145.519 76.0887C145.252 76.1992 144.958 76.2281 144.675 76.1717C144.392 76.1154 144.132 75.9763 143.928 75.7722C143.723 75.568 143.584 75.3078 143.528 75.0246C143.472 74.7414 143.501 74.4479 143.611 74.1811C143.722 73.9143 143.909 73.6863 144.149 73.5258C144.389 73.3654 144.671 73.2798 144.96 73.2798C145.347 73.2798 145.719 73.4336 145.992 73.7074C146.266 73.9812 146.42 74.3526 146.42 74.7398Z" fill="white"/>
<path d="M156.76 67.0498H152.25V80.6098H156.76V67.0498Z" fill="#455A64"/>
<path d="M163.27 67.0498H158.76V80.6098H163.27V67.0498Z" fill="#455A64"/>
<path d="M169.79 67.0498H165.28V80.6098H169.79V67.0498Z" fill="#455A64"/>
<path d="M176.3 67.0498H171.79V80.6098H176.3V67.0498Z" fill="#455A64"/>
<path d="M182.81 67.0498H178.3V80.6098H182.81V67.0498Z" fill="#455A64"/>
<path d="M189.33 67.0498H184.82V80.6098H189.33V67.0498Z" fill="#455A64"/>
<path d="M195.84 67.0498H191.33V80.6098H195.84V67.0498Z" fill="#455A64"/>
<path d="M202.36 67.0498H197.85V80.6098H202.36V67.0498Z" fill="#455A64"/>
<path d="M208.87 67.0498H204.36V80.6098H208.87V67.0498Z" fill="#455A64"/>
<path d="M215.38 67.0498H210.87V80.6098H215.38V67.0498Z" fill="#455A64"/>
<path d="M216.09 95.0298H134.14V118.1H216.09V95.0298Z" fill="#263238"/>
<path d="M141.01 97.9399H136.42V115.6H141.01V97.9399Z" fill="#407BFF"/>
<path d="M146.42 101.65C146.42 101.939 146.334 102.221 146.174 102.461C146.014 102.701 145.785 102.888 145.519 102.999C145.252 103.109 144.958 103.138 144.675 103.082C144.392 103.026 144.132 102.886 143.928 102.682C143.723 102.478 143.584 102.218 143.528 101.935C143.472 101.652 143.501 101.358 143.611 101.091C143.722 100.824 143.909 100.596 144.149 100.436C144.389 100.276 144.671 100.19 144.96 100.19C145.347 100.19 145.719 100.344 145.992 100.618C146.266 100.891 146.42 101.263 146.42 101.65Z" fill="white"/>
<path d="M146.42 107.89C146.42 108.179 146.334 108.461 146.174 108.701C146.014 108.941 145.785 109.129 145.519 109.239C145.252 109.35 144.958 109.378 144.675 109.322C144.392 109.266 144.132 109.127 143.928 108.923C143.723 108.718 143.584 108.458 143.528 108.175C143.472 107.892 143.501 107.598 143.611 107.331C143.722 107.065 143.909 106.837 144.149 106.676C144.389 106.516 144.671 106.43 144.96 106.43C145.347 106.43 145.719 106.584 145.992 106.858C146.266 107.132 146.42 107.503 146.42 107.89Z" fill="white"/>
<path d="M156.76 100.19H152.25V113.75H156.76V100.19Z" fill="#455A64"/>
<path d="M163.27 100.19H158.76V113.75H163.27V100.19Z" fill="#455A64"/>
<path d="M169.79 100.19H165.28V113.75H169.79V100.19Z" fill="#455A64"/>
<path d="M176.3 100.19H171.79V113.75H176.3V100.19Z" fill="#455A64"/>
<path d="M182.81 100.19H178.3V113.75H182.81V100.19Z" fill="#455A64"/>
<path d="M189.33 100.19H184.82V113.75H189.33V100.19Z" fill="#455A64"/>
<path d="M195.84 100.19H191.33V113.75H195.84V100.19Z" fill="#455A64"/>
<path d="M202.36 100.19H197.85V113.75H202.36V100.19Z" fill="#455A64"/>
<path d="M208.87 100.19H204.36V113.75H208.87V100.19Z" fill="#455A64"/>
<path d="M215.38 100.19H210.87V113.75H215.38V100.19Z" fill="#455A64"/>
<path d="M216.09 128.45H134.14V151.52H216.09V128.45Z" fill="#263238"/>
<path d="M141.01 131.35H136.42V149.01H141.01V131.35Z" fill="#407BFF"/>
<path d="M146.42 135.06C146.42 135.351 146.333 135.634 146.171 135.875C146.009 136.116 145.778 136.303 145.509 136.412C145.24 136.522 144.944 136.548 144.66 136.488C144.376 136.429 144.116 136.286 143.913 136.078C143.711 135.869 143.575 135.605 143.523 135.32C143.472 135.034 143.506 134.739 143.623 134.473C143.74 134.207 143.933 133.982 144.178 133.827C144.424 133.671 144.71 133.592 145 133.6C145.38 133.611 145.741 133.769 146.007 134.042C146.272 134.314 146.42 134.68 146.42 135.06Z" fill="white"/>
<path d="M146.42 141.3C146.42 141.589 146.334 141.871 146.174 142.111C146.014 142.351 145.785 142.538 145.519 142.649C145.252 142.759 144.958 142.788 144.675 142.732C144.392 142.675 144.132 142.536 143.928 142.332C143.723 142.128 143.584 141.868 143.528 141.585C143.472 141.301 143.501 141.008 143.611 140.741C143.722 140.474 143.909 140.246 144.149 140.086C144.389 139.925 144.671 139.84 144.96 139.84C145.347 139.84 145.719 139.994 145.992 140.267C146.266 140.541 146.42 140.913 146.42 141.3Z" fill="white"/>
<path d="M156.76 133.6H152.25V147.16H156.76V133.6Z" fill="#455A64"/>
<path d="M163.27 133.6H158.76V147.16H163.27V133.6Z" fill="#455A64"/>
<path d="M169.79 133.6H165.28V147.16H169.79V133.6Z" fill="#455A64"/>
<path d="M176.3 133.6H171.79V147.16H176.3V133.6Z" fill="#455A64"/>
<path d="M182.81 133.6H178.3V147.16H182.81V133.6Z" fill="#455A64"/>
<path d="M189.33 133.6H184.82V147.16H189.33V133.6Z" fill="#455A64"/>
<path d="M195.84 133.6H191.33V147.16H195.84V133.6Z" fill="#455A64"/>
<path d="M202.36 133.6H197.85V147.16H202.36V133.6Z" fill="#455A64"/>
<path d="M208.87 133.6H204.36V147.16H208.87V133.6Z" fill="#455A64"/>
<path d="M215.38 133.6H210.87V147.16H215.38V133.6Z" fill="#455A64"/>
<path d="M216.09 162.32H134.14V185.39H216.09V162.32Z" fill="#263238"/>
<path d="M141.01 165.22H136.42V182.88H141.01V165.22Z" fill="#407BFF"/>
<path d="M146.42 168.93C146.42 169.219 146.334 169.501 146.174 169.741C146.014 169.981 145.785 170.169 145.519 170.279C145.252 170.39 144.958 170.418 144.675 170.362C144.392 170.306 144.132 170.167 143.928 169.963C143.723 169.758 143.584 169.498 143.528 169.215C143.472 168.932 143.501 168.638 143.611 168.371C143.722 168.105 143.909 167.877 144.149 167.716C144.389 167.556 144.671 167.47 144.96 167.47C145.347 167.47 145.719 167.624 145.992 167.898C146.266 168.172 146.42 168.543 146.42 168.93Z" fill="white"/>
<path d="M146.42 175.17C146.42 175.459 146.334 175.741 146.174 175.981C146.014 176.221 145.785 176.408 145.519 176.519C145.252 176.629 144.958 176.658 144.675 176.602C144.392 176.546 144.132 176.407 143.928 176.202C143.723 175.998 143.584 175.738 143.528 175.455C143.472 175.172 143.501 174.878 143.611 174.611C143.722 174.344 143.909 174.116 144.149 173.956C144.389 173.796 144.671 173.71 144.96 173.71C145.347 173.71 145.719 173.864 145.992 174.138C146.266 174.411 146.42 174.783 146.42 175.17Z" fill="white"/>
<path d="M156.76 167.47H152.25V181.03H156.76V167.47Z" fill="#455A64"/>
<path d="M163.27 167.47H158.76V181.03H163.27V167.47Z" fill="#455A64"/>
<path d="M169.79 167.47H165.28V181.03H169.79V167.47Z" fill="#455A64"/>
<path d="M176.3 167.47H171.79V181.03H176.3V167.47Z" fill="#455A64"/>
<path d="M182.81 167.47H178.3V181.03H182.81V167.47Z" fill="#455A64"/>
<path d="M189.33 167.47H184.82V181.03H189.33V167.47Z" fill="#455A64"/>
<path d="M195.84 167.47H191.33V181.03H195.84V167.47Z" fill="#455A64"/>
<path d="M202.36 167.47H197.85V181.03H202.36V167.47Z" fill="#455A64"/>
<path d="M208.87 167.47H204.36V181.03H208.87V167.47Z" fill="#455A64"/>
<path d="M215.38 167.47H210.87V181.03H215.38V167.47Z" fill="#455A64"/>
<path d="M216.09 200.99H134.14V224.06H216.09V200.99Z" fill="#263238"/>
<path d="M141.01 203.89H136.42V221.55H141.01V203.89Z" fill="#407BFF"/>
<path d="M146.42 207.6C146.42 207.889 146.334 208.171 146.174 208.411C146.014 208.651 145.785 208.838 145.519 208.949C145.252 209.059 144.958 209.088 144.675 209.032C144.392 208.976 144.132 208.837 143.928 208.633C143.723 208.428 143.584 208.168 143.528 207.885C143.472 207.602 143.501 207.308 143.611 207.041C143.722 206.775 143.909 206.547 144.149 206.386C144.389 206.226 144.671 206.14 144.96 206.14C145.347 206.14 145.719 206.294 145.992 206.568C146.266 206.842 146.42 207.213 146.42 207.6Z" fill="white"/>
<path d="M146.42 213.84C146.42 214.129 146.334 214.411 146.174 214.651C146.014 214.891 145.785 215.078 145.519 215.189C145.252 215.299 144.958 215.328 144.675 215.272C144.392 215.215 144.132 215.076 143.928 214.872C143.723 214.668 143.584 214.408 143.528 214.125C143.472 213.841 143.501 213.548 143.611 213.281C143.722 213.014 143.909 212.786 144.149 212.626C144.389 212.466 144.671 212.38 144.96 212.38C145.347 212.38 145.719 212.534 145.992 212.807C146.266 213.081 146.42 213.453 146.42 213.84Z" fill="white"/>
<path d="M156.76 206.14H152.25V219.7H156.76V206.14Z" fill="#455A64"/>
<path d="M163.27 206.14H158.76V219.7H163.27V206.14Z" fill="#455A64"/>
<path d="M169.79 206.14H165.28V219.7H169.79V206.14Z" fill="#455A64"/>
<path d="M176.3 206.14H171.79V219.7H176.3V206.14Z" fill="#455A64"/>
<path d="M182.81 206.14H178.3V219.7H182.81V206.14Z" fill="#455A64"/>
<path d="M189.33 206.14H184.82V219.7H189.33V206.14Z" fill="#455A64"/>
<path d="M195.84 206.14H191.33V219.7H195.84V206.14Z" fill="#455A64"/>
<path d="M202.36 206.14H197.85V219.7H202.36V206.14Z" fill="#455A64"/>
<path d="M208.87 206.14H204.36V219.7H208.87V206.14Z" fill="#455A64"/>
<path d="M215.38 206.14H210.87V219.7H215.38V206.14Z" fill="#455A64"/>
<path d="M216.09 273.53H134.14V296.6H216.09V273.53Z" fill="#263238"/>
<path d="M141.01 276.43H136.42V294.09H141.01V276.43Z" fill="#407BFF"/>
<path d="M146.42 280.14C146.422 280.429 146.338 280.712 146.179 280.954C146.02 281.195 145.792 281.384 145.526 281.496C145.259 281.608 144.965 281.638 144.681 281.583C144.397 281.528 144.136 281.39 143.931 281.186C143.726 280.982 143.586 280.722 143.529 280.438C143.472 280.155 143.5 279.861 143.61 279.594C143.72 279.326 143.908 279.098 144.148 278.937C144.388 278.776 144.671 278.69 144.96 278.69C145.345 278.69 145.715 278.842 145.989 279.114C146.262 279.386 146.417 279.754 146.42 280.14Z" fill="white"/>
<path d="M146.42 286.38C146.42 286.669 146.334 286.951 146.174 287.191C146.014 287.431 145.785 287.618 145.519 287.729C145.252 287.839 144.958 287.868 144.675 287.812C144.392 287.756 144.132 287.616 143.928 287.412C143.723 287.208 143.584 286.948 143.528 286.665C143.472 286.382 143.501 286.088 143.611 285.821C143.722 285.554 143.909 285.326 144.149 285.166C144.389 285.006 144.671 284.92 144.96 284.92C145.347 284.92 145.719 285.074 145.992 285.348C146.266 285.621 146.42 285.993 146.42 286.38Z" fill="white"/>
<path d="M156.76 278.69H152.25V292.25H156.76V278.69Z" fill="#455A64"/>
<path d="M163.27 278.69H158.76V292.25H163.27V278.69Z" fill="#455A64"/>
<path d="M169.79 278.69H165.28V292.25H169.79V278.69Z" fill="#455A64"/>
<path d="M176.3 278.69H171.79V292.25H176.3V278.69Z" fill="#455A64"/>
<path d="M182.81 278.69H178.3V292.25H182.81V278.69Z" fill="#455A64"/>
<path d="M189.33 278.69H184.82V292.25H189.33V278.69Z" fill="#455A64"/>
<path d="M195.84 278.69H191.33V292.25H195.84V278.69Z" fill="#455A64"/>
<path d="M202.36 278.69H197.85V292.25H202.36V278.69Z" fill="#455A64"/>
<path d="M208.87 278.69H204.36V292.25H208.87V278.69Z" fill="#455A64"/>
<path d="M215.38 278.69H210.87V292.25H215.38V278.69Z" fill="#455A64"/>
<path d="M216.09 237.29H134.14V260.36H216.09V237.29Z" fill="#263238"/>
<path d="M141.01 240.19H136.42V257.85H141.01V240.19Z" fill="#407BFF"/>
<path d="M146.42 243.9C146.422 244.189 146.338 244.473 146.179 244.714C146.02 244.955 145.792 245.144 145.526 245.256C145.259 245.368 144.965 245.399 144.681 245.343C144.397 245.288 144.136 245.15 143.931 244.946C143.726 244.742 143.586 244.482 143.529 244.199C143.472 243.915 143.5 243.621 143.61 243.354C143.72 243.086 143.908 242.858 144.148 242.697C144.388 242.536 144.671 242.45 144.96 242.45C145.345 242.45 145.715 242.603 145.989 242.874C146.262 243.146 146.417 243.515 146.42 243.9Z" fill="white"/>
<path d="M146.42 250.14C146.422 250.429 146.338 250.712 146.179 250.954C146.02 251.195 145.792 251.384 145.526 251.496C145.259 251.608 144.965 251.638 144.681 251.583C144.397 251.528 144.136 251.39 143.931 251.186C143.726 250.982 143.586 250.722 143.529 250.438C143.472 250.155 143.5 249.861 143.61 249.594C143.72 249.326 143.908 249.098 144.148 248.937C144.388 248.776 144.671 248.69 144.96 248.69C145.345 248.69 145.715 248.842 145.989 249.114C146.262 249.386 146.417 249.754 146.42 250.14Z" fill="white"/>
<path d="M156.76 242.45H152.25V256.01H156.76V242.45Z" fill="#455A64"/>
<path d="M163.27 242.45H158.76V256.01H163.27V242.45Z" fill="#455A64"/>
<path d="M169.79 242.45H165.28V256.01H169.79V242.45Z" fill="#455A64"/>
<path d="M176.3 242.45H171.79V256.01H176.3V242.45Z" fill="#455A64"/>
<path d="M182.81 242.45H178.3V256.01H182.81V242.45Z" fill="#455A64"/>
<path d="M189.33 242.45H184.82V256.01H189.33V242.45Z" fill="#455A64"/>
<path d="M195.84 242.45H191.33V256.01H195.84V242.45Z" fill="#455A64"/>
<path d="M202.36 242.45H197.85V256.01H202.36V242.45Z" fill="#455A64"/>
<path d="M208.87 242.45H204.36V256.01H208.87V242.45Z" fill="#455A64"/>
<path d="M215.38 242.45H210.87V256.01H215.38V242.45Z" fill="#455A64"/>
<path d="M184.82 61.89C184.765 61.6574 184.738 61.419 184.74 61.18C184.74 60.71 184.68 60.02 184.65 59.13C184.62 58.24 184.65 57.13 184.56 55.89C184.514 54.4715 184.327 53.0611 184 51.68C183.535 50.028 182.794 48.4661 181.81 47.06C180.688 45.4495 179.125 44.1962 177.31 43.45C175.263 42.7039 173.116 42.269 170.94 42.16L163.89 41.54C154.21 40.71 145.44 40.17 139.08 40.05C135.9 39.99 133.33 40.05 131.55 40.05H129.5C129.264 40.0764 129.026 40.0764 128.79 40.05C129.025 40.0095 129.262 39.9861 129.5 39.98L131.55 39.85C133.32 39.78 135.9 39.71 139.09 39.73C145.46 39.73 154.25 40.23 163.93 41.07L170.99 41.69C173.214 41.7937 175.409 42.2355 177.5 43C179.388 43.7889 181.007 45.1089 182.16 46.8C183.158 48.2528 183.899 49.8663 184.35 51.57C184.672 52.9811 184.839 54.4228 184.85 55.87C184.85 57.14 184.85 58.23 184.85 59.12C184.85 60.01 184.85 60.64 184.85 61.12C184.865 61.3771 184.855 61.6349 184.82 61.89Z" fill="#263238"/>
<path d="M160 61.8901C159.955 61.6697 159.939 61.4446 159.95 61.2201V59.2901C159.95 58.4501 159.95 57.4301 159.85 56.2901C159.789 54.9669 159.448 53.6717 158.85 52.4901C157.962 51.1568 156.657 50.1547 155.14 49.6401C153.423 48.9689 151.556 48.7788 149.74 49.0901C148.766 49.2516 147.823 49.569 146.95 50.0301C146.056 50.4808 145.308 51.1739 144.79 52.0301C144.536 52.4713 144.403 52.9712 144.403 53.4801C144.403 53.9889 144.536 54.4889 144.79 54.9301C145.051 55.3893 145.402 55.7903 145.824 56.1084C146.245 56.4266 146.727 56.6552 147.24 56.7801C147.751 56.8918 148.282 56.8745 148.785 56.7296C149.288 56.5847 149.747 56.3168 150.12 55.9501C150.873 55.2273 151.333 54.2513 151.41 53.2101C151.478 52.2027 151.172 51.2057 150.55 50.4101C149.994 49.6024 149.249 48.9432 148.38 48.4901C147.525 48.0993 146.607 47.8624 145.67 47.7901C144.75 47.6601 143.85 47.5301 142.98 47.4401C141.24 47.2401 139.6 47.1301 138.11 47.0701C135.11 46.9501 132.7 47.0001 131.03 47.0001H129.1C128.877 47.0238 128.653 47.0238 128.43 47.0001C128.65 46.9535 128.875 46.93 129.1 46.9301L131.03 46.8401C132.7 46.7701 135.12 46.6701 138.12 46.7401C139.62 46.7401 141.27 46.8701 143.02 47.0501C143.9 47.1401 144.81 47.2501 145.74 47.3801C146.21 47.4501 146.67 47.5101 147.16 47.6001C147.66 47.7018 148.144 47.8699 148.6 48.1001C149.541 48.5861 150.351 49.2929 150.96 50.1601C151.664 51.0688 152.004 52.2067 151.916 53.3527C151.827 54.4986 151.315 55.5706 150.48 56.3601C150.049 56.7922 149.517 57.11 148.932 57.2846C148.347 57.4592 147.727 57.4852 147.13 57.3601C146.543 57.2196 145.992 56.9598 145.51 56.5967C145.028 56.2337 144.627 55.7753 144.33 55.2501C144.04 54.7322 143.888 54.1486 143.888 53.5551C143.888 52.9616 144.04 52.378 144.33 51.8601C144.89 50.8993 145.717 50.1213 146.71 49.6201C147.628 49.1271 148.622 48.7892 149.65 48.6201C151.552 48.3074 153.504 48.5254 155.29 49.2501C156.887 49.8119 158.25 50.8928 159.16 52.3201C159.787 53.5623 160.129 54.9289 160.16 56.3201C160.23 57.5201 160.16 58.5401 160.16 59.3801C160.16 60.2201 160.1 60.8101 160.08 61.3101C160.07 61.5053 160.043 61.6993 160 61.8901Z" fill="#263238"/>
<path d="M191.51 61.8902C191.427 61.6434 191.37 61.3887 191.34 61.1302C191.25 60.6202 191.11 59.8802 190.91 58.9302C190.359 56.2555 189.552 53.6401 188.5 51.1202C187.014 47.3518 184.553 44.0457 181.37 41.5402C179.446 40.1515 177.19 39.2928 174.83 39.0502C172.276 38.7737 169.709 38.6368 167.14 38.6402C156.55 38.4402 146.95 38.4802 140.01 38.2102C136.54 38.0902 133.73 37.9302 131.79 37.7902L129.56 37.6102C129.301 37.6004 129.043 37.567 128.79 37.5102C129.049 37.4862 129.31 37.4862 129.57 37.5102L131.8 37.6002C133.74 37.6802 136.55 37.7802 140.02 37.8502C146.96 38.0302 156.55 37.9302 167.15 38.1302C169.739 38.1247 172.327 38.2683 174.9 38.5602C177.343 38.8219 179.675 39.722 181.66 41.1702C183.405 42.5092 184.925 44.1197 186.16 45.9402C187.221 47.5116 188.119 49.1869 188.84 50.9402C189.873 53.4929 190.634 56.1477 191.11 58.8602C191.28 59.8102 191.39 60.5602 191.45 61.0702C191.492 61.3414 191.512 61.6157 191.51 61.8902Z" fill="#263238"/>
<path d="M214.96 18.2002H135.26V29.7702H214.96V18.2002Z" fill="#263238"/>
<path d="M196.18 23.9902H152.79V29.7702H196.18V23.9902Z" fill="#455A64"/>
<path d="M247.48 258.16C247.48 258.16 246.6 258.3 245.07 258.74C242.925 259.395 240.899 260.391 239.07 261.69C237.803 262.579 236.666 263.639 235.69 264.84C235.148 265.499 234.682 266.217 234.3 266.98C233.929 267.807 233.638 268.668 233.43 269.55C232.52 273.2 232.79 277.39 232.98 281.75C233.17 286.11 232.87 290.44 231.15 293.93C230.372 295.585 229.266 297.065 227.9 298.28C225.708 300.184 223.033 301.447 220.17 301.93C219.197 302.076 218.212 302.12 217.23 302.06C216.612 302.019 216 301.922 215.4 301.77C215.19 301.732 214.985 301.668 214.79 301.58C214.79 301.52 215.66 301.79 217.24 301.85C218.205 301.884 219.17 301.814 220.12 301.64C221.373 301.403 222.592 301.013 223.75 300.48C225.156 299.839 226.457 298.989 227.61 297.96C228.92 296.769 229.978 295.327 230.72 293.72C232.36 290.34 232.64 286.1 232.45 281.72C232.26 277.34 232 273.13 232.96 269.38C233.182 268.468 233.494 267.581 233.89 266.73C234.291 265.937 234.78 265.192 235.35 264.51C236.367 263.295 237.548 262.229 238.86 261.34C240.738 260.045 242.825 259.084 245.03 258.5C245.628 258.344 246.236 258.227 246.85 258.15C247.059 258.126 247.271 258.13 247.48 258.16Z" fill="#263238"/>
<path d="M217.28 298H210.74V305.96H217.28V298Z" fill="#263238"/>
<path d="M284.17 238.06H247.48V278.26H284.17V238.06Z" fill="#455A64"/>
<path d="M274.36 266.857C279.078 262.139 279.078 254.491 274.36 249.773C269.643 245.056 261.994 245.056 257.276 249.773C252.559 254.491 252.559 262.139 257.276 266.857C261.994 271.574 269.643 271.574 274.36 266.857Z" fill="#263238"/>
<path d="M271.86 258.31C271.86 259.497 271.508 260.657 270.849 261.643C270.189 262.63 269.252 263.399 268.156 263.853C267.06 264.307 265.853 264.426 264.689 264.195C263.525 263.963 262.456 263.392 261.617 262.553C260.778 261.714 260.207 260.644 259.975 259.481C259.744 258.317 259.862 257.11 260.317 256.014C260.771 254.918 261.54 253.981 262.526 253.321C263.513 252.662 264.673 252.31 265.86 252.31C267.451 252.31 268.977 252.942 270.103 254.067C271.228 255.193 271.86 256.719 271.86 258.31Z" fill="#455A64"/>
<path d="M252.44 245.42C253.059 245.42 253.56 244.919 253.56 244.3C253.56 243.682 253.059 243.18 252.44 243.18C251.821 243.18 251.32 243.682 251.32 244.3C251.32 244.919 251.821 245.42 252.44 245.42Z" fill="#263238"/>
<path d="M278.56 245.42C279.178 245.42 279.68 244.919 279.68 244.3C279.68 243.682 279.178 243.18 278.56 243.18C277.941 243.18 277.44 243.682 277.44 244.3C277.44 244.919 277.941 245.42 278.56 245.42Z" fill="#263238"/>
<path d="M278.79 275.1C279.408 275.1 279.91 274.598 279.91 273.98C279.91 273.361 279.408 272.86 278.79 272.86C278.171 272.86 277.67 273.361 277.67 273.98C277.67 274.598 278.171 275.1 278.79 275.1Z" fill="#263238"/>
<path d="M252.44 275.56C253.059 275.56 253.56 275.058 253.56 274.44C253.56 273.821 253.059 273.32 252.44 273.32C251.821 273.32 251.32 273.821 251.32 274.44C251.32 275.058 251.821 275.56 252.44 275.56Z" fill="#263238"/>
<path d="M287.13 238.06H284.17V278.26H287.13V238.06Z" fill="#263238"/>
<path d="M315.33 86.7898C315.33 86.9298 304.82 87.0498 291.85 87.0498C278.88 87.0498 268.37 86.9298 268.37 86.7898C268.37 86.6498 278.88 86.5298 291.85 86.5298C304.82 86.5298 315.33 86.6498 315.33 86.7898Z" fill="#263238"/>
<path d="M412.77 91.7798C412.62 91.7887 412.47 91.7887 412.32 91.7798H410.94H405.57L385.45 91.8598L316 91.9998H315.81L315.76 91.8198C314.997 89.2123 314.86 86.4614 315.362 83.7911C315.863 81.1208 316.988 78.6067 318.645 76.4536C320.302 74.3004 322.444 72.5692 324.897 71.4007C327.35 70.2323 330.044 69.6598 332.76 69.7298L332.5 70.0598C332.074 68.545 331.892 66.972 331.96 65.3998C332.047 62.7241 332.83 60.1173 334.233 57.8373C335.637 55.5573 337.61 53.683 339.96 52.3998C342.233 51.2125 344.761 50.5991 347.325 50.613C349.889 50.627 352.411 51.2679 354.67 52.4798L354.32 52.6098C355.573 49.6985 357.417 47.0794 359.736 44.9189C362.055 42.7584 364.797 41.1037 367.79 40.0598C370.542 39.017 373.478 38.55 376.418 38.6876C379.358 38.8252 382.238 39.5645 384.88 40.8598C389.633 43.38 393.37 47.4632 395.46 52.4198C397.374 56.776 397.83 61.6336 396.76 66.2698L396.57 66.0498C399.292 65.771 402.04 66.1695 404.57 67.2098C406.842 68.1188 408.889 69.511 410.57 71.2898C411.331 72.0882 411.965 72.9989 412.45 73.9898C412.882 74.9058 413.217 75.8643 413.45 76.8498C413.859 78.5612 414.087 80.3108 414.13 82.0698C414.221 84.4961 414.012 86.9244 413.51 89.2998C413.375 89.9148 413.209 90.5224 413.01 91.1198C412.87 91.5198 412.79 91.7098 412.79 91.7098C412.79 91.7098 412.85 91.4898 412.97 91.0898C413.09 90.6898 413.24 90.0898 413.41 89.2798C413.868 86.9088 414.046 84.4923 413.94 82.0798C413.878 80.3363 413.637 78.6039 413.22 76.9098C412.774 74.88 411.79 73.0077 410.37 71.4898C408.719 69.7512 406.714 68.3872 404.49 67.4898C401.993 66.4829 399.286 66.1084 396.61 66.3998H396.36L396.41 66.1498C397.449 61.5886 396.982 56.8136 395.08 52.5398C393.021 47.6809 389.347 43.6821 384.68 41.2198C382.092 39.9593 379.273 39.2424 376.398 39.1134C373.522 38.9844 370.65 39.4461 367.96 40.4698C365.035 41.498 362.355 43.1208 360.088 45.236C357.822 47.3512 356.018 49.9129 354.79 52.7598L354.68 53.0198L354.43 52.8898C352.244 51.7188 349.804 51.1002 347.324 51.088C344.843 51.0758 342.398 51.6704 340.2 52.8198C337.946 54.0633 336.053 55.8708 334.706 58.0654C333.36 60.26 332.607 62.7666 332.52 65.3398C332.419 66.909 332.581 68.4841 333 69.9998L333.1 70.3398H332.74C330.103 70.2691 327.487 70.8223 325.104 71.9542C322.721 73.0861 320.639 74.7648 319.028 76.8535C317.417 78.9423 316.322 81.382 315.832 83.9741C315.343 86.5661 315.472 89.2372 316.21 91.7698L315.97 91.5898L385.29 91.6998L405.46 91.7698H410.87H412.27L412.77 91.7798Z" fill="#263238"/>
<path d="M399.3 150.83C399.091 150.854 398.879 150.854 398.67 150.83L396.83 150.88L390 151L366.32 151.09H366V150.84C366 146.84 366 142.49 366 138C366 125.35 366.06 113.91 366.08 105.57C366.08 101.45 366.14 98.11 366.16 95.74C366.16 94.62 366.16 93.74 366.21 93.07C366.21 92.79 366.21 92.56 366.21 92.37C366.182 92.3627 366.157 92.3453 366.141 92.3212C366.124 92.297 366.117 92.2677 366.121 92.2387C366.125 92.2097 366.139 92.1831 366.161 92.1638C366.183 92.1444 366.211 92.1338 366.24 92.1338C366.269 92.1338 366.297 92.1444 366.319 92.1638C366.341 92.1831 366.355 92.2097 366.359 92.2387C366.363 92.2677 366.356 92.297 366.339 92.3212C366.323 92.3453 366.298 92.3627 366.27 92.37C366.27 92.56 366.27 92.79 366.27 93.07C366.27 93.72 366.27 94.62 366.32 95.74C366.32 98.11 366.37 101.45 366.4 105.57C366.4 113.91 366.4 125.35 366.48 138C366.48 142.49 366.48 146.83 366.48 150.84L366.23 150.59L389.91 150.68L396.77 150.76H398.61C398.842 150.762 399.073 150.785 399.3 150.83Z" fill="#263238"/>
<path d="M390.12 22.8198L367.8 14.8198L345.69 22.7298C342.87 24.0598 340.39 24.8598 340.39 27.4898V40.5798C340.349 49.7709 342.87 58.7916 347.67 66.6298C352.451 74.5678 359.55 80.8498 368.01 84.6298C377.01 81.6898 383.8 73.8698 387.92 67.1798C392.719 59.3374 395.24 50.3139 395.2 41.1198V29.2998C395.2 25.5498 393.22 23.7198 390.12 22.8198Z" fill="#407BFF"/>
<g opacity="0.3">
<path d="M368 76.9998C361.299 73.9778 355.685 68.9771 351.91 62.6698C348.104 56.4505 346.112 49.2911 346.16 41.9998V32.8198C346.16 30.7398 347.41 28.8198 349.91 27.6298L367.8 20.9998V14.7998L345.69 22.7098C343.37 23.7098 340.39 24.8398 340.39 27.4698V40.5598C340.349 49.7509 342.87 58.7716 347.67 66.6098C352.451 74.5477 359.55 80.8298 368.01 84.6098L368 76.9998Z" fill="black"/>
</g>
<g opacity="0.4">
<path d="M368 84.5798C369.515 84.0817 370.984 83.4527 372.39 82.6998C375.834 80.7486 378.963 78.2874 381.67 75.3998C384.13 72.7481 386.296 69.8378 388.13 66.7198C392.995 58.828 395.449 49.687 395.19 40.4198V29.6098C395.19 24.2298 392.41 23.8298 390.09 22.8198L367.77 14.8198V20.9998L385.88 27.7998C388.37 28.9698 389.62 30.9198 389.62 32.9998V42.1798C389.653 49.4517 387.659 56.5889 383.86 62.7898C380.169 69.0516 374.628 74.0159 368 76.9998V84.5798Z" fill="black"/>
</g>
<path opacity="0.5" d="M373.72 41.4499V39.6799C373.72 38.1416 373.109 36.6664 372.021 35.5787C370.933 34.4909 369.458 33.8799 367.92 33.8799C366.382 33.8799 364.906 34.4909 363.819 35.5787C362.731 36.6664 362.12 38.1416 362.12 39.6799V41.4699C361.35 41.5848 360.648 41.9719 360.139 42.561C359.631 43.15 359.351 43.9018 359.35 44.6799V55.0999C359.35 55.5262 359.434 55.9483 359.598 56.3421C359.761 56.7358 360.001 57.0934 360.302 57.3944C360.604 57.6954 360.963 57.9339 361.357 58.0961C361.751 58.2584 362.174 58.3412 362.6 58.3399H373.41C373.836 58.3412 374.259 58.2584 374.653 58.0961C375.047 57.9339 375.406 57.6954 375.707 57.3944C376.009 57.0934 376.249 56.7358 376.412 56.3421C376.576 55.9483 376.66 55.5262 376.66 55.0999V44.6799C376.659 43.8725 376.357 43.0945 375.813 42.4974C375.27 41.9003 374.524 41.5269 373.72 41.4499ZM369.49 52.5099H366.66L367.11 50.5099C366.86 50.3572 366.653 50.1428 366.509 49.8871C366.365 49.6314 366.29 49.3431 366.29 49.0499C366.288 48.7506 366.364 48.4559 366.511 48.1948C366.657 47.9337 366.869 47.7151 367.125 47.5602C367.381 47.4053 367.673 47.3196 367.972 47.3114C368.271 47.3031 368.568 47.3726 368.832 47.5131C369.096 47.6536 369.32 47.8603 369.48 48.1129C369.641 48.3656 369.733 48.6556 369.748 48.9545C369.763 49.2535 369.7 49.5512 369.565 49.8185C369.431 50.0859 369.229 50.3138 368.98 50.4799C369.18 51.2199 369.49 52.5099 369.49 52.5099ZM372.49 41.4399H363.4V39.6799C363.4 38.4731 363.879 37.3158 364.733 36.4625C365.586 35.6092 366.743 35.1299 367.95 35.1299C369.157 35.1299 370.314 35.6092 371.167 36.4625C372.021 37.3158 372.5 38.4731 372.5 39.6799L372.49 41.4399Z" fill="white"/>
<path d="M349.78 41.3196C349.585 40.7345 349.47 40.1256 349.44 39.5096C349.277 38.0356 349.217 36.552 349.26 35.0696C349.26 34.1996 349.34 33.3696 349.42 32.6196C349.457 31.9271 349.627 31.2482 349.92 30.6196C350.142 30.1907 350.491 29.8413 350.92 29.6196C351.22 29.4796 351.41 29.4896 351.41 29.5096C350.872 29.7593 350.44 30.1915 350.19 30.7296C349.949 31.3281 349.817 31.9647 349.8 32.6096C349.74 33.3596 349.7 34.1796 349.67 35.0396C349.67 36.7596 349.67 38.3196 349.74 39.4496C349.808 40.0705 349.822 40.6963 349.78 41.3196Z" fill="white"/>
<path d="M350.11 46.9998C350 46.9998 349.9 46.4699 349.89 45.7999C349.88 45.1299 349.95 44.5898 350.06 44.5898C350.17 44.5898 350.26 45.1298 350.28 45.7898C350.3 46.4498 350.21 46.9998 350.11 46.9998Z" fill="white"/>
</g>
<defs>
<clipPath id="clip0_26_339">
<rect width="628" height="310" fill="white"/>
</clipPath>
</defs>
</svg>
