<svg width="628" height="310" viewBox="0 0 628 310" fill="none" xmlns="http://www.w3.org/2000/svg">
<g clip-path="url(#clip0_27_9)">
<mask id="mask0_27_9" style="mask-type:luminance" maskUnits="userSpaceOnUse" x="0" y="0" width="628" height="319">
<path d="M628 0H0V319H628V0Z" fill="white"/>
</mask>
<g mask="url(#mask0_27_9)">
<path d="M549.4 8.91016H481V98.1102L549.4 99.8202V8.91016Z" fill="#848484"/>
<path d="M544.9 12.0801H485.05V92.9801L544.9 95.0001V12.0801Z" fill="#4D4D4D"/>
<path d="M534.42 26.78L494.7 25.27V81.82H534.42V26.78Z" fill="#848484"/>
<path d="M494.7 81.82L534.42 52.77L494.7 25.27V81.82Z" fill="#C9C9C9"/>
<path d="M102.34 49.8198H17.58V309.47H102.34V49.8198Z" fill="#C9C9C9"/>
<path d="M169.07 50.6499H102.08V309.47H169.07V50.6499Z" fill="#848484"/>
<path d="M94.03 91.3799H22.13V111.62H94.03V91.3799Z" fill="#668A9C"/>
<path d="M28.16 93.9199H24.13V109.41H28.16V93.9199Z" fill="#455A64"/>
<path d="M32.9 97.1799C32.9 97.4339 32.8249 97.6809 32.6842 97.8919C32.5436 98.1019 32.3437 98.2659 32.1098 98.3629C31.8759 98.4599 31.6185 98.4849 31.3703 98.4359C31.122 98.3859 30.8939 98.2649 30.7149 98.0849C30.5359 97.9059 30.414 97.6779 30.3646 97.4299C30.3152 97.1819 30.3405 96.9239 30.4374 96.6909C30.5343 96.4569 30.6983 96.2569 30.9088 96.1159C31.1193 95.9749 31.3668 95.8999 31.62 95.8999C31.9594 95.8999 32.285 96.0349 32.5251 96.2749C32.7651 96.5149 32.9 96.8409 32.9 97.1799Z" fill="white"/>
<path d="M32.9 102.65C32.9 102.99 32.7651 103.315 32.5251 103.555C32.285 103.795 31.9594 103.93 31.62 103.93C31.2805 103.93 30.9549 103.795 30.7149 103.555C30.4748 103.315 30.34 102.99 30.34 102.65C30.34 102.311 30.4748 101.985 30.7149 101.745C30.9549 101.505 31.2805 101.37 31.62 101.37C31.9594 101.37 32.285 101.505 32.5251 101.745C32.7651 101.985 32.9 102.311 32.9 102.65Z" fill="white"/>
<path d="M41.98 95.8999H38.0199V107.8H41.98V95.8999Z" fill="#455A64"/>
<path d="M47.69 95.8999H43.73V107.8H47.69V95.8999Z" fill="#455A64"/>
<path d="M53.41 95.8999H49.45V107.8H53.41V95.8999Z" fill="#455A64"/>
<path d="M59.12 95.8999H55.16V107.8H59.12V95.8999Z" fill="#455A64"/>
<path d="M64.84 95.8999H60.88V107.8H64.84V95.8999Z" fill="#455A64"/>
<path d="M70.55 95.8999H66.59V107.8H70.55V95.8999Z" fill="#455A64"/>
<path d="M76.2701 95.8999H72.3101V107.8H76.2701V95.8999Z" fill="#455A64"/>
<path d="M81.98 95.8999H78.02V107.8H81.98V95.8999Z" fill="#455A64"/>
<path d="M87.7 95.8999H83.74V107.8H87.7V95.8999Z" fill="#455A64"/>
<path d="M93.41 95.8999H89.45V107.8H93.41V95.8999Z" fill="#455A64"/>
<path d="M94.03 123.8H22.13V144.04H94.03V123.8Z" fill="#668A9C"/>
<path d="M28.16 126.34H24.13V141.83H28.16V126.34Z" fill="#455A64"/>
<path d="M32.9 129.6C32.9 129.94 32.7651 130.265 32.5251 130.505C32.285 130.745 31.9594 130.88 31.62 130.88C31.2805 130.88 30.9549 130.745 30.7149 130.505C30.4748 130.265 30.34 129.94 30.34 129.6C30.34 129.261 30.4748 128.935 30.7149 128.695C30.9549 128.455 31.2805 128.32 31.62 128.32C31.9594 128.32 32.285 128.455 32.5251 128.695C32.7651 128.935 32.9 129.261 32.9 129.6Z" fill="white"/>
<path d="M32.9 135.08C32.9 135.333 32.8249 135.581 32.6842 135.791C32.5436 136.002 32.3437 136.166 32.1098 136.263C31.8759 136.36 31.6185 136.385 31.3703 136.336C31.122 136.286 30.8939 136.164 30.7149 135.985C30.5359 135.806 30.414 135.578 30.3646 135.33C30.3152 135.082 30.3405 134.824 30.4374 134.59C30.5343 134.357 30.6983 134.157 30.9088 134.016C31.1193 133.875 31.3668 133.8 31.62 133.8C31.9594 133.8 32.285 133.935 32.5251 134.175C32.7651 134.415 32.9 134.741 32.9 135.08Z" fill="white"/>
<path d="M41.98 128.32H38.0199V140.22H41.98V128.32Z" fill="#455A64"/>
<path d="M47.69 128.32H43.73V140.22H47.69V128.32Z" fill="#455A64"/>
<path d="M53.41 128.32H49.45V140.22H53.41V128.32Z" fill="#455A64"/>
<path d="M59.12 128.32H55.16V140.22H59.12V128.32Z" fill="#455A64"/>
<path d="M64.84 128.32H60.88V140.22H64.84V128.32Z" fill="#455A64"/>
<path d="M70.55 128.32H66.59V140.22H70.55V128.32Z" fill="#455A64"/>
<path d="M76.2701 128.32H72.3101V140.22H76.2701V128.32Z" fill="#455A64"/>
<path d="M81.98 128.32H78.02V140.22H81.98V128.32Z" fill="#455A64"/>
<path d="M87.7 128.32H83.74V140.22H87.7V128.32Z" fill="#455A64"/>
<path d="M93.41 128.32H89.45V140.22H93.41V128.32Z" fill="#455A64"/>
<path d="M94.03 156.22H22.13V176.46H94.03V156.22Z" fill="#668A9C"/>
<path d="M28.16 158.77H24.13V174.26H28.16V158.77Z" fill="#455A64"/>
<path d="M32.9 162C32.9 162.253 32.8249 162.501 32.6842 162.711C32.5436 162.922 32.3437 163.086 32.1098 163.183C31.8759 163.28 31.6185 163.305 31.3703 163.256C31.122 163.206 30.8939 163.084 30.7149 162.905C30.5359 162.726 30.414 162.498 30.3646 162.25C30.3152 162.002 30.3405 161.744 30.4374 161.51C30.5343 161.276 30.6983 161.077 30.9088 160.936C31.1193 160.795 31.3668 160.72 31.62 160.72C31.9594 160.72 32.285 160.855 32.5251 161.095C32.7651 161.335 32.9 161.661 32.9 162Z" fill="white"/>
<path d="M32.9 167.5C32.9 167.753 32.8249 168.001 32.6842 168.211C32.5436 168.422 32.3437 168.586 32.1098 168.683C31.8759 168.78 31.6185 168.805 31.3703 168.756C31.122 168.706 30.8939 168.584 30.7149 168.405C30.5359 168.226 30.414 167.998 30.3646 167.75C30.3152 167.502 30.3405 167.244 30.4374 167.01C30.5343 166.776 30.6983 166.577 30.9088 166.436C31.1193 166.295 31.3668 166.22 31.62 166.22C31.9594 166.22 32.285 166.355 32.5251 166.595C32.7651 166.835 32.9 167.161 32.9 167.5Z" fill="white"/>
<path d="M41.98 160.75H38.0199V172.65H41.98V160.75Z" fill="#455A64"/>
<path d="M47.69 160.75H43.73V172.65H47.69V160.75Z" fill="#455A64"/>
<path d="M53.41 160.75H49.45V172.65H53.41V160.75Z" fill="#455A64"/>
<path d="M59.12 160.75H55.16V172.65H59.12V160.75Z" fill="#455A64"/>
<path d="M64.84 160.75H60.88V172.65H64.84V160.75Z" fill="#455A64"/>
<path d="M70.55 160.75H66.59V172.65H70.55V160.75Z" fill="#455A64"/>
<path d="M76.2701 160.75H72.3101V172.65H76.2701V160.75Z" fill="#455A64"/>
<path d="M81.98 160.75H78.02V172.65H81.98V160.75Z" fill="#455A64"/>
<path d="M87.7 160.75H83.74V172.65H87.7V160.75Z" fill="#455A64"/>
<path d="M93.41 160.75H89.45V172.65H93.41V160.75Z" fill="#455A64"/>
<path d="M94.03 188.65H22.13V208.89H94.03V188.65Z" fill="#668A9C"/>
<path d="M28.16 191.19H24.13V206.68H28.16V191.19Z" fill="#455A64"/>
<path d="M32.9 194.45C32.9 194.703 32.8249 194.951 32.6842 195.161C32.5436 195.372 32.3437 195.536 32.1098 195.632C31.8759 195.729 31.6185 195.755 31.3703 195.705C31.122 195.656 30.8939 195.534 30.7149 195.355C30.5359 195.176 30.414 194.948 30.3646 194.7C30.3152 194.451 30.3405 194.194 30.4374 193.96C30.5343 193.726 30.6983 193.526 30.9088 193.386C31.1193 193.245 31.3668 193.17 31.62 193.17C31.9594 193.17 32.285 193.305 32.5251 193.545C32.7651 193.785 32.9 194.11 32.9 194.45Z" fill="white"/>
<path d="M32.9 199.92C32.9 200.26 32.7651 200.585 32.5251 200.825C32.285 201.065 31.9594 201.2 31.62 201.2C31.2805 201.2 30.9549 201.065 30.7149 200.825C30.4748 200.585 30.34 200.26 30.34 199.92C30.34 199.581 30.4748 199.255 30.7149 199.015C30.9549 198.775 31.2805 198.64 31.62 198.64C31.9594 198.64 32.285 198.775 32.5251 199.015C32.7651 199.255 32.9 199.581 32.9 199.92Z" fill="white"/>
<path d="M41.98 193.17H38.0199V205.07H41.98V193.17Z" fill="#455A64"/>
<path d="M47.69 193.17H43.73V205.07H47.69V193.17Z" fill="#455A64"/>
<path d="M53.41 193.17H49.45V205.07H53.41V193.17Z" fill="#455A64"/>
<path d="M59.12 193.17H55.16V205.07H59.12V193.17Z" fill="#455A64"/>
<path d="M64.84 193.17H60.88V205.07H64.84V193.17Z" fill="#455A64"/>
<path d="M70.55 193.17H66.59V205.07H70.55V193.17Z" fill="#455A64"/>
<path d="M76.2701 193.17H72.3101V205.07H76.2701V193.17Z" fill="#455A64"/>
<path d="M81.98 193.17H78.02V205.07H81.98V193.17Z" fill="#455A64"/>
<path d="M87.7 193.17H83.74V205.07H87.7V193.17Z" fill="#455A64"/>
<path d="M93.41 193.17H89.45V205.07H93.41V193.17Z" fill="#455A64"/>
<path d="M94.03 221.07H22.13V241.31H94.03V221.07Z" fill="#668A9C"/>
<path d="M28.16 223.61H24.13V239.1H28.16V223.61Z" fill="#455A64"/>
<path d="M32.9 226.87C32.9 227.21 32.7651 227.535 32.5251 227.775C32.285 228.015 31.9594 228.15 31.62 228.15C31.2805 228.15 30.9549 228.015 30.7149 227.775C30.4748 227.535 30.34 227.21 30.34 226.87C30.34 226.531 30.4748 226.205 30.7149 225.965C30.9549 225.725 31.2805 225.59 31.62 225.59C31.9594 225.59 32.285 225.725 32.5251 225.965C32.7651 226.205 32.9 226.531 32.9 226.87Z" fill="white"/>
<path d="M32.9 232.35C32.9 232.603 32.8249 232.851 32.6842 233.061C32.5436 233.272 32.3437 233.436 32.1098 233.533C31.8759 233.63 31.6185 233.655 31.3703 233.606C31.122 233.556 30.8939 233.434 30.7149 233.255C30.5359 233.076 30.414 232.848 30.3646 232.6C30.3152 232.352 30.3405 232.094 30.4374 231.86C30.5343 231.627 30.6983 231.427 30.9088 231.286C31.1193 231.145 31.3668 231.07 31.62 231.07C31.9594 231.07 32.285 231.205 32.5251 231.445C32.7651 231.685 32.9 232.011 32.9 232.35Z" fill="white"/>
<path d="M41.98 225.59H38.0199V237.49H41.98V225.59Z" fill="#455A64"/>
<path d="M47.69 225.59H43.73V237.49H47.69V225.59Z" fill="#455A64"/>
<path d="M53.41 225.59H49.45V237.49H53.41V225.59Z" fill="#455A64"/>
<path d="M59.12 225.59H55.16V237.49H59.12V225.59Z" fill="#455A64"/>
<path d="M64.84 225.59H60.88V237.49H64.84V225.59Z" fill="#455A64"/>
<path d="M70.55 225.59H66.59V237.49H70.55V225.59Z" fill="#455A64"/>
<path d="M76.2701 225.59H72.3101V237.49H76.2701V225.59Z" fill="#455A64"/>
<path d="M81.98 225.59H78.02V237.49H81.98V225.59Z" fill="#455A64"/>
<path d="M87.7 225.59H83.74V237.49H87.7V225.59Z" fill="#455A64"/>
<path d="M93.41 225.59H89.45V237.49H93.41V225.59Z" fill="#455A64"/>
<path d="M94.03 253.49H22.13V273.73H94.03V253.49Z" fill="#668A9C"/>
<path d="M28.16 256.04H24.13V271.53H28.16V256.04Z" fill="#455A64"/>
<path d="M32.8999 259.3C32.896 259.552 32.8176 259.798 32.6746 260.006C32.5315 260.213 32.3303 260.374 32.0961 260.468C31.8619 260.562 31.6051 260.585 31.3582 260.533C31.1112 260.481 30.885 260.358 30.708 260.178C30.531 259.998 30.411 259.77 30.3633 259.522C30.3155 259.275 30.342 259.018 30.4394 258.786C30.5368 258.553 30.7009 258.354 30.9109 258.214C31.121 258.075 31.3676 258 31.6199 258C31.7897 258 31.9578 258.034 32.1144 258.099C32.271 258.165 32.4131 258.261 32.5322 258.382C32.6513 258.503 32.7452 258.646 32.8083 258.804C32.8714 258.962 32.9026 259.13 32.8999 259.3Z" fill="white"/>
<path d="M32.9 264.77C32.9 265.023 32.8249 265.271 32.6842 265.481C32.5436 265.692 32.3437 265.856 32.1098 265.953C31.8759 266.05 31.6185 266.075 31.3703 266.026C31.122 265.976 30.8939 265.854 30.7149 265.675C30.5359 265.496 30.414 265.268 30.3646 265.02C30.3152 264.772 30.3405 264.514 30.4374 264.28C30.5343 264.047 30.6983 263.847 30.9088 263.706C31.1193 263.565 31.3668 263.49 31.62 263.49C31.9594 263.49 32.285 263.625 32.5251 263.865C32.7651 264.105 32.9 264.431 32.9 264.77Z" fill="white"/>
<path d="M41.98 258.02H38.0199V269.92H41.98V258.02Z" fill="#455A64"/>
<path d="M47.69 258.02H43.73V269.92H47.69V258.02Z" fill="#455A64"/>
<path d="M53.41 258.02H49.45V269.92H53.41V258.02Z" fill="#455A64"/>
<path d="M59.12 258.02H55.16V269.92H59.12V258.02Z" fill="#455A64"/>
<path d="M64.84 258.02H60.88V269.92H64.84V258.02Z" fill="#455A64"/>
<path d="M70.55 258.02H66.59V269.92H70.55V258.02Z" fill="#455A64"/>
<path d="M76.2701 258.02H72.3101V269.92H76.2701V258.02Z" fill="#455A64"/>
<path d="M81.98 258.02H78.02V269.92H81.98V258.02Z" fill="#455A64"/>
<path d="M87.7 258.02H83.74V269.92H87.7V258.02Z" fill="#455A64"/>
<path d="M93.41 258.02H89.45V269.92H93.41V258.02Z" fill="#455A64"/>
<path d="M94.03 285.92H22.13V306.16H94.03V285.92Z" fill="#668A9C"/>
<path d="M28.16 288.46H24.13V303.95H28.16V288.46Z" fill="#455A64"/>
<path d="M32.9 291.72C32.9 291.973 32.8249 292.221 32.6842 292.431C32.5436 292.642 32.3437 292.806 32.1098 292.902C31.8759 292.999 31.6185 293.025 31.3703 292.975C31.122 292.926 30.8939 292.804 30.7149 292.625C30.5359 292.446 30.414 292.218 30.3646 291.97C30.3152 291.721 30.3405 291.464 30.4374 291.23C30.5343 290.996 30.6983 290.796 30.9088 290.656C31.1193 290.515 31.3668 290.44 31.62 290.44C31.9594 290.44 32.285 290.575 32.5251 290.815C32.7651 291.055 32.9 291.38 32.9 291.72Z" fill="white"/>
<path d="M32.9 297.2C32.9 297.453 32.8249 297.701 32.6842 297.911C32.5436 298.122 32.3437 298.286 32.1098 298.383C31.8759 298.479 31.6185 298.505 31.3703 298.455C31.122 298.406 30.8939 298.284 30.7149 298.105C30.5359 297.926 30.414 297.698 30.3646 297.45C30.3152 297.201 30.3405 296.944 30.4374 296.71C30.5343 296.476 30.6983 296.276 30.9088 296.136C31.1193 295.995 31.3668 295.92 31.62 295.92C31.7884 295.919 31.9555 295.951 32.1114 296.015C32.2673 296.079 32.4089 296.173 32.528 296.292C32.6472 296.411 32.7414 296.553 32.8052 296.709C32.8691 296.864 32.9013 297.031 32.9 297.2Z" fill="white"/>
<path d="M41.98 290.44H38.0199V302.34H41.98V290.44Z" fill="#455A64"/>
<path d="M47.69 290.44H43.73V302.34H47.69V290.44Z" fill="#455A64"/>
<path d="M53.41 290.44H49.45V302.34H53.41V290.44Z" fill="#455A64"/>
<path d="M59.12 290.44H55.16V302.34H59.12V290.44Z" fill="#455A64"/>
<path d="M64.84 290.44H60.88V302.34H64.84V290.44Z" fill="#455A64"/>
<path d="M70.55 290.44H66.59V302.34H70.55V290.44Z" fill="#455A64"/>
<path d="M76.2701 290.44H72.3101V302.34H76.2701V290.44Z" fill="#455A64"/>
<path d="M81.98 290.44H78.02V302.34H81.98V290.44Z" fill="#455A64"/>
<path d="M87.7 290.44H83.74V302.34H87.7V290.44Z" fill="#455A64"/>
<path d="M93.41 290.44H89.45V302.34H93.41V290.44Z" fill="#455A64"/>
<path d="M66.59 91.3802C66.55 91.1722 66.527 90.9622 66.52 90.7502C66.52 90.3402 66.46 89.7502 66.44 88.9502C66.42 88.1502 66.44 87.2202 66.35 86.1102C66.311 84.8662 66.144 83.6302 65.85 82.4202C65.439 80.9882 64.79 79.6362 63.93 78.4202C62.95 77.0142 61.586 75.9202 60 75.2702C58.208 74.6122 56.327 74.2282 54.42 74.1302L48.23 73.6002C39.74 72.8602 32.0399 72.3902 26.4699 72.2802C23.6799 72.2202 21.4699 72.2302 19.8599 72.2802H18.0599C17.8507 72.3052 17.6392 72.3052 17.4299 72.2802C17.6377 72.2402 17.8484 72.2172 18.0599 72.2102L19.8499 72.1002C21.4199 72.0302 23.6799 71.9602 26.4699 71.9702C32.0599 71.9702 39.78 72.4002 48.27 73.1402L54.47 73.6902C56.423 73.7912 58.349 74.1922 60.18 74.8802C61.842 75.5772 63.266 76.7412 64.28 78.2302C65.16 79.5092 65.813 80.9292 66.21 82.4302C66.486 83.6682 66.63 84.9322 66.64 86.2002C66.64 87.3102 66.64 88.2702 66.64 89.0502C66.64 89.8302 66.64 90.3802 66.64 90.8502C66.641 91.0282 66.624 91.2062 66.59 91.3802Z" fill="#668A9C"/>
<path d="M44.78 91.3798C44.759 91.1838 44.759 90.9858 44.78 90.7898C44.78 90.3398 44.78 89.7898 44.78 89.0898C44.78 88.3898 44.78 87.4598 44.69 86.4298C44.633 85.2698 44.33 84.1338 43.8 83.0998C43.023 81.9388 41.884 81.0668 40.56 80.6198C39.06 80.0338 37.4276 79.8678 35.84 80.1398C34.9892 80.2788 34.1678 80.5598 33.41 80.9698C32.6231 81.3708 31.9673 81.9888 31.52 82.7498C31.2987 83.1318 31.1821 83.5648 31.1821 84.0048C31.1821 84.4458 31.2987 84.8788 31.52 85.2598C31.7456 85.6598 32.0512 86.0098 32.4176 86.2868C32.784 86.5638 33.2035 86.7618 33.65 86.8698C34.0936 86.9698 34.5551 86.9558 34.992 86.8298C35.4289 86.7038 35.8271 86.4698 36.15 86.1498C36.7969 85.5168 37.1945 84.6718 37.27 83.7698C37.3283 82.8918 37.0613 82.0238 36.52 81.3298C36.0312 80.6318 35.3834 80.0588 34.63 79.6598C33.8665 79.2948 33.0432 79.0718 32.2 78.9998C31.39 78.8798 30.6 78.7798 29.84 78.6898C28.31 78.5198 26.84 78.4198 25.57 78.3598C22.95 78.2598 20.83 78.2998 19.36 78.2898H17.67C17.474 78.3138 17.2759 78.3138 17.08 78.2898C17.2698 78.2438 17.4645 78.2198 17.66 78.2198L19.35 78.1298C20.82 78.0698 22.95 77.9798 25.58 78.0398C26.9 78.0398 28.34 78.1498 29.88 78.2998C30.66 78.3798 31.45 78.4798 32.27 78.5898C32.68 78.6598 33.09 78.7098 33.52 78.7898C33.9627 78.8728 34.3907 79.0218 34.79 79.2298C35.6141 79.6468 36.3271 80.2528 36.87 80.9998C37.4778 81.7868 37.7798 82.7678 37.72 83.7598C37.6463 84.7948 37.19 85.7638 36.44 86.4798C36.0528 86.8648 35.5748 87.1448 35.0503 87.2948C34.5259 87.4458 33.972 87.4608 33.44 87.3398C32.9324 87.2148 32.4551 86.9888 32.0361 86.6768C31.617 86.3638 31.2648 85.9708 31 85.5198C30.7433 85.0618 30.6086 84.5458 30.6086 84.0198C30.6086 83.4948 30.7433 82.9788 31 82.5198C31.4898 81.6628 32.2198 80.9678 33.1 80.5198C33.9101 80.0928 34.7852 79.8018 35.69 79.6598C37.3754 79.3758 39.107 79.5658 40.69 80.2098C42.095 80.7018 43.293 81.6528 44.09 82.9098C44.628 83.9968 44.921 85.1878 44.95 86.3998C44.95 87.4498 44.95 88.3998 44.95 89.0898C44.95 89.7798 44.95 90.3298 44.88 90.7798C44.873 90.9838 44.839 91.1848 44.78 91.3798Z" fill="#668A9C"/>
<path d="M72.46 91.38C72.392 91.161 72.342 90.937 72.31 90.71C72.23 90.27 72.11 89.62 71.93 88.79C71.44 86.441 70.726 84.144 69.8 81.93C68.496 78.632 66.339 75.74 63.55 73.55C61.864 72.333 59.888 71.581 57.82 71.37C55.585 71.126 53.338 71.006 51.09 71.01C41.79 70.84 33.3699 70.87 27.2799 70.63C24.2799 70.52 21.7699 70.37 20.0699 70.25L18.0699 70.08C17.8405 70.069 17.6128 70.035 17.3899 69.98C17.6196 69.963 17.8502 69.963 18.0799 69.98L20.0799 70.06C21.7799 70.12 24.2399 70.21 27.2899 70.27C33.3799 70.42 41.79 70.32 51.1 70.5C53.372 70.494 55.643 70.621 57.9 70.88C60.049 71.106 62.099 71.9 63.84 73.18C65.387 74.356 66.737 75.77 67.84 77.37C68.77 78.763 69.554 80.247 70.18 81.8C71.092 84.056 71.762 86.403 72.18 88.8C72.33 89.64 72.42 90.29 72.47 90.74C72.486 90.953 72.482 91.168 72.46 91.38Z" fill="#668A9C"/>
<path d="M93.04 53.0498H23.12V63.1998H93.04V53.0498Z" fill="#668A9C"/>
<path d="M76.56 58.1201H38.49V63.2001H76.56V58.1201Z" fill="#455A64"/>
<path d="M628.4 308.67H626.78H622.01L603.69 308.79L536.31 309.12L314 309.88C227.16 310.06 148.56 310.09 91.66 309.88C63.21 309.79 40.19 309.64 24.28 309.44C16.28 309.33 10.15 309.21 5.96003 309.08C1.77003 308.95 -0.429966 308.76 -0.399966 308.64C-0.268766 308.674 -0.134964 308.698 3.59416e-05 308.71C0.270036 308.71 0.670035 308.78 1.21003 308.81C2.28003 308.87 3.87004 308.92 5.97004 308.97C10.15 309.07 16.33 309.16 24.28 309.23C40.19 309.38 63.21 309.47 91.66 309.51C148.56 309.6 227.16 309.51 314 309.33L536.31 308.79L603.69 308.63H622.01H626.78C627.85 308.65 628.4 308.67 628.4 308.67Z" fill="#668A9C"/>
<path d="M480.14 85.1898C479.77 83.9938 478.965 82.9788 477.884 82.3478C476.803 81.7158 475.524 81.5138 474.3 81.7798C473.427 82.1478 472.503 82.3808 471.56 82.4698C470.741 82.3288 469.953 82.0478 469.23 81.6398C467.417 80.9568 465.408 81.0088 463.632 81.7838C461.856 82.5588 460.453 83.9958 459.72 85.7898C458.545 85.1358 457.203 84.8438 455.862 84.9498C454.522 85.0558 453.243 85.5568 452.186 86.3878C451.129 87.2198 450.341 88.3448 449.922 89.6228C449.503 90.9008 449.471 92.2738 449.83 93.5698C448.564 93.8128 447.409 94.4568 446.538 95.4078C445.666 96.3578 445.124 97.5638 444.992 98.8458C444.86 100.129 445.144 101.42 445.803 102.529C446.462 103.637 447.46 104.504 448.65 105C448.115 105.958 447.823 107.033 447.799 108.131C447.775 109.229 448.021 110.315 448.514 111.296C449.007 112.277 449.733 113.122 450.629 113.757C451.524 114.392 452.561 114.798 453.65 114.94C453.476 116.123 453.653 117.332 454.158 118.416C454.663 119.5 455.475 120.412 456.493 121.04C457.511 121.667 458.691 121.983 459.887 121.947C461.082 121.912 462.241 121.527 463.22 120.84C463.495 121.986 464.097 123.027 464.952 123.836C465.808 124.646 466.88 125.19 468.039 125.402C469.198 125.614 470.393 125.485 471.48 125.03C472.566 124.575 473.498 123.814 474.16 122.84C476.23 124.95 479.99 124.64 482.16 122.64C484.33 120.64 485.07 117.43 484.74 114.5C486.02 114.887 487.39 114.859 488.652 114.419C489.915 113.978 491.005 113.149 491.767 112.05C492.528 110.95 492.921 109.638 492.889 108.301C492.858 106.964 492.403 105.672 491.59 104.61C492.677 104.498 493.707 104.068 494.552 103.374C495.396 102.681 496.018 101.754 496.34 100.71C496.636 99.6578 496.682 98.5508 496.474 97.4768C496.266 96.4038 495.809 95.3948 495.14 94.5298C493.77 92.8088 491.836 91.6258 489.68 91.1898C489.508 90.2028 489.13 89.2628 488.572 88.4308C488.013 87.5978 487.287 86.8928 486.438 86.3588C485.59 85.8258 484.639 85.4758 483.647 85.3328C482.655 85.1908 481.644 85.2578 480.68 85.5298" fill="#263238"/>
<path d="M472.12 226.76L469.65 305.8H465.89L466.62 226.97L472.12 226.76Z" fill="#455A64"/>
<path d="M485.7 225.81L504.26 309.23L508.29 309.04L492.96 225.81H485.7Z" fill="#455A64"/>
<path d="M451.41 226.76L429.78 309.23L425.01 309.04L445.35 226.41L451.41 226.76Z" fill="#455A64"/>
<path d="M504.05 145C504.05 145 524.25 143.85 522.23 167.22C520.21 190.59 519.05 214.22 511.55 222.33C504.05 230.44 428.46 230.69 422.11 224.06C415.76 217.43 434.23 217.71 437.69 217.71C441.15 217.71 462.5 219.71 469.43 201.55C476.36 183.39 474.62 143.82 504.05 145Z" fill="#455A64"/>
<path d="M505.34 145C505.34 145 520.78 148.16 519.34 164.32C517.9 180.48 513.86 208.75 506.34 215.97C498.82 223.19 469.44 224.75 453.54 223.76C435.07 222.6 423.41 219.09 423.41 219.09C423.41 219.09 420.04 221.26 421.07 222.65C422.1 224.04 431.07 229.65 474.74 228.73C518.41 227.81 515.35 221.35 517.16 214.32C518.97 207.29 522.77 169.78 522.24 161.53C521.71 153.28 517.58 146.43 505.34 145Z" fill="#455A64"/>
<path d="M412.35 304.22L412.3 295L429.52 294.79L429.74 308.24L428.67 308.32C423.93 308.64 404.5 309.62 401.31 308.7C397.76 307.69 412.35 304.22 412.35 304.22Z" fill="#407BFF"/>
<g opacity="0.4">
<path d="M423.5 308.21C423.738 306.754 424.503 305.437 425.65 304.51C426.773 303.59 428.201 303.126 429.65 303.21L429.71 308.02L423.5 308.21Z" fill="black"/>
</g>
<path opacity="0.4" d="M405.22 306.17C405.22 306.17 400.11 307.71 400.76 308.55C401.41 309.39 421.08 309.14 429.76 308.27V307.88L406.82 308.37C406.82 308.37 406.23 306.2 405.22 306.17Z" fill="black"/>
<path d="M430 307.87H429.7L428.85 307.93L425.73 308.1C423.08 308.23 419.43 308.36 415.39 308.42C411.35 308.48 407.7 308.42 405.05 308.42L401.92 308.33H401.07H400.77H401.92H405.06C407.7 308.33 411.35 308.33 415.39 308.33C419.43 308.33 423.08 308.17 425.72 308.08L428.85 307.97H429.7L430 307.87Z" fill="#263238"/>
<path d="M406.78 308.64C406.639 308.122 406.438 307.621 406.18 307.15C405.862 306.729 405.5 306.344 405.1 306C405.62 306.219 406.06 306.593 406.361 307.07C406.661 307.548 406.808 308.106 406.78 308.67V308.64Z" fill="#263238"/>
<path d="M411.83 306C411.78 306 411.54 305.74 411.28 305.34C411.095 305.117 410.965 304.853 410.9 304.57C410.95 304.57 411.2 304.84 411.46 305.23C411.72 305.62 411.88 306 411.83 306Z" fill="#263238"/>
<path d="M413.22 305.24C413.22 305.24 412.9 305.11 412.6 304.84C412.3 304.57 412.09 304.33 412.13 304.29C412.17 304.25 412.44 304.42 412.74 304.69C413.04 304.96 413.25 305.2 413.22 305.24Z" fill="#263238"/>
<path d="M414.08 303.6C413.795 303.714 413.486 303.759 413.18 303.73C412.878 303.772 412.57 303.745 412.28 303.65C412.565 303.536 412.874 303.491 413.18 303.52C413.482 303.485 413.789 303.513 414.08 303.6Z" fill="#263238"/>
<path d="M414.37 302.45C414.079 302.658 413.728 302.767 413.37 302.76C413.031 302.819 412.683 302.774 412.37 302.63C412.7 302.573 413.035 302.547 413.37 302.55C413.7 302.49 414.035 302.456 414.37 302.45Z" fill="#263238"/>
<path d="M411.23 304.5C410.862 304.561 410.487 304.561 410.12 304.5C409.719 304.455 409.324 304.371 408.94 304.25C408.702 304.192 408.473 304.101 408.26 303.98C408.128 303.905 408.028 303.784 407.98 303.64C407.964 303.558 407.971 303.473 408.001 303.395C408.031 303.317 408.083 303.25 408.15 303.2C408.567 302.983 409.048 302.921 409.507 303.023C409.966 303.126 410.374 303.386 410.66 303.76C410.837 303.976 410.963 304.229 411.03 304.5C411.052 304.595 411.052 304.695 411.03 304.79C410.91 304.453 410.735 304.138 410.51 303.86C410.258 303.57 409.929 303.358 409.56 303.25C409.343 303.181 409.115 303.155 408.889 303.174C408.663 303.193 408.442 303.256 408.24 303.36C408.06 303.49 408.14 303.7 408.33 303.81C408.529 303.921 408.74 304.008 408.96 304.07C409.331 304.195 409.713 304.289 410.1 304.35C410.81 304.47 411.23 304.47 411.23 304.5Z" fill="#263238"/>
<path d="M410.94 304.56C410.807 304.327 410.761 304.054 410.81 303.79C410.836 303.5 410.936 303.221 411.1 302.98C411.191 302.814 411.321 302.674 411.481 302.573C411.64 302.472 411.822 302.412 412.01 302.4C412.124 302.422 412.224 302.488 412.29 302.583C412.355 302.679 412.381 302.796 412.36 302.91C412.337 303.088 412.275 303.258 412.18 303.41C412.037 303.655 411.863 303.881 411.66 304.08C411.495 304.282 411.282 304.441 411.04 304.54C411.04 304.54 411.25 304.34 411.55 303.99C411.725 303.782 411.879 303.558 412.01 303.32C412.16 303.08 412.26 302.66 412.01 302.61C411.76 302.56 411.45 302.87 411.29 303.09C411.132 303.303 411.026 303.549 410.98 303.81C410.945 304.058 410.932 304.309 410.94 304.56Z" fill="#263238"/>
<path d="M429.57 303.16C429.57 303.16 429.07 303.16 428.3 303.22C427.29 303.356 426.336 303.763 425.54 304.4C424.753 305.053 424.161 305.912 423.83 306.88C423.58 307.62 423.56 308.11 423.52 308.11C423.499 307.994 423.499 307.876 423.52 307.76C423.542 307.444 423.599 307.133 423.69 306.83C423.985 305.813 424.581 304.91 425.401 304.24C426.221 303.57 427.225 303.166 428.28 303.08C428.612 303.039 428.948 303.039 429.28 303.08C429.379 303.095 429.477 303.122 429.57 303.16Z" fill="#263238"/>
<path d="M427.69 296C427.897 298.351 427.957 300.712 427.87 303.07C427.677 300.719 427.617 298.358 427.69 296Z" fill="#263238"/>
<path d="M421.31 306.56C419.663 306.892 417.97 306.929 416.31 306.67C416.31 306.61 417.44 306.67 418.83 306.67C420.22 306.67 421.3 306.5 421.31 306.56Z" fill="#263238"/>
<path d="M424.68 306.51C424.68 306.51 424.59 306.75 424.48 307.01C424.37 307.27 424.31 307.5 424.25 307.5C424.19 307.5 424.16 307.22 424.25 306.93C424.34 306.64 424.64 306.47 424.68 306.51Z" fill="#263238"/>
<path d="M425.93 304.91C425.98 304.91 425.87 305.13 425.69 305.31C425.51 305.49 425.34 305.61 425.3 305.57C425.26 305.53 425.36 305.35 425.54 305.17C425.72 304.99 425.89 304.87 425.93 304.91Z" fill="#263238"/>
<path d="M427.75 304.16C427.75 304.22 427.5 304.22 427.25 304.32C427 304.42 426.82 304.55 426.78 304.51C426.74 304.47 426.87 304.23 427.18 304.12C427.49 304.01 427.76 304.11 427.75 304.16Z" fill="#263238"/>
<path d="M429 303.81C429 303.86 428.92 303.95 428.78 304.01C428.64 304.07 428.5 304.07 428.48 304.01C428.46 303.95 428.56 303.87 428.7 303.81C428.84 303.75 429 303.75 429 303.81Z" fill="#263238"/>
<path d="M451.49 304.22L451.43 295.03L468.66 294.82L468.88 308.27L467.81 308.35C463.06 308.67 443.64 309.65 440.45 308.73C436.89 307.69 451.49 304.22 451.49 304.22Z" fill="#407BFF"/>
<g opacity="0.4">
<path d="M462.63 308.21C462.868 306.754 463.633 305.437 464.78 304.51C465.904 303.592 467.331 303.128 468.78 303.21L468.85 308.02L462.63 308.21Z" fill="black"/>
</g>
<path opacity="0.4" d="M444.36 306.17C444.36 306.17 439.25 307.71 439.9 308.55C440.55 309.39 460.21 309.14 468.9 308.27V307.88L445.97 308.37C445.97 308.37 445.36 306.2 444.36 306.17Z" fill="black"/>
<path d="M469.11 307.87H468.82L468 308L464.87 308.17C462.23 308.3 458.57 308.43 454.54 308.49C450.51 308.55 446.84 308.49 444.2 308.49L441.07 308.4H440.21H439.92H441H444.13C446.77 308.4 450.43 308.4 454.46 308.4C458.49 308.4 462.15 308.24 464.79 308.15L467.92 308.04H468.78L469.11 307.87Z" fill="#263238"/>
<path d="M445.92 308.64C445.773 308.122 445.568 307.623 445.31 307.15C444.997 306.717 444.634 306.321 444.23 305.97C444.768 306.158 445.217 306.54 445.49 307.04C445.82 307.505 445.973 308.073 445.92 308.64Z" fill="#263238"/>
<path d="M451 306C450.95 306 450.7 305.74 450.44 305.34C450.18 304.94 450.02 304.61 450.07 304.57C450.12 304.53 450.36 304.84 450.62 305.23C450.803 305.454 450.933 305.718 451 306Z" fill="#263238"/>
<path d="M452.35 305.24C452.35 305.24 452.04 305.11 451.74 304.84C451.44 304.57 451.23 304.33 451.26 304.29C451.29 304.25 451.58 304.42 451.88 304.69C452.18 304.96 452.39 305.2 452.35 305.24Z" fill="#263238"/>
<path d="M453.21 303.6C452.928 303.713 452.623 303.758 452.32 303.73C452.014 303.771 451.704 303.744 451.41 303.65C451.695 303.536 452.004 303.491 452.31 303.52C452.612 303.484 452.919 303.512 453.21 303.6Z" fill="#263238"/>
<path d="M453.5 302.45C453.209 302.658 452.858 302.767 452.5 302.76C452.161 302.818 451.813 302.772 451.5 302.63C451.83 302.574 452.165 302.547 452.5 302.55C452.83 302.49 453.165 302.457 453.5 302.45Z" fill="#263238"/>
<path d="M450.36 304.5C449.996 304.561 449.624 304.561 449.26 304.5C448.856 304.456 448.458 304.372 448.07 304.25C447.835 304.191 447.61 304.101 447.4 303.98C447.333 303.945 447.274 303.896 447.226 303.838C447.178 303.78 447.142 303.712 447.12 303.64C447.101 303.559 447.106 303.474 447.135 303.396C447.163 303.318 447.214 303.25 447.28 303.2C447.55 303.055 447.849 302.975 448.155 302.964C448.461 302.954 448.766 303.013 449.045 303.139C449.324 303.265 449.571 303.453 449.766 303.689C449.961 303.924 450.099 304.202 450.17 304.5C450.19 304.596 450.19 304.694 450.17 304.79C450.05 304.453 449.875 304.138 449.65 303.86C449.401 303.567 449.07 303.355 448.7 303.25C448.484 303.181 448.256 303.155 448.029 303.174C447.803 303.192 447.582 303.256 447.38 303.36C447.21 303.49 447.28 303.7 447.48 303.81C447.676 303.921 447.884 304.008 448.1 304.07C448.475 304.196 448.859 304.29 449.25 304.35C449.94 304.47 450.36 304.47 450.36 304.5Z" fill="#263238"/>
<path d="M450.08 304.56C450.006 304.448 449.956 304.321 449.932 304.189C449.907 304.057 449.91 303.921 449.94 303.79C449.97 303.501 450.07 303.223 450.23 302.98C450.321 302.813 450.454 302.672 450.615 302.571C450.776 302.469 450.96 302.41 451.15 302.4C451.262 302.424 451.36 302.491 451.423 302.586C451.487 302.681 451.511 302.797 451.49 302.91C451.471 303.089 451.41 303.26 451.31 303.41C451.171 303.655 450.999 303.88 450.8 304.08C450.63 304.282 450.414 304.44 450.17 304.54C450.17 304.54 450.39 304.34 450.69 303.99C450.862 303.782 451.012 303.558 451.14 303.32C451.29 303.08 451.39 302.66 451.14 302.61C450.89 302.56 450.59 302.87 450.42 303.09C450.269 303.305 450.167 303.551 450.12 303.81C450.079 304.058 450.066 304.309 450.08 304.56Z" fill="#263238"/>
<path d="M468.7 303.16C468.7 303.16 468.21 303.16 467.43 303.22C466.42 303.356 465.466 303.764 464.67 304.4C463.885 305.054 463.297 305.912 462.97 306.88C462.71 307.62 462.69 308.11 462.65 308.11C462.629 307.994 462.629 307.876 462.65 307.76C462.672 307.444 462.732 307.131 462.83 306.83C463.128 305.815 463.723 304.912 464.54 304.24C465.364 303.577 466.366 303.173 467.42 303.08C467.732 303.043 468.048 303.043 468.36 303.08C468.476 303.091 468.591 303.118 468.7 303.16Z" fill="#263238"/>
<path d="M466.83 296C467.023 298.351 467.083 300.712 467.01 303.07C466.803 300.719 466.743 298.358 466.83 296Z" fill="#263238"/>
<path d="M460.44 306.56C458.793 306.893 457.1 306.93 455.44 306.67C455.44 306.61 456.57 306.67 457.96 306.67C459.35 306.67 460.43 306.5 460.44 306.56Z" fill="#263238"/>
<path d="M463.82 306.51C463.82 306.51 463.73 306.75 463.62 307.01C463.51 307.27 463.44 307.5 463.39 307.5C463.34 307.5 463.29 307.22 463.39 306.93C463.49 306.64 463.78 306.47 463.82 306.51Z" fill="#263238"/>
<path d="M465.07 304.91C465.07 304.91 465 305.13 464.83 305.31C464.66 305.49 464.47 305.61 464.43 305.57C464.39 305.53 464.5 305.35 464.67 305.17C464.84 304.99 465 304.87 465.07 304.91Z" fill="#263238"/>
<path d="M466.88 304.16C466.88 304.22 466.64 304.22 466.39 304.32C466.14 304.42 465.96 304.55 465.91 304.51C465.86 304.47 466 304.23 466.32 304.12C466.64 304.01 466.9 304.11 466.88 304.16Z" fill="#263238"/>
<path d="M468.17 303.81C468.17 303.86 468.09 303.95 467.95 304.01C467.81 304.07 467.68 304.07 467.66 304.01C467.64 303.95 467.73 303.87 467.87 303.81C468.01 303.75 468.15 303.75 468.17 303.81Z" fill="#263238"/>
<path d="M418.15 115.07C416.95 127.07 413.78 163.47 430.41 162.2C450.04 160.71 454.56 145.2 454.56 145.2L450.74 131.2C450.74 131.2 431.37 148.09 430.87 146C428.15 134.85 428.87 119.56 429.31 114.11" fill="#E7AF93"/>
<path d="M505 158L501.64 141.16C499.17 127.37 479.84 126.42 479.84 126.42L464.67 126.17C464.67 126.17 454.56 125.85 446.48 132.49C438.4 139.13 433 144.21 433 144.21L445.7 158.89L453.21 153.89C453.21 153.89 450.51 158.77 450.96 162.89C451.38 166.89 455.58 169.96 455.58 169.96L456.58 195.76L501.58 196.25L495.55 158H505Z" fill="#407BFF"/>
<path d="M483.81 140.12C483.933 140.467 484.02 140.825 484.07 141.19L484.66 144.19C485.16 146.81 485.82 150.19 486.55 153.94C487.28 157.69 487.89 161.22 488.29 163.73C488.49 164.99 488.63 166.01 488.71 166.73C488.776 167.096 488.799 167.469 488.78 167.84C488.645 167.493 488.554 167.13 488.51 166.76L487.93 163.81C487.42 161.19 486.76 157.81 486.04 154.05C485.32 150.29 484.69 146.78 484.29 144.26C484.1 143 483.95 141.98 483.87 141.26C483.8 140.884 483.78 140.501 483.81 140.12Z" fill="#263238"/>
<path d="M505.32 158.16C502.278 158.438 499.223 158.538 496.17 158.46C493.115 158.55 490.057 158.473 487.01 158.23C490.052 157.952 493.107 157.852 496.16 157.93C499.215 157.839 502.273 157.916 505.32 158.16Z" fill="#263238"/>
<path d="M445.67 158.89C443.442 156.57 441.339 154.133 439.37 151.59C437.269 149.157 435.3 146.613 433.47 143.97C435.699 146.286 437.802 148.719 439.77 151.26C441.872 153.696 443.842 156.243 445.67 158.89Z" fill="#263238"/>
<path d="M451 158.27C451.219 157.573 451.514 156.902 451.88 156.27L452.95 154.13C453.497 153.374 453.762 152.451 453.7 151.52C453.33 149.52 452.98 147.62 452.77 146.28C452.6 145.556 452.516 144.814 452.52 144.07C452.806 144.757 453.01 145.475 453.13 146.21C453.43 147.55 453.84 149.37 454.22 151.45C454.324 151.993 454.258 152.556 454.03 153.06C453.838 153.502 453.621 153.932 453.38 154.35L452.2 156.45C451.874 157.102 451.471 157.713 451 158.27Z" fill="#263238"/>
<path opacity="0.2" d="M456.45 192.49L455.8 182.89H499.17L500.82 191.22L456.45 192.49Z" fill="black"/>
<path opacity="0.2" d="M484.22 141.64C484.42 147.513 484.613 153.383 484.8 159.25C485.028 161.139 484.763 163.055 484.03 164.81C482.52 167.68 478.95 168.62 475.78 169.27L456.45 173.27L492.26 171.52L484.22 141.64Z" fill="black"/>
<path d="M507.07 171.5C506.07 163.41 505.01 158.19 505.01 158.19L487.39 158.46C487.39 158.46 488.97 167.36 488.49 169.74C488.06 171.81 454.07 173.18 445.22 173.32C444.69 172.93 443.92 173.59 443.22 173C442.618 172.469 442.111 171.84 441.72 171.14C441.189 170.283 440.779 169.358 440.5 168.39C440.486 168.197 440.411 168.014 440.285 167.868C440.159 167.722 439.989 167.62 439.801 167.577C439.613 167.534 439.416 167.554 439.239 167.631C439.062 167.709 438.915 167.842 438.82 168.01C438.47 168.77 438.87 171.29 440.55 173.73C442.23 176.17 437.82 174.9 436.21 174.47C434.6 174.04 429.53 172.94 429.01 173.35C428.24 173.94 428.72 174.89 430.35 175.29C431.98 175.69 436.76 177.21 436.5 178.07C436.24 178.93 428.04 176.61 428.04 176.61C428.04 176.61 426.37 175.82 426.04 176.81C425.44 178.59 434.32 180.4 435.18 180.55C435.77 180.65 435.51 181.6 434.89 181.46C434.27 181.32 426.76 178.95 426.13 180.76C425.64 182.15 433.43 182.31 434.72 183.69C436.01 185.07 428.83 182.94 428.41 184.29C428.26 184.79 431.25 185.02 435.54 185.63C439.95 186.051 444.381 186.208 448.81 186.1C458.81 186.64 493.96 187.37 501.47 186.84C510.24 186.22 507.41 174.28 507.07 171.5Z" fill="#E7AF93"/>
<path d="M506.83 148.89H507.09C507.27 148.89 507.53 148.97 507.86 149.06C508.827 149.369 509.751 149.799 510.61 150.34C511.964 151.194 513.23 152.178 514.39 153.28C515.07 153.92 515.77 154.63 516.47 155.43C517.219 156.266 517.888 157.17 518.47 158.13C518.631 158.396 518.765 158.678 518.87 158.97C518.94 159.26 519.01 159.56 519.09 159.86C519.23 160.46 519.4 161.06 519.53 161.69C519.77 162.95 520.02 164.26 520.18 165.64C520.538 168.562 520.656 171.509 520.53 174.45C520.142 181.181 519.011 187.848 517.16 194.33C516.325 197.73 515.266 201.07 513.99 204.33C512.765 207.363 511.13 210.213 509.13 212.8C508.201 214.009 507.149 215.119 505.99 216.11C504.85 216.996 503.612 217.748 502.3 218.35C499.942 219.368 497.504 220.187 495.01 220.8C490.46 221.96 486.74 222.68 484.18 223.23L481.18 223.85L480.41 224H480.14L480.4 223.91L481.15 223.71C481.82 223.54 482.81 223.29 484.09 222.99C486.63 222.38 490.35 221.61 494.87 220.41C497.332 219.772 499.74 218.94 502.07 217.92C503.34 217.32 504.541 216.582 505.65 215.72C506.777 214.739 507.802 213.647 508.71 212.46C510.666 209.901 512.267 207.089 513.47 204.1C514.731 200.869 515.776 197.559 516.6 194.19C518.448 187.743 519.588 181.114 520 174.42C520.136 171.503 520.036 168.581 519.7 165.68C519.55 164.32 519.32 163.01 519.08 161.76C518.96 161.14 518.8 160.54 518.66 159.94L518.45 159.06C518.365 158.794 518.247 158.538 518.1 158.3C517.513 157.356 516.844 156.466 516.1 155.64C515.42 154.84 514.73 154.12 514.1 153.48C512.964 152.37 511.729 151.365 510.41 150.48C509.576 149.927 508.68 149.474 507.74 149.13C507.432 149.067 507.129 148.987 506.83 148.89Z" fill="#263238"/>
<path d="M428.65 117C428.65 117 428.92 115.71 429.37 112L433.5 103.93C433.5 103.93 432.58 102.24 430.5 105.82C430.287 106.307 429.888 106.688 429.393 106.882C428.898 107.075 428.347 107.063 427.86 106.85C427.373 106.636 426.991 106.238 426.798 105.743C426.605 105.248 426.617 104.697 426.83 104.21C426.962 103.584 427.274 103.01 427.728 102.559C428.183 102.108 428.759 101.799 429.386 101.672C430.013 101.544 430.664 101.603 431.258 101.841C431.852 102.078 432.364 102.485 432.73 103.01C432.73 103.01 434.05 103.14 434.2 102.12C434.35 101.1 431.37 98.5399 428.84 99.2799C427.806 99.6079 426.852 100.149 426.04 100.87C426.04 100.87 426.59 92.3799 425.9 92.2999C425.21 92.2199 424.25 92.7499 423.73 102.05C423.73 102.05 423.44 94.7099 423.3 93.7699C423.16 92.8299 421.89 92.1999 421.73 94.5499C421.73 94.8199 421.25 102.03 421.25 102.03C421.25 102.03 420.43 97.2599 420.34 96.8799C420.1 95.8799 419.11 95.9799 419.02 97.3099C418.94 98.3099 418.62 102.64 418.62 102.64L418 115.94H417.92" fill="#E7AF93"/>
<path d="M463.39 130.58C463.29 126.24 463.12 121.7 463.12 121.7C463.12 121.7 456.72 120.9 456.44 114.36C456.16 107.82 456.82 92.7699 456.82 92.7699L468.6 87.1099L478.89 98.8399L479.04 130.36C479.045 131.391 478.847 132.414 478.456 133.369C478.064 134.323 477.489 135.191 476.761 135.922C476.033 136.654 475.168 137.234 474.216 137.63C473.263 138.026 472.242 138.23 471.21 138.23C469.165 138.23 467.201 137.43 465.74 136C464.278 134.57 463.435 132.624 463.39 130.58Z" fill="#E7AF93"/>
<path d="M458.47 103.77C458.47 103.932 458.518 104.09 458.608 104.225C458.697 104.359 458.825 104.464 458.974 104.527C459.123 104.589 459.288 104.606 459.446 104.575C459.605 104.544 459.751 104.467 459.866 104.353C459.981 104.24 460.06 104.095 460.093 103.936C460.126 103.778 460.111 103.613 460.05 103.463C459.99 103.313 459.886 103.185 459.753 103.093C459.619 103.002 459.462 102.952 459.3 102.95C459.082 102.95 458.872 103.036 458.717 103.19C458.561 103.343 458.473 103.552 458.47 103.77Z" fill="#263238"/>
<path d="M457.13 102.85C457.23 102.96 457.84 102.44 458.72 102.41C459.6 102.38 460.25 102.82 460.34 102.7C460.43 102.58 460.28 102.45 460 102.24C459.62 101.975 459.163 101.841 458.7 101.86C458.233 101.88 457.785 102.056 457.43 102.36C457.17 102.59 457.08 102.8 457.13 102.85Z" fill="#263238"/>
<path d="M468 103.77C468 103.932 468.048 104.09 468.138 104.225C468.227 104.359 468.355 104.464 468.504 104.527C468.653 104.589 468.818 104.606 468.976 104.575C469.135 104.544 469.281 104.467 469.396 104.353C469.511 104.24 469.59 104.095 469.623 103.936C469.656 103.778 469.641 103.613 469.58 103.463C469.52 103.313 469.416 103.185 469.283 103.093C469.149 103.002 468.992 102.952 468.83 102.95C468.612 102.95 468.402 103.036 468.247 103.19C468.091 103.343 468.003 103.552 468 103.77Z" fill="#263238"/>
<path d="M466.85 103C466.95 103.1 467.56 102.59 468.44 102.56C469.32 102.53 469.97 102.97 470.06 102.85C470.15 102.73 470 102.6 469.72 102.39C469.34 102.125 468.883 101.991 468.42 102.01C467.955 102.032 467.509 102.203 467.15 102.5C466.89 102.76 466.8 103 466.85 103Z" fill="#263238"/>
<path d="M463.55 110.56C463.085 110.426 462.604 110.352 462.12 110.34C461.9 110.34 461.69 110.29 461.64 110.12C461.623 109.875 461.671 109.63 461.78 109.41C461.99 108.82 462.2 108.2 462.42 107.55C463.013 105.975 463.484 104.357 463.83 102.71C463.124 104.237 462.532 105.815 462.06 107.43C461.85 108.08 461.65 108.7 461.45 109.29C461.303 109.602 461.267 109.955 461.35 110.29C461.383 110.371 461.435 110.443 461.501 110.5C461.567 110.557 461.645 110.598 461.73 110.62C461.854 110.654 461.982 110.671 462.11 110.67C462.593 110.695 463.077 110.658 463.55 110.56Z" fill="#263238"/>
<path d="M463.12 121.7C466.157 121.625 469.105 120.662 471.6 118.93C471.6 118.93 469.6 123.69 463.23 123.31L463.12 121.7Z" fill="#CC8E6D"/>
<path d="M463.87 112.86C463.923 112.586 464.041 112.329 464.216 112.112C464.39 111.894 464.614 111.722 464.87 111.61C465.049 111.528 465.243 111.486 465.44 111.486C465.637 111.486 465.831 111.528 466.01 111.61C466.187 111.705 466.332 111.851 466.424 112.03C466.517 112.208 466.554 112.41 466.53 112.61C466.479 112.825 466.365 113.019 466.203 113.169C466.041 113.318 465.838 113.416 465.62 113.45C465.186 113.519 464.742 113.492 464.32 113.37C464.2 113.348 464.084 113.304 463.98 113.24C463.928 113.209 463.887 113.162 463.862 113.107C463.837 113.051 463.829 112.99 463.84 112.93" fill="#CC8E6D"/>
<path d="M466 110.52C466.07 110.52 466.18 110.76 466.15 111.19C466.101 111.758 465.845 112.288 465.43 112.679C465.015 113.07 464.47 113.295 463.9 113.31C463.47 113.31 463.23 113.19 463.24 113.13C463.25 113.07 464.24 113.06 465.07 112.3C465.9 111.54 465.9 110.52 466 110.52Z" fill="#263238"/>
<path d="M447.22 141.47C447.34 140.531 447.624 139.62 448.06 138.78C448.345 137.874 448.792 137.026 449.38 136.28C449.265 137.223 448.98 138.138 448.54 138.98C448.263 139.886 447.815 140.731 447.22 141.47Z" fill="#263238"/>
<path d="M462.16 143.65C460.114 142.976 458.317 141.705 457 140C458.768 141.166 460.502 142.384 462.2 143.65H462.16Z" fill="#263238"/>
<path d="M460.3 130.74C458.931 131.579 457.395 132.108 455.8 132.29C456.444 131.807 457.184 131.466 457.97 131.29C458.698 130.94 459.493 130.752 460.3 130.74Z" fill="#263238"/>
<path d="M459.3 157C460.336 154.914 461.685 152.998 463.3 151.32C462.846 152.401 462.24 153.411 461.5 154.32C460.899 155.314 460.158 156.216 459.3 157Z" fill="#263238"/>
<path d="M460.15 167.75C459.102 167.177 458.142 166.457 457.3 165.61C456.35 164.888 455.505 164.036 454.79 163.08C456.794 164.368 458.599 165.942 460.15 167.75Z" fill="#263238"/>
<path d="M467.7 166.74C467.323 165.675 467.019 164.586 466.79 163.48C466.387 162.419 466.053 161.334 465.79 160.23C466.523 161.133 467.027 162.2 467.26 163.34C467.666 164.424 467.817 165.588 467.7 166.74Z" fill="#263238"/>
<path d="M481.56 166.92C479.722 167.847 477.741 168.459 475.7 168.73C477.533 167.791 479.516 167.178 481.56 166.92Z" fill="#263238"/>
<path d="M482.22 155.86C480.331 157.272 478.246 158.401 476.03 159.21C477.913 157.788 480 156.658 482.22 155.86Z" fill="#263238"/>
<path d="M474.92 151.49C473.427 149.966 472.191 148.21 471.26 146.29C472.753 147.814 473.989 149.57 474.92 151.49Z" fill="#263238"/>
<path d="M480.38 139.81C480.38 139.81 480.25 139.81 480.09 139.7L480.26 139.63C480.237 140.665 480.102 141.694 479.86 142.7C479.69 143.829 479.306 144.915 478.73 145.9C478.813 144.777 479.021 143.667 479.35 142.59C479.65 141.25 479.89 140.1 480.06 139.59L480.12 139.39L480.23 139.53C480.35 139.69 480.4 139.79 480.38 139.81Z" fill="#263238"/>
<path d="M492.26 132C489.871 131.863 487.514 131.385 485.26 130.58C486.459 130.559 487.654 130.71 488.81 131.03C489.999 131.192 491.161 131.518 492.26 132Z" fill="#263238"/>
<path d="M489.42 143.33C489.269 142.431 489.292 141.51 489.49 140.62C489.522 139.711 489.722 138.816 490.08 137.98C490.232 138.879 490.208 139.8 490.01 140.69C489.978 141.599 489.778 142.494 489.42 143.33Z" fill="#263238"/>
<path d="M495.73 146.66C495.791 145.835 496.023 145.031 496.41 144.3C496.648 143.51 497.043 142.775 497.57 142.14C497.508 142.965 497.277 143.769 496.89 144.5C496.656 145.292 496.261 146.028 495.73 146.66Z" fill="#263238"/>
<path d="M495.78 153C494.638 152.485 493.574 151.812 492.62 151C491.557 150.348 490.594 149.546 489.76 148.62C490.902 149.135 491.966 149.808 492.92 150.62C493.978 151.278 494.941 152.079 495.78 153Z" fill="#263238"/>
<path d="M465.48 193.2C464.576 192.899 463.736 192.435 463 191.83C462.163 191.366 461.417 190.752 460.8 190.02C461.703 190.333 462.546 190.8 463.29 191.4C464.121 191.865 464.863 192.474 465.48 193.2Z" fill="#263238"/>
<path d="M476.9 189.18C476.349 190.274 475.645 191.284 474.81 192.18C474.112 193.179 473.273 194.071 472.32 194.83C472.871 193.736 473.575 192.726 474.41 191.83C475.108 190.831 475.947 189.939 476.9 189.18Z" fill="#263238"/>
<path d="M488.76 194.68C488.928 193.802 489.268 192.966 489.76 192.22C490.109 191.394 490.615 190.643 491.25 190.01C490.725 191.717 489.869 193.304 488.73 194.68H488.76Z" fill="#263238"/>
<path d="M485.59 195.33C484.928 194.704 484.392 193.957 484.01 193.13C483.487 192.386 483.104 191.552 482.88 190.67C483.546 191.292 484.083 192.04 484.46 192.87C484.991 193.61 485.375 194.445 485.59 195.33Z" fill="#263238"/>
<path d="M456.36 91.2302C455.768 91.5682 455.267 92.0461 454.902 92.6221C454.536 93.1981 454.318 93.8551 454.265 94.5361C454.212 95.2161 454.326 95.8982 454.597 96.5242C454.869 97.1502 455.29 97.7002 455.823 98.1262C456.356 98.5522 456.985 98.8411 457.655 98.9671C458.325 99.0941 459.017 99.0552 459.668 98.8532C460.32 98.6512 460.912 98.2932 461.394 97.8102C461.875 97.3262 462.231 96.7322 462.43 96.0802C462.094 96.7692 461.992 97.5501 462.14 98.3031C462.288 99.0551 462.678 99.7392 463.25 100.25C463.841 100.737 464.555 101.053 465.313 101.162C466.072 101.272 466.845 101.171 467.55 100.87C468.25 100.556 468.871 100.089 469.367 99.5052C469.864 98.9202 470.224 98.2312 470.42 97.4902C470.431 98.2162 470.611 98.9302 470.944 99.5762C471.278 100.222 471.757 100.781 472.343 101.21C472.929 101.639 473.607 101.927 474.323 102.05C475.039 102.173 475.774 102.129 476.47 101.92C475.757 102.369 475.184 103.008 474.815 103.766C474.446 104.524 474.296 105.369 474.383 106.208C474.469 107.046 474.788 107.843 475.303 108.51C475.819 109.176 476.51 109.686 477.3 109.98C476.447 110.515 475.819 111.343 475.534 112.308C475.249 113.273 475.326 114.309 475.751 115.222C476.176 116.134 476.919 116.86 477.842 117.263C478.764 117.666 479.802 117.718 480.76 117.41C482.76 116.79 483.95 114.81 484.76 112.88C486.901 107.626 486.88 101.738 484.7 96.5002C483.576 93.9242 481.878 91.6392 479.736 89.8192C477.593 87.9992 475.064 86.6932 472.34 86.0002C469.613 85.3512 466.763 85.4252 464.073 86.2142C461.383 87.0032 458.945 88.4812 457 90.5002" fill="#263238"/>
<path d="M489.56 91.83C489.56 91.83 489.56 91.9 489.61 92.05C489.636 92.262 489.636 92.477 489.61 92.69C489.504 93.495 489.155 94.248 488.61 94.85C488.184 95.327 487.641 95.686 487.034 95.889C486.427 96.092 485.778 96.134 485.15 96.01C484.339 95.835 483.6 95.42 483.029 94.819C482.459 94.218 482.082 93.458 481.95 92.64H482.43C482.321 93.309 482.069 93.946 481.691 94.509C481.313 95.072 480.818 95.546 480.24 95.9C479.62 96.301 478.909 96.537 478.172 96.588C477.436 96.639 476.699 96.502 476.03 96.19C475.395 95.902 474.831 95.48 474.376 94.951C473.922 94.422 473.589 93.801 473.4 93.13C473.292 92.802 473.252 92.455 473.283 92.111C473.314 91.767 473.415 91.433 473.58 91.13C473.775 90.824 474.073 90.597 474.42 90.49C474.598 90.435 474.787 90.422 474.971 90.453C475.156 90.485 475.33 90.559 475.48 90.67C475.735 90.891 475.911 91.19 475.979 91.521C476.048 91.851 476.006 92.195 475.86 92.5C475.605 93.023 475.21 93.466 474.72 93.78C473.876 94.351 472.867 94.626 471.85 94.56C471.019 94.51 470.222 94.214 469.56 93.71C469.065 93.342 468.655 92.871 468.36 92.33C468.163 91.995 468.021 91.63 467.94 91.25C467.918 91.121 467.918 90.989 467.94 90.86C468.11 91.334 468.321 91.792 468.57 92.23C468.922 92.81 469.41 93.295 469.992 93.644C470.574 93.992 471.233 94.193 471.91 94.23C472.838 94.265 473.751 93.994 474.51 93.46C474.937 93.191 475.283 92.811 475.51 92.36C475.613 92.15 475.644 91.912 475.599 91.683C475.554 91.453 475.435 91.245 475.26 91.09C475.159 91.034 475.048 90.998 474.933 90.986C474.819 90.973 474.702 90.983 474.592 91.016C474.481 91.048 474.378 91.102 474.288 91.175C474.199 91.248 474.124 91.338 474.07 91.44C473.946 91.688 473.873 91.958 473.856 92.235C473.839 92.511 473.877 92.789 473.97 93.05C474.139 93.646 474.437 94.198 474.843 94.666C475.25 95.135 475.754 95.508 476.32 95.76C476.91 96.037 477.56 96.161 478.211 96.119C478.861 96.077 479.491 95.871 480.04 95.52C480.559 95.205 481.006 94.784 481.351 94.284C481.695 93.784 481.93 93.217 482.04 92.62L482.29 90.93L482.51 92.63C482.632 93.351 482.963 94.02 483.463 94.553C483.963 95.087 484.609 95.461 485.32 95.63C485.888 95.748 486.477 95.717 487.031 95.542C487.584 95.367 488.083 95.053 488.48 94.63C489.029 94.083 489.408 93.388 489.57 92.63C489.56 92.13 489.53 91.83 489.56 91.83Z" fill="#455A64"/>
<path d="M494.83 98.6299C494.882 98.9109 494.857 99.2009 494.76 99.4699C494.556 100.234 494.144 100.926 493.57 101.47C493.148 101.884 492.642 102.203 492.087 102.404C491.531 102.606 490.939 102.687 490.35 102.64C489.626 102.578 488.927 102.344 488.311 101.958C487.696 101.572 487.181 101.045 486.81 100.42C486.721 100.273 486.645 100.119 486.58 99.9599H487.07C486.804 100.664 486.283 101.242 485.61 101.58C485.016 101.903 484.346 102.062 483.67 102.04C482.528 101.988 481.452 101.493 480.67 100.66C480.153 100.14 479.737 99.5299 479.44 98.8599C479.308 98.6289 479.223 98.3739 479.19 98.1099C479.678 98.9359 480.259 99.7039 480.92 100.4C481.652 101.117 482.626 101.535 483.65 101.57C484.258 101.596 484.86 101.44 485.379 101.121C485.898 100.802 486.309 100.335 486.56 99.7799L486.76 99.2199L487.04 99.7699C487.11 99.8999 487.16 100.04 487.24 100.17C487.573 100.721 488.029 101.188 488.572 101.535C489.115 101.881 489.73 102.099 490.37 102.17C490.901 102.213 491.435 102.146 491.939 101.974C492.443 101.802 492.906 101.528 493.3 101.17C493.855 100.691 494.284 100.083 494.55 99.3999C494.63 99.1389 494.724 98.8819 494.83 98.6299Z" fill="#455A64"/>
<path d="M488.24 111C487.952 111.201 487.626 111.339 487.281 111.405C486.936 111.47 486.581 111.462 486.24 111.38C485.48 111.282 484.775 110.929 484.24 110.38C483.583 109.684 483.224 108.758 483.24 107.8L483.63 108.03L483.48 108.1C482.606 108.551 481.588 108.638 480.65 108.34C479.894 108.099 479.242 107.609 478.8 106.95C478.573 106.674 478.409 106.353 478.317 106.008C478.226 105.663 478.21 105.302 478.27 104.95C478.441 105.587 478.722 106.19 479.1 106.73C479.528 107.282 480.12 107.684 480.79 107.88C481.608 108.108 482.482 108.022 483.24 107.64L483.37 107.58L483.76 107.36V107.8C483.758 108.557 484.015 109.292 484.487 109.883C484.96 110.474 485.621 110.886 486.36 111.05C486.985 111.132 487.62 111.116 488.24 111Z" fill="#455A64"/>
<path d="M451.44 95.1599C452.175 95.8249 453.045 96.3229 453.99 96.6199C455.014 96.8989 456.103 96.8249 457.08 96.4099C458.264 95.8839 459.194 94.9149 459.67 93.7099C459.773 93.4299 459.853 93.1429 459.91 92.8499L460.07 92.0699L460.4 92.7899C460.534 93.0199 460.739 93.1999 460.984 93.3049C461.229 93.4089 461.501 93.4319 461.76 93.3699C462.291 93.2389 462.774 92.9579 463.15 92.5599C463.833 91.8769 464.313 91.0189 464.54 90.0799C464.719 89.2039 464.743 88.3039 464.61 87.4199C464.746 87.6319 464.835 87.8709 464.87 88.1199C465.005 88.7799 465.005 89.4599 464.87 90.1199C464.678 91.1469 464.192 92.0949 463.47 92.8499C463.04 93.3399 462.472 93.6889 461.84 93.8499C461.47 93.9359 461.082 93.8979 460.735 93.7429C460.389 93.5879 460.102 93.3229 459.92 92.9899L460.41 92.9199C460.355 93.2619 460.265 93.5969 460.14 93.9199C459.885 94.5869 459.499 95.1969 459.005 95.7119C458.51 96.2279 457.917 96.6379 457.26 96.9199C456.18 97.3479 454.985 97.3869 453.88 97.0299C453.149 96.8049 452.481 96.4109 451.93 95.8799C451.712 95.6819 451.544 95.4349 451.44 95.1599Z" fill="#455A64"/>
<path d="M454.34 103.36C454.4 103.36 454.4 103.84 453.92 104.36C453.591 104.678 453.185 104.906 452.741 105.02C452.297 105.134 451.832 105.13 451.39 105.01C450.543 104.785 449.773 104.336 449.16 103.71C448.69 103.26 448.45 102.94 448.49 102.89C448.53 102.84 448.88 103.06 449.39 103.43C450.022 103.918 450.742 104.281 451.51 104.5C451.878 104.599 452.264 104.612 452.639 104.539C453.013 104.466 453.366 104.309 453.67 104.08C454.13 103.73 454.26 103.34 454.34 103.36Z" fill="#455A64"/>
<path d="M462.42 104.68C462.42 104.68 462.42 104.33 462.2 103.75C461.947 102.946 461.442 102.245 460.76 101.75C460.335 101.43 459.846 101.206 459.326 101.092C458.807 100.978 458.269 100.977 457.749 101.089C457.229 101.201 456.739 101.424 456.312 101.742C455.886 102.06 455.533 102.466 455.277 102.932C455.022 103.399 454.869 103.915 454.83 104.445C454.792 104.976 454.867 105.508 455.053 106.007C455.238 106.506 455.528 106.959 455.904 107.335C456.279 107.712 456.732 108.004 457.23 108.19C457.814 108.402 458.441 108.469 459.056 108.383C459.671 108.298 460.256 108.063 460.76 107.7C461.438 107.202 461.942 106.502 462.2 105.7C462.37 105.11 462.37 104.76 462.42 104.76C462.5 105.088 462.5 105.432 462.42 105.76C462.224 106.65 461.721 107.443 461 108C460.456 108.429 459.812 108.714 459.128 108.827C458.445 108.941 457.744 108.88 457.09 108.65C456.279 108.365 455.577 107.835 455.08 107.134C454.583 106.433 454.317 105.594 454.317 104.735C454.317 103.876 454.583 103.037 455.08 102.336C455.577 101.635 456.279 101.105 457.09 100.82C457.743 100.588 458.444 100.524 459.127 100.636C459.811 100.748 460.455 101.032 461 101.46C461.727 102.031 462.227 102.843 462.41 103.75C462.484 104.055 462.487 104.373 462.42 104.68Z" fill="#455A64"/>
<path d="M473.53 104.68C473.53 104.68 473.53 104.33 473.31 103.75C473.061 102.944 472.556 102.241 471.87 101.75C471.445 101.428 470.955 101.202 470.434 101.086C469.914 100.971 469.374 100.969 468.853 101.081C468.331 101.192 467.84 101.415 467.413 101.734C466.985 102.053 466.631 102.461 466.376 102.929C466.12 103.397 465.968 103.914 465.93 104.446C465.893 104.978 465.97 105.512 466.158 106.012C466.345 106.511 466.638 106.964 467.016 107.34C467.395 107.716 467.849 108.006 468.35 108.19C468.932 108.402 469.557 108.468 470.171 108.383C470.785 108.298 471.368 108.063 471.87 107.7C472.552 107.204 473.056 106.503 473.31 105.7C473.48 105.11 473.49 104.76 473.53 104.76C473.621 105.087 473.621 105.433 473.53 105.76C473.34 106.663 472.837 107.471 472.11 108.04C471.568 108.469 470.926 108.754 470.244 108.867C469.562 108.981 468.862 108.92 468.21 108.69C467.399 108.405 466.697 107.875 466.2 107.174C465.704 106.472 465.437 105.634 465.437 104.775C465.437 103.915 465.704 103.077 466.2 102.376C466.697 101.675 467.399 101.145 468.21 100.86C468.861 100.628 469.56 100.566 470.242 100.678C470.924 100.789 471.567 101.072 472.11 101.5C472.84 102.071 473.343 102.882 473.53 103.79C473.603 104.082 473.603 104.388 473.53 104.68Z" fill="#455A64"/>
<path d="M465.88 104.49C465.88 104.64 465.09 104.75 464.11 104.75C463.13 104.75 462.35 104.64 462.35 104.49C462.35 104.34 463.14 104.23 464.11 104.23C465.08 104.23 465.88 104.35 465.88 104.49Z" fill="#455A64"/>
<path d="M426.7 195.29C441.861 193.777 457.126 193.587 472.32 194.72L453 222.4L435.6 222.47L431.9 302H408.9L411.1 212.68C411.201 208.404 412.827 204.305 415.684 201.122C418.54 197.939 422.44 195.881 426.68 195.32L426.7 195.29Z" fill="#263238"/>
<path d="M469.06 224.59C469.06 224.59 503.53 226.93 502.67 195.97C502.67 195.97 447.45 186.64 443.86 202.69C442.7 207.85 445.86 302.61 445.86 302.61H470" fill="#263238"/>
<path d="M469.4 217.73C469.604 220.372 469.453 223.029 468.95 225.63C468.76 222.988 468.911 220.333 469.4 217.73Z" fill="#455A64"/>
<path d="M468.3 193.12C468.148 193.206 467.987 193.276 467.82 193.33C467.51 193.45 467.04 193.61 466.42 193.79C464.666 194.26 462.887 194.627 461.09 194.89C458.441 195.232 455.826 195.794 453.27 196.57C451.789 197.05 450.377 197.723 449.07 198.57C447.686 199.51 446.515 200.73 445.63 202.15C443.912 204.918 443.052 208.133 443.16 211.39C443.32 214.39 443.46 217.1 443.58 219.39C443.7 221.68 443.77 223.46 443.83 224.82C443.83 225.41 443.83 225.89 443.83 226.29C443.857 226.462 443.857 226.638 443.83 226.81C443.789 226.639 443.762 226.465 443.75 226.29C443.75 225.9 443.67 225.41 443.61 224.83C443.51 223.47 443.36 221.64 443.19 219.42C443.02 217.2 442.82 214.42 442.66 211.42C442.521 208.062 443.4 204.74 445.18 201.89C446.095 200.41 447.316 199.141 448.76 198.17C450.108 197.29 451.568 196.594 453.1 196.1C455.689 195.34 458.339 194.808 461.02 194.51C463.28 194.2 465.11 193.88 466.35 193.58C467.59 193.28 468.28 193.08 468.3 193.12Z" fill="#455A64"/>
<path d="M395.08 138.21L408.17 179.07L480.54 180.39L480.06 178.21L453.63 177.4L441.46 138.19L395.08 138.21Z" fill="#455A64"/>
<path d="M424.47 158.63C424.9 160.36 424.16 162.06 422.82 162.42C421.48 162.78 420.03 161.67 419.6 159.94C419.17 158.21 419.91 156.52 421.26 156.16C422.61 155.8 424 156.91 424.47 158.63Z" fill="white"/>
<path d="M556.18 167.37C555.013 166.501 553.57 166.085 552.12 166.2C552.12 165.42 552.12 164.93 552.12 164.93H530C530 164.93 529.3 179.54 540.49 180.06C545.49 180.29 548.36 178.06 550 175.22C550.822 175.42 551.664 175.524 552.51 175.53C553.75 175.576 554.972 175.226 556 174.53C556.56 174.088 557.003 173.517 557.292 172.865C557.582 172.214 557.708 171.502 557.66 170.79C557.689 170.145 557.57 169.502 557.314 168.91C557.057 168.317 556.67 167.791 556.18 167.37ZM554.66 172.79C553.72 173.5 552.03 173.39 550.92 173.19C551.488 171.644 551.851 170.03 552 168.39C552.97 168.277 553.948 168.503 554.77 169.03C555.011 169.254 555.198 169.529 555.316 169.836C555.434 170.143 555.48 170.473 555.45 170.8C555.49 171.171 555.44 171.546 555.302 171.893C555.164 172.24 554.944 172.548 554.66 172.79Z" fill="#407BFF"/>
<path d="M548.85 160.22C548.688 160.077 548.547 159.912 548.43 159.73C548.07 159.21 547.821 158.621 547.7 158C547.476 156.997 547.567 155.95 547.96 155C548.577 153.841 549.424 152.82 550.45 152C551.602 150.938 552.387 149.537 552.69 148C552.953 146.655 552.816 145.263 552.295 143.995C551.774 142.728 550.893 141.641 549.76 140.87C548.91 140.331 547.988 139.917 547.02 139.64C545.97 139.348 544.988 138.852 544.13 138.18C543.711 137.8 543.371 137.342 543.13 136.83C542.871 136.289 542.798 135.677 542.92 135.09C542.92 135 542.97 134.92 542.99 134.85L543.25 135.11C542.788 135.317 542.393 135.648 542.109 136.067C541.825 136.485 541.662 136.975 541.64 137.48C541.58 138.498 541.805 139.513 542.29 140.41C542.73 141.34 543.29 142.2 543.67 143.14C544.111 144.054 544.304 145.068 544.23 146.08C544.104 147.053 543.636 147.95 542.91 148.61C542.254 149.219 541.504 149.719 540.69 150.09C539.223 150.626 537.787 151.243 536.39 151.94C535.28 152.573 534.4 153.543 533.88 154.71C533.481 155.589 533.276 156.544 533.28 157.51C533.305 158.336 533.461 159.153 533.74 159.93C533.71 159.886 533.683 159.839 533.66 159.79C533.66 159.69 533.54 159.55 533.47 159.34C533.259 158.752 533.141 158.135 533.12 157.51C533.087 156.518 533.275 155.531 533.67 154.62C534.189 153.395 535.086 152.368 536.23 151.69C537.631 150.973 539.07 150.332 540.54 149.77C541.321 149.414 542.037 148.931 542.66 148.34C543.314 147.737 543.736 146.923 543.85 146.04C543.911 145.095 543.725 144.151 543.31 143.3C542.92 142.4 542.38 141.54 541.93 140.59C541.401 139.625 541.154 138.529 541.22 137.43C541.285 136.863 541.472 136.317 541.77 135.83C542.078 135.315 542.555 134.923 543.12 134.72L543.49 134.58L543.38 134.98L543.33 135.18C543.26 135.686 543.326 136.2 543.519 136.673C543.712 137.145 544.026 137.558 544.43 137.87C545.25 138.507 546.188 138.976 547.19 139.25C548.19 139.542 549.144 139.976 550.02 140.54C550.852 141.114 551.556 141.852 552.09 142.71C553.112 144.297 553.471 146.221 553.09 148.07C552.755 149.662 551.922 151.105 550.71 152.19C549.698 152.99 548.856 153.982 548.23 155.11C547.85 156.002 547.742 156.987 547.92 157.94C548.052 158.761 548.37 159.541 548.85 160.22Z" fill="#263238"/>
<path d="M575.82 179.26H348.86V186.21H361L354.54 309.04L358.01 309.03L364.47 186.21L563.4 185.12L567.98 308.67L571.81 308.88L566.91 186.21H575.82V179.26Z" fill="#263238"/>
<path d="M225.4 13.52H128.79V309.47H225.4V13.52Z" fill="#C9C9C9"/>
<path d="M301.62 14.48H225.26V309.48H301.62V14.48Z" fill="#848484"/>
<path d="M216.09 60.8901H134.14V83.9601H216.09V60.8901Z" fill="#668A9C"/>
<path d="M141.01 63.79H136.42V81.45H141.01V63.79Z" fill="#455A64"/>
<path d="M146.42 67.4998C146.422 67.7888 146.338 68.0718 146.179 68.3138C146.02 68.5548 145.792 68.7438 145.526 68.8558C145.259 68.9678 144.965 68.9978 144.681 68.9428C144.397 68.8878 144.136 68.7488 143.931 68.5458C143.726 68.3418 143.586 68.0818 143.529 67.7978C143.472 67.5148 143.5 67.2208 143.61 66.9528C143.72 66.6858 143.908 66.4568 144.148 66.2968C144.388 66.1358 144.671 66.0498 144.96 66.0498C145.345 66.0498 145.715 66.2018 145.989 66.4738C146.262 66.7458 146.417 67.1138 146.42 67.4998Z" fill="white"/>
<path d="M146.42 73.7398C146.42 74.0288 146.334 74.3108 146.174 74.5508C146.014 74.7908 145.785 74.9778 145.519 75.0888C145.252 75.1988 144.958 75.2278 144.675 75.1718C144.392 75.1148 144.132 74.9758 143.928 74.7718C143.723 74.5678 143.584 74.3078 143.528 74.0248C143.472 73.7408 143.501 73.4478 143.611 73.1808C143.722 72.9138 143.909 72.6858 144.149 72.5258C144.389 72.3648 144.671 72.2798 144.96 72.2798C145.347 72.2798 145.719 72.4338 145.992 72.7068C146.266 72.9808 146.42 73.3528 146.42 73.7398Z" fill="white"/>
<path d="M156.76 66.0498H152.25V79.6098H156.76V66.0498Z" fill="#455A64"/>
<path d="M163.27 66.0498H158.76V79.6098H163.27V66.0498Z" fill="#455A64"/>
<path d="M169.79 66.0498H165.28V79.6098H169.79V66.0498Z" fill="#455A64"/>
<path d="M176.3 66.0498H171.79V79.6098H176.3V66.0498Z" fill="#455A64"/>
<path d="M182.81 66.0498H178.3V79.6098H182.81V66.0498Z" fill="#455A64"/>
<path d="M189.33 66.0498H184.82V79.6098H189.33V66.0498Z" fill="#455A64"/>
<path d="M195.84 66.0498H191.33V79.6098H195.84V66.0498Z" fill="#455A64"/>
<path d="M202.36 66.0498H197.85V79.6098H202.36V66.0498Z" fill="#455A64"/>
<path d="M208.87 66.0498H204.36V79.6098H208.87V66.0498Z" fill="#455A64"/>
<path d="M215.38 66.0498H210.87V79.6098H215.38V66.0498Z" fill="#455A64"/>
<path d="M216.09 94.0298H134.14V117.1H216.09V94.0298Z" fill="#668A9C"/>
<path d="M141.01 96.9399H136.42V114.6H141.01V96.9399Z" fill="#455A64"/>
<path d="M146.42 100.65C146.42 100.939 146.334 101.221 146.174 101.461C146.014 101.701 145.785 101.888 145.519 101.999C145.252 102.109 144.958 102.138 144.675 102.082C144.392 102.026 144.132 101.886 143.928 101.682C143.723 101.478 143.584 101.218 143.528 100.935C143.472 100.652 143.501 100.358 143.611 100.091C143.722 99.8239 143.909 99.5959 144.149 99.4359C144.389 99.2759 144.671 99.1899 144.96 99.1899C145.347 99.1899 145.719 99.3439 145.992 99.6179C146.266 99.8909 146.42 100.263 146.42 100.65Z" fill="white"/>
<path d="M146.42 106.89C146.42 107.179 146.334 107.461 146.174 107.701C146.014 107.941 145.785 108.129 145.519 108.239C145.252 108.35 144.958 108.378 144.675 108.322C144.392 108.266 144.132 108.127 143.928 107.923C143.723 107.718 143.584 107.458 143.528 107.175C143.472 106.892 143.501 106.598 143.611 106.331C143.722 106.065 143.909 105.837 144.149 105.676C144.389 105.516 144.671 105.43 144.96 105.43C145.347 105.43 145.719 105.584 145.992 105.858C146.266 106.132 146.42 106.503 146.42 106.89Z" fill="white"/>
<path d="M156.76 99.1899H152.25V112.75H156.76V99.1899Z" fill="#455A64"/>
<path d="M163.27 99.1899H158.76V112.75H163.27V99.1899Z" fill="#455A64"/>
<path d="M169.79 99.1899H165.28V112.75H169.79V99.1899Z" fill="#455A64"/>
<path d="M176.3 99.1899H171.79V112.75H176.3V99.1899Z" fill="#455A64"/>
<path d="M182.81 99.1899H178.3V112.75H182.81V99.1899Z" fill="#455A64"/>
<path d="M189.33 99.1899H184.82V112.75H189.33V99.1899Z" fill="#455A64"/>
<path d="M195.84 99.1899H191.33V112.75H195.84V99.1899Z" fill="#455A64"/>
<path d="M202.36 99.1899H197.85V112.75H202.36V99.1899Z" fill="#455A64"/>
<path d="M208.87 99.1899H204.36V112.75H208.87V99.1899Z" fill="#455A64"/>
<path d="M215.38 99.1899H210.87V112.75H215.38V99.1899Z" fill="#455A64"/>
<path d="M216.09 127.45H134.14V150.52H216.09V127.45Z" fill="#668A9C"/>
<path d="M141.01 130.35H136.42V148.01H141.01V130.35Z" fill="#455A64"/>
<path d="M146.42 134.06C146.42 134.351 146.333 134.634 146.171 134.875C146.009 135.116 145.778 135.303 145.509 135.412C145.24 135.522 144.944 135.548 144.66 135.488C144.376 135.429 144.116 135.286 143.913 135.078C143.711 134.869 143.575 134.605 143.523 134.32C143.472 134.034 143.506 133.739 143.623 133.473C143.74 133.207 143.933 132.982 144.178 132.827C144.424 132.671 144.71 132.592 145 132.6C145.38 132.611 145.741 132.769 146.007 133.042C146.272 133.314 146.42 133.68 146.42 134.06Z" fill="white"/>
<path d="M146.42 140.3C146.42 140.589 146.334 140.871 146.174 141.111C146.014 141.351 145.785 141.538 145.519 141.649C145.252 141.759 144.958 141.788 144.675 141.732C144.392 141.675 144.132 141.536 143.928 141.332C143.723 141.128 143.584 140.868 143.528 140.585C143.472 140.301 143.501 140.008 143.611 139.741C143.722 139.474 143.909 139.246 144.149 139.086C144.389 138.925 144.671 138.84 144.96 138.84C145.347 138.84 145.719 138.994 145.992 139.267C146.266 139.541 146.42 139.913 146.42 140.3Z" fill="white"/>
<path d="M156.76 132.6H152.25V146.16H156.76V132.6Z" fill="#455A64"/>
<path d="M163.27 132.6H158.76V146.16H163.27V132.6Z" fill="#455A64"/>
<path d="M169.79 132.6H165.28V146.16H169.79V132.6Z" fill="#455A64"/>
<path d="M176.3 132.6H171.79V146.16H176.3V132.6Z" fill="#455A64"/>
<path d="M182.81 132.6H178.3V146.16H182.81V132.6Z" fill="#455A64"/>
<path d="M189.33 132.6H184.82V146.16H189.33V132.6Z" fill="#455A64"/>
<path d="M195.84 132.6H191.33V146.16H195.84V132.6Z" fill="#455A64"/>
<path d="M202.36 132.6H197.85V146.16H202.36V132.6Z" fill="#455A64"/>
<path d="M208.87 132.6H204.36V146.16H208.87V132.6Z" fill="#455A64"/>
<path d="M215.38 132.6H210.87V146.16H215.38V132.6Z" fill="#455A64"/>
<path d="M216.09 161.32H134.14V184.39H216.09V161.32Z" fill="#668A9C"/>
<path d="M141.01 164.22H136.42V181.88H141.01V164.22Z" fill="#455A64"/>
<path d="M146.42 167.93C146.42 168.219 146.334 168.501 146.174 168.741C146.014 168.981 145.785 169.169 145.519 169.279C145.252 169.39 144.958 169.418 144.675 169.362C144.392 169.306 144.132 169.167 143.928 168.963C143.723 168.758 143.584 168.498 143.528 168.215C143.472 167.932 143.501 167.638 143.611 167.371C143.722 167.105 143.909 166.877 144.149 166.716C144.389 166.556 144.671 166.47 144.96 166.47C145.347 166.47 145.719 166.624 145.992 166.898C146.266 167.172 146.42 167.543 146.42 167.93Z" fill="white"/>
<path d="M146.42 174.17C146.42 174.459 146.334 174.741 146.174 174.981C146.014 175.221 145.785 175.408 145.519 175.519C145.252 175.629 144.958 175.658 144.675 175.602C144.392 175.546 144.132 175.407 143.928 175.202C143.723 174.998 143.584 174.738 143.528 174.455C143.472 174.172 143.501 173.878 143.611 173.611C143.722 173.344 143.909 173.116 144.149 172.956C144.389 172.796 144.671 172.71 144.96 172.71C145.347 172.71 145.719 172.864 145.992 173.138C146.266 173.411 146.42 173.783 146.42 174.17Z" fill="white"/>
<path d="M156.76 166.47H152.25V180.03H156.76V166.47Z" fill="#455A64"/>
<path d="M163.27 166.47H158.76V180.03H163.27V166.47Z" fill="#455A64"/>
<path d="M169.79 166.47H165.28V180.03H169.79V166.47Z" fill="#455A64"/>
<path d="M176.3 166.47H171.79V180.03H176.3V166.47Z" fill="#455A64"/>
<path d="M182.81 166.47H178.3V180.03H182.81V166.47Z" fill="#455A64"/>
<path d="M189.33 166.47H184.82V180.03H189.33V166.47Z" fill="#455A64"/>
<path d="M195.84 166.47H191.33V180.03H195.84V166.47Z" fill="#455A64"/>
<path d="M202.36 166.47H197.85V180.03H202.36V166.47Z" fill="#455A64"/>
<path d="M208.87 166.47H204.36V180.03H208.87V166.47Z" fill="#455A64"/>
<path d="M215.38 166.47H210.87V180.03H215.38V166.47Z" fill="#455A64"/>
<path d="M216.09 199.99H134.14V223.06H216.09V199.99Z" fill="#668A9C"/>
<path d="M141.01 202.89H136.42V220.55H141.01V202.89Z" fill="#455A64"/>
<path d="M146.42 206.6C146.42 206.889 146.334 207.171 146.174 207.411C146.014 207.651 145.785 207.838 145.519 207.949C145.252 208.059 144.958 208.088 144.675 208.032C144.392 207.976 144.132 207.837 143.928 207.633C143.723 207.428 143.584 207.168 143.528 206.885C143.472 206.602 143.501 206.308 143.611 206.041C143.722 205.775 143.909 205.547 144.149 205.386C144.389 205.226 144.671 205.14 144.96 205.14C145.347 205.14 145.719 205.294 145.992 205.568C146.266 205.842 146.42 206.213 146.42 206.6Z" fill="white"/>
<path d="M146.42 212.84C146.42 213.129 146.334 213.411 146.174 213.651C146.014 213.891 145.785 214.078 145.519 214.189C145.252 214.299 144.958 214.328 144.675 214.272C144.392 214.215 144.132 214.076 143.928 213.872C143.723 213.668 143.584 213.408 143.528 213.125C143.472 212.841 143.501 212.548 143.611 212.281C143.722 212.014 143.909 211.786 144.149 211.626C144.389 211.466 144.671 211.38 144.96 211.38C145.347 211.38 145.719 211.534 145.992 211.807C146.266 212.081 146.42 212.453 146.42 212.84Z" fill="white"/>
<path d="M156.76 205.14H152.25V218.7H156.76V205.14Z" fill="#455A64"/>
<path d="M163.27 205.14H158.76V218.7H163.27V205.14Z" fill="#455A64"/>
<path d="M169.79 205.14H165.28V218.7H169.79V205.14Z" fill="#455A64"/>
<path d="M176.3 205.14H171.79V218.7H176.3V205.14Z" fill="#455A64"/>
<path d="M182.81 205.14H178.3V218.7H182.81V205.14Z" fill="#455A64"/>
<path d="M189.33 205.14H184.82V218.7H189.33V205.14Z" fill="#455A64"/>
<path d="M195.84 205.14H191.33V218.7H195.84V205.14Z" fill="#455A64"/>
<path d="M202.36 205.14H197.85V218.7H202.36V205.14Z" fill="#455A64"/>
<path d="M208.87 205.14H204.36V218.7H208.87V205.14Z" fill="#455A64"/>
<path d="M215.38 205.14H210.87V218.7H215.38V205.14Z" fill="#455A64"/>
<path d="M216.09 272.53H134.14V295.6H216.09V272.53Z" fill="#668A9C"/>
<path d="M141.01 275.43H136.42V293.09H141.01V275.43Z" fill="#455A64"/>
<path d="M146.42 279.14C146.422 279.429 146.338 279.712 146.179 279.954C146.02 280.195 145.792 280.384 145.526 280.496C145.259 280.608 144.965 280.638 144.681 280.583C144.397 280.528 144.136 280.39 143.931 280.186C143.726 279.982 143.586 279.722 143.529 279.438C143.472 279.155 143.5 278.861 143.61 278.594C143.72 278.326 143.908 278.098 144.148 277.937C144.388 277.776 144.671 277.69 144.96 277.69C145.345 277.69 145.715 277.842 145.989 278.114C146.262 278.386 146.417 278.754 146.42 279.14Z" fill="white"/>
<path d="M146.42 285.38C146.42 285.669 146.334 285.951 146.174 286.191C146.014 286.431 145.785 286.618 145.519 286.729C145.252 286.839 144.958 286.868 144.675 286.812C144.392 286.756 144.132 286.616 143.928 286.412C143.723 286.208 143.584 285.948 143.528 285.665C143.472 285.382 143.501 285.088 143.611 284.821C143.722 284.554 143.909 284.326 144.149 284.166C144.389 284.006 144.671 283.92 144.96 283.92C145.347 283.92 145.719 284.074 145.992 284.348C146.266 284.621 146.42 284.993 146.42 285.38Z" fill="white"/>
<path d="M156.76 277.69H152.25V291.25H156.76V277.69Z" fill="#455A64"/>
<path d="M163.27 277.69H158.76V291.25H163.27V277.69Z" fill="#455A64"/>
<path d="M169.79 277.69H165.28V291.25H169.79V277.69Z" fill="#455A64"/>
<path d="M176.3 277.69H171.79V291.25H176.3V277.69Z" fill="#455A64"/>
<path d="M182.81 277.69H178.3V291.25H182.81V277.69Z" fill="#455A64"/>
<path d="M189.33 277.69H184.82V291.25H189.33V277.69Z" fill="#455A64"/>
<path d="M195.84 277.69H191.33V291.25H195.84V277.69Z" fill="#455A64"/>
<path d="M202.36 277.69H197.85V291.25H202.36V277.69Z" fill="#455A64"/>
<path d="M208.87 277.69H204.36V291.25H208.87V277.69Z" fill="#455A64"/>
<path d="M215.38 277.69H210.87V291.25H215.38V277.69Z" fill="#455A64"/>
<path d="M216.09 236.29H134.14V259.36H216.09V236.29Z" fill="#668A9C"/>
<path d="M141.01 239.19H136.42V256.85H141.01V239.19Z" fill="#455A64"/>
<path d="M146.42 242.9C146.422 243.189 146.338 243.473 146.179 243.714C146.02 243.955 145.792 244.144 145.526 244.256C145.259 244.368 144.965 244.399 144.681 244.343C144.397 244.288 144.136 244.15 143.931 243.946C143.726 243.742 143.586 243.482 143.529 243.199C143.472 242.915 143.5 242.621 143.61 242.354C143.72 242.086 143.908 241.858 144.148 241.697C144.388 241.536 144.671 241.45 144.96 241.45C145.345 241.45 145.715 241.603 145.989 241.874C146.262 242.146 146.417 242.515 146.42 242.9Z" fill="white"/>
<path d="M146.42 249.14C146.422 249.429 146.338 249.712 146.179 249.954C146.02 250.195 145.792 250.384 145.526 250.496C145.259 250.608 144.965 250.638 144.681 250.583C144.397 250.528 144.136 250.39 143.931 250.186C143.726 249.982 143.586 249.722 143.529 249.438C143.472 249.155 143.5 248.861 143.61 248.594C143.72 248.326 143.908 248.098 144.148 247.937C144.388 247.776 144.671 247.69 144.96 247.69C145.345 247.69 145.715 247.842 145.989 248.114C146.262 248.386 146.417 248.754 146.42 249.14Z" fill="white"/>
<path d="M156.76 241.45H152.25V255.01H156.76V241.45Z" fill="#455A64"/>
<path d="M163.27 241.45H158.76V255.01H163.27V241.45Z" fill="#455A64"/>
<path d="M169.79 241.45H165.28V255.01H169.79V241.45Z" fill="#455A64"/>
<path d="M176.3 241.45H171.79V255.01H176.3V241.45Z" fill="#455A64"/>
<path d="M182.81 241.45H178.3V255.01H182.81V241.45Z" fill="#455A64"/>
<path d="M189.33 241.45H184.82V255.01H189.33V241.45Z" fill="#455A64"/>
<path d="M195.84 241.45H191.33V255.01H195.84V241.45Z" fill="#455A64"/>
<path d="M202.36 241.45H197.85V255.01H202.36V241.45Z" fill="#455A64"/>
<path d="M208.87 241.45H204.36V255.01H208.87V241.45Z" fill="#455A64"/>
<path d="M215.38 241.45H210.87V255.01H215.38V241.45Z" fill="#455A64"/>
<path d="M184.82 60.89C184.765 60.657 184.738 60.419 184.74 60.18C184.74 59.71 184.68 59.02 184.65 58.13C184.62 57.24 184.65 56.13 184.56 54.89C184.514 53.472 184.327 52.061 184 50.68C183.535 49.028 182.794 47.466 181.81 46.06C180.688 44.45 179.125 43.196 177.31 42.45C175.263 41.704 173.116 41.269 170.94 41.16L163.89 40.54C154.21 39.71 145.44 39.17 139.08 39.05C135.9 38.99 133.33 39.05 131.55 39.05H129.5C129.264 39.076 129.026 39.076 128.79 39.05C129.025 39.009 129.262 38.986 129.5 38.98L131.55 38.85C133.32 38.78 135.9 38.71 139.09 38.73C145.46 38.73 154.25 39.23 163.93 40.07L170.99 40.69C173.214 40.794 175.409 41.235 177.5 42C179.388 42.789 181.007 44.109 182.16 45.8C183.158 47.253 183.899 48.866 184.35 50.57C184.672 51.981 184.839 53.423 184.85 54.87C184.85 56.14 184.85 57.23 184.85 58.12C184.85 59.01 184.85 59.64 184.85 60.12C184.865 60.377 184.855 60.635 184.82 60.89Z" fill="#668A9C"/>
<path d="M160 60.8901C159.955 60.6701 159.939 60.4451 159.95 60.2201V58.2901C159.95 57.4501 159.95 56.4301 159.85 55.2901C159.789 53.9671 159.448 52.6721 158.85 51.4901C157.962 50.1571 156.657 49.1551 155.14 48.6401C153.423 47.9691 151.556 47.7791 149.74 48.0901C148.766 48.2521 147.823 48.5691 146.95 49.0301C146.056 49.4811 145.308 50.1741 144.79 51.0301C144.536 51.4711 144.403 51.9711 144.403 52.4801C144.403 52.9891 144.536 53.4891 144.79 53.9301C145.051 54.3891 145.402 54.7901 145.824 55.1081C146.245 55.4271 146.727 55.6551 147.24 55.7801C147.751 55.8921 148.282 55.8741 148.785 55.7301C149.288 55.5851 149.747 55.3171 150.12 54.9501C150.873 54.2271 151.333 53.2511 151.41 52.2101C151.478 51.2031 151.172 50.2061 150.55 49.4101C149.994 48.6021 149.249 47.9431 148.38 47.4901C147.525 47.0991 146.607 46.8621 145.67 46.7901C144.75 46.6601 143.85 46.5301 142.98 46.4401C141.24 46.2401 139.6 46.1301 138.11 46.0701C135.11 45.9501 132.7 46.0001 131.03 46.0001H129.1C128.877 46.0241 128.653 46.0241 128.43 46.0001C128.65 45.9531 128.875 45.9301 129.1 45.9301L131.03 45.8401C132.7 45.7701 135.12 45.6701 138.12 45.7401C139.62 45.7401 141.27 45.8701 143.02 46.0501C143.9 46.1401 144.81 46.2501 145.74 46.3801C146.21 46.4501 146.67 46.5101 147.16 46.6001C147.66 46.7021 148.144 46.8701 148.6 47.1001C149.541 47.5861 150.351 48.2931 150.96 49.1601C151.664 50.0691 152.004 51.2071 151.916 52.3531C151.827 53.4991 151.315 54.5711 150.48 55.3601C150.049 55.7921 149.517 56.1101 148.932 56.2851C148.347 56.4591 147.727 56.4851 147.13 56.3601C146.543 56.2201 145.992 55.9601 145.51 55.5971C145.028 55.2341 144.627 54.7751 144.33 54.2501C144.04 53.7321 143.888 53.1491 143.888 52.5551C143.888 51.9621 144.04 51.3781 144.33 50.8601C144.89 49.8991 145.717 49.1211 146.71 48.6201C147.628 48.1271 148.622 47.7891 149.65 47.6201C151.552 47.3071 153.504 47.5251 155.29 48.2501C156.887 48.8121 158.25 49.8931 159.16 51.3201C159.787 52.5621 160.129 53.9291 160.16 55.3201C160.23 56.5201 160.16 57.5401 160.16 58.3801C160.16 59.2201 160.1 59.8101 160.08 60.3101C160.07 60.5051 160.043 60.6991 160 60.8901Z" fill="#668A9C"/>
<path d="M191.51 60.8902C191.427 60.6432 191.37 60.3892 191.34 60.1302C191.25 59.6202 191.11 58.8802 190.91 57.9302C190.359 55.2562 189.552 52.6402 188.5 50.1202C187.014 46.3522 184.553 43.0462 181.37 40.5402C179.446 39.1512 177.19 38.2932 174.83 38.0502C172.276 37.7742 169.709 37.6372 167.14 37.6402C156.55 37.4402 146.95 37.4802 140.01 37.2102C136.54 37.0902 133.73 36.9302 131.79 36.7902L129.56 36.6102C129.301 36.6002 129.043 36.5672 128.79 36.5102C129.049 36.4862 129.31 36.4862 129.57 36.5102L131.8 36.6002C133.74 36.6802 136.55 36.7802 140.02 36.8502C146.96 37.0302 156.55 36.9302 167.15 37.1302C169.739 37.1252 172.327 37.2682 174.9 37.5602C177.343 37.8222 179.675 38.7222 181.66 40.1702C183.405 41.5092 184.925 43.1202 186.16 44.9402C187.221 46.5122 188.119 48.1872 188.84 49.9402C189.873 52.4932 190.634 55.1482 191.11 57.8602C191.28 58.8102 191.39 59.5602 191.45 60.0702C191.492 60.3412 191.512 60.6162 191.51 60.8902Z" fill="#668A9C"/>
<path d="M214.96 17.2002H135.26V28.7702H214.96V17.2002Z" fill="#668A9C"/>
<path d="M196.18 22.9902H152.79V28.7702H196.18V22.9902Z" fill="#455A64"/>
<path d="M247.48 257.16C247.48 257.16 246.6 257.3 245.07 257.74C242.925 258.395 240.899 259.391 239.07 260.69C237.803 261.579 236.666 262.639 235.69 263.84C235.148 264.499 234.682 265.217 234.3 265.98C233.929 266.807 233.638 267.668 233.43 268.55C232.52 272.2 232.79 276.39 232.98 280.75C233.17 285.11 232.87 289.44 231.15 292.93C230.372 294.585 229.266 296.065 227.9 297.28C225.708 299.184 223.033 300.447 220.17 300.93C219.197 301.076 218.212 301.12 217.23 301.06C216.612 301.019 216 300.922 215.4 300.77C215.19 300.732 214.985 300.668 214.79 300.58C214.79 300.52 215.66 300.79 217.24 300.85C218.205 300.884 219.17 300.814 220.12 300.64C221.373 300.403 222.592 300.013 223.75 299.48C225.156 298.839 226.457 297.989 227.61 296.96C228.92 295.769 229.978 294.327 230.72 292.72C232.36 289.34 232.64 285.1 232.45 280.72C232.26 276.34 232 272.13 232.96 268.38C233.182 267.468 233.494 266.581 233.89 265.73C234.291 264.937 234.78 264.192 235.35 263.51C236.367 262.295 237.548 261.229 238.86 260.34C240.738 259.045 242.825 258.084 245.03 257.5C245.628 257.344 246.236 257.227 246.85 257.15C247.059 257.126 247.271 257.13 247.48 257.16Z" fill="#668A9C"/>
<path d="M217.28 297H210.74V304.96H217.28V297Z" fill="#668A9C"/>
<path d="M284.17 237.06H247.48V277.26H284.17V237.06Z" fill="#455A64"/>
<path d="M274.36 265.857C279.078 261.139 279.078 253.491 274.36 248.773C269.643 244.056 261.994 244.056 257.276 248.773C252.559 253.491 252.559 261.139 257.276 265.857C261.994 270.574 269.643 270.574 274.36 265.857Z" fill="#668A9C"/>
<path d="M271.86 257.31C271.86 258.497 271.508 259.657 270.849 260.643C270.189 261.63 269.252 262.399 268.156 262.853C267.06 263.307 265.853 263.426 264.689 263.195C263.525 262.963 262.456 262.392 261.617 261.553C260.778 260.714 260.207 259.644 259.975 258.481C259.744 257.317 259.862 256.11 260.317 255.014C260.771 253.918 261.54 252.981 262.526 252.321C263.513 251.662 264.673 251.31 265.86 251.31C267.451 251.31 268.977 251.942 270.103 253.067C271.228 254.193 271.86 255.719 271.86 257.31Z" fill="#455A64"/>
<path d="M252.44 244.42C253.059 244.42 253.56 243.919 253.56 243.3C253.56 242.682 253.059 242.18 252.44 242.18C251.821 242.18 251.32 242.682 251.32 243.3C251.32 243.919 251.821 244.42 252.44 244.42Z" fill="#668A9C"/>
<path d="M278.56 244.42C279.178 244.42 279.68 243.919 279.68 243.3C279.68 242.682 279.178 242.18 278.56 242.18C277.941 242.18 277.44 242.682 277.44 243.3C277.44 243.919 277.941 244.42 278.56 244.42Z" fill="#668A9C"/>
<path d="M278.79 274.1C279.408 274.1 279.91 273.598 279.91 272.98C279.91 272.361 279.408 271.86 278.79 271.86C278.171 271.86 277.67 272.361 277.67 272.98C277.67 273.598 278.171 274.1 278.79 274.1Z" fill="#668A9C"/>
<path d="M252.44 274.56C253.059 274.56 253.56 274.058 253.56 273.44C253.56 272.821 253.059 272.32 252.44 272.32C251.821 272.32 251.32 272.821 251.32 273.44C251.32 274.058 251.821 274.56 252.44 274.56Z" fill="#668A9C"/>
<path d="M287.13 237.06H284.17V277.26H287.13V237.06Z" fill="#668A9C"/>
<path d="M315.33 85.7898C315.33 85.9298 304.82 86.0498 291.85 86.0498C278.88 86.0498 268.37 85.9298 268.37 85.7898C268.37 85.6498 278.88 85.5298 291.85 85.5298C304.82 85.5298 315.33 85.6498 315.33 85.7898Z" fill="#668A9C"/>
<path d="M412.77 90.7802C412.62 90.7892 412.47 90.7892 412.32 90.7802H410.94H405.57L385.45 90.8602L316 91.0002H315.81L315.76 90.8202C314.997 88.2122 314.86 85.4612 315.362 82.7912C315.863 80.1212 316.988 77.6072 318.645 75.4542C320.302 73.3002 322.444 71.5692 324.897 70.4012C327.35 69.2322 330.044 68.6602 332.76 68.7302L332.5 69.0602C332.074 67.5452 331.892 65.9722 331.96 64.4002C332.047 61.7242 332.83 59.1172 334.233 56.8372C335.637 54.5572 337.61 52.6832 339.96 51.4002C342.233 50.2132 344.761 49.5992 347.325 49.6132C349.889 49.6272 352.411 50.2682 354.67 51.4802L354.32 51.6102C355.573 48.6982 357.417 46.0792 359.736 43.9192C362.055 41.7582 364.797 40.1042 367.79 39.0602C370.542 38.0172 373.478 37.5502 376.418 37.6882C379.358 37.8252 382.238 38.5652 384.88 39.8602C389.633 42.3802 393.37 46.4632 395.46 51.4202C397.374 55.7762 397.83 60.6342 396.76 65.2702L396.57 65.0502C399.292 64.7712 402.04 65.1692 404.57 66.2102C406.842 67.1192 408.889 68.5112 410.57 70.2902C411.331 71.0882 411.965 71.9992 412.45 72.9902C412.882 73.9062 413.217 74.8642 413.45 75.8502C413.859 77.5612 414.087 79.3112 414.13 81.0702C414.221 83.4962 414.012 85.9242 413.51 88.3002C413.375 88.9152 413.209 89.5222 413.01 90.1202C412.87 90.5202 412.79 90.7102 412.79 90.7102C412.79 90.7102 412.85 90.4902 412.97 90.0902C413.09 89.6902 413.24 89.0902 413.41 88.2802C413.868 85.9092 414.046 83.4922 413.94 81.0802C413.878 79.3362 413.637 77.6042 413.22 75.9102C412.774 73.8802 411.79 72.0082 410.37 70.4902C408.719 68.7512 406.714 67.3872 404.49 66.4902C401.993 65.4832 399.286 65.1082 396.61 65.4002H396.36L396.41 65.1502C397.449 60.5892 396.982 55.8142 395.08 51.5402C393.021 46.6812 389.347 42.6822 384.68 40.2202C382.092 38.9592 379.273 38.2422 376.398 38.1132C373.522 37.9842 370.65 38.4462 367.96 39.4702C365.035 40.4982 362.355 42.1212 360.088 44.2362C357.822 46.3512 356.018 48.9132 354.79 51.7602L354.68 52.0202L354.43 51.8902C352.244 50.7192 349.804 50.1002 347.324 50.0882C344.843 50.0762 342.398 50.6702 340.2 51.8202C337.946 53.0632 336.053 54.8712 334.706 57.0652C333.36 59.2602 332.607 61.7672 332.52 64.3402C332.419 65.9092 332.581 67.4842 333 69.0002L333.1 69.3402H332.74C330.103 69.2692 327.487 69.8222 325.104 70.9542C322.721 72.0862 320.639 73.7652 319.028 75.8542C317.417 77.9422 316.322 80.3822 315.832 82.9742C315.343 85.5662 315.472 88.2372 316.21 90.7702L315.97 90.5902L385.29 90.7002L405.46 90.7702H410.87H412.27L412.77 90.7802Z" fill="#668A9C"/>
<path d="M399.3 149.83C399.091 149.854 398.879 149.854 398.67 149.83L396.83 149.88L390 150L366.32 150.09H366V149.84C366 145.84 366 141.49 366 137C366 124.35 366.06 112.91 366.08 104.57C366.08 100.45 366.14 97.1098 366.16 94.7398C366.16 93.6198 366.16 92.7398 366.21 92.0698C366.21 91.7898 366.21 91.5598 366.21 91.3698C366.182 91.3628 366.157 91.3448 366.141 91.3208C366.124 91.2968 366.117 91.2678 366.121 91.2388C366.125 91.2098 366.139 91.1828 366.161 91.1638C366.183 91.1438 366.211 91.1338 366.24 91.1338C366.269 91.1338 366.297 91.1438 366.319 91.1638C366.341 91.1828 366.355 91.2098 366.359 91.2388C366.363 91.2678 366.356 91.2968 366.339 91.3208C366.323 91.3448 366.298 91.3628 366.27 91.3698C366.27 91.5598 366.27 91.7898 366.27 92.0698C366.27 92.7198 366.27 93.6198 366.32 94.7398C366.32 97.1098 366.37 100.45 366.4 104.57C366.4 112.91 366.4 124.35 366.48 137C366.48 141.49 366.48 145.83 366.48 149.84L366.23 149.59L389.91 149.68L396.77 149.76H398.61C398.842 149.762 399.073 149.785 399.3 149.83Z" fill="#668A9C"/>
<path d="M390.12 21.8198L367.8 13.8198L345.69 21.7298C342.87 23.0598 340.39 23.8598 340.39 26.4898V39.5798C340.349 48.7708 342.87 57.7918 347.67 65.6298C352.451 73.5678 359.55 79.8498 368.01 83.6298C377.01 80.6898 383.8 72.8698 387.92 66.1798C392.719 58.3368 395.24 49.3138 395.2 40.1198V28.2998C395.2 24.5498 393.22 22.7198 390.12 21.8198Z" fill="#407BFF"/>
<g opacity="0.3">
<path d="M368 75.9998C361.299 72.9778 355.685 67.9768 351.91 61.6698C348.104 55.4508 346.112 48.2908 346.16 40.9998V31.8198C346.16 29.7398 347.41 27.8198 349.91 26.6298L367.8 19.9998V13.7998L345.69 21.7098C343.37 22.7098 340.39 23.8398 340.39 26.4698V39.5598C340.349 48.7508 342.87 57.7718 347.67 65.6098C352.451 73.5478 359.55 79.8298 368.01 83.6098L368 75.9998Z" fill="black"/>
</g>
<g opacity="0.4">
<path d="M368 83.5798C369.515 83.0818 370.984 82.4528 372.39 81.6998C375.834 79.7488 378.963 77.2868 381.67 74.3998C384.13 71.7478 386.296 68.8378 388.13 65.7198C392.995 57.8278 395.449 48.6868 395.19 39.4198V28.6098C395.19 23.2298 392.41 22.8298 390.09 21.8198L367.77 13.8198V19.9998L385.88 26.7998C388.37 27.9698 389.62 29.9198 389.62 31.9998V41.1798C389.653 48.4518 387.659 55.5888 383.86 61.7898C380.169 68.0518 374.628 73.0158 368 75.9998V83.5798Z" fill="black"/>
</g>
<path opacity="0.5" d="M373.72 40.4499V38.6799C373.72 37.1419 373.109 35.6659 372.021 34.5789C370.933 33.4909 369.458 32.8799 367.92 32.8799C366.382 32.8799 364.906 33.4909 363.819 34.5789C362.731 35.6659 362.12 37.1419 362.12 38.6799V40.4699C361.35 40.5849 360.648 40.9719 360.139 41.5609C359.631 42.1499 359.351 42.9019 359.35 43.6799V54.0999C359.35 54.5259 359.434 54.9479 359.598 55.3419C359.761 55.7359 360.001 56.0929 360.302 56.3939C360.604 56.6949 360.963 56.9339 361.357 57.0959C361.751 57.2579 362.174 57.3409 362.6 57.3399H373.41C373.836 57.3409 374.259 57.2579 374.653 57.0959C375.047 56.9339 375.406 56.6949 375.707 56.3939C376.009 56.0929 376.249 55.7359 376.412 55.3419C376.576 54.9479 376.66 54.5259 376.66 54.0999V43.6799C376.659 42.8719 376.357 42.0939 375.813 41.4969C375.27 40.8999 374.524 40.5269 373.72 40.4499ZM369.49 51.5099H366.66L367.11 49.5099C366.86 49.3569 366.653 49.1429 366.509 48.8869C366.365 48.6309 366.29 48.3429 366.29 48.0499C366.288 47.7509 366.364 47.4559 366.511 47.1949C366.657 46.9339 366.869 46.7149 367.125 46.5599C367.381 46.4049 367.673 46.3199 367.972 46.3109C368.271 46.3029 368.568 46.3729 368.832 46.5129C369.096 46.6539 369.32 46.8599 369.48 47.1129C369.641 47.3659 369.733 47.6559 369.748 47.9549C369.763 48.2529 369.7 48.5509 369.565 48.8189C369.431 49.0859 369.229 49.3139 368.98 49.4799C369.18 50.2199 369.49 51.5099 369.49 51.5099ZM372.49 40.4399H363.4V38.6799C363.4 37.4729 363.879 36.3159 364.733 35.4629C365.586 34.6089 366.743 34.1299 367.95 34.1299C369.157 34.1299 370.314 34.6089 371.167 35.4629C372.021 36.3159 372.5 37.4729 372.5 38.6799L372.49 40.4399Z" fill="white"/>
<path d="M349.78 40.3201C349.585 39.7351 349.47 39.1261 349.44 38.5101C349.277 37.0361 349.217 35.5521 349.26 34.0701C349.26 33.2001 349.34 32.3701 349.42 31.6201C349.457 30.9271 349.627 30.2481 349.92 29.6201C350.142 29.1911 350.491 28.8411 350.92 28.6201C351.22 28.4801 351.41 28.4901 351.41 28.5101C350.872 28.7591 350.44 29.1921 350.19 29.7301C349.949 30.3281 349.817 30.9651 349.8 31.6101C349.74 32.3601 349.7 33.1801 349.67 34.0401C349.67 35.7601 349.67 37.3201 349.74 38.4501C349.808 39.0711 349.822 39.6961 349.78 40.3201Z" fill="white"/>
<path d="M350.11 45.9998C350 45.9998 349.9 45.4699 349.89 44.7999C349.88 44.1299 349.95 43.5898 350.06 43.5898C350.17 43.5898 350.26 44.1298 350.28 44.7898C350.3 45.4498 350.21 45.9998 350.11 45.9998Z" fill="white"/>
</g>
</g>
<defs>
<clipPath id="clip0_27_9">
<rect width="628" height="310" fill="white"/>
</clipPath>
</defs>
</svg>
