<svg viewBox="0 0 938 835" fill="none" xmlns="http://www.w3.org/2000/svg">
<path d="M551.19 834.403V555.234C551.19 402.526 581.016 277.258 640.667 179.43C702.705 81.6015 801.726 21.9501 937.732 0.475586V147.218C856.606 156.762 799.34 187.781 765.935 240.274C732.53 292.768 715.828 376.28 715.828 490.81L608.455 476.494H934.152V834.403H551.19ZM0.0106201 834.403V555.234C0.0106201 402.526 29.8363 277.258 89.4878 179.43C151.525 81.6015 250.547 21.9501 386.552 0.475586V147.218C305.426 156.762 248.161 187.781 214.756 240.274C181.351 292.768 164.649 376.28 164.649 490.81L57.276 476.494H382.973V834.403H0.0106201Z" fill="#2563eb"/>
</svg>
